<svg width="60" height="60" viewBox="0 0 60 60" fill="none" xmlns="http://www.w3.org/2000/svg">
<path d="M30 37.5C32.0833 37.5 33.8542 36.7708 35.3125 35.3125C36.7708 33.8542 37.5 32.0833 37.5 30C37.5 27.9167 36.7708 26.1458 35.3125 24.6875C33.8542 23.2292 32.0833 22.5 30 22.5C27.9167 22.5 26.1458 23.2292 24.6875 24.6875C23.2292 26.1458 22.5 27.9167 22.5 30C22.5 32.0833 23.2292 33.8542 24.6875 35.3125C26.1458 36.7708 27.9167 37.5 30 37.5ZM22.5 57.5C21.125 57.5 19.9483 57.0108 18.97 56.0325C17.9917 55.0542 17.5017 53.8767 17.5 52.5V7.5C17.5 6.125 17.99 4.94833 18.97 3.97C19.95 2.99167 21.1267 2.50167 22.5 2.5H37.5C38.875 2.5 40.0525 2.99 41.0325 3.97C42.0125 4.95 42.5017 6.12667 42.5 7.5V52.5C42.5 53.875 42.0108 55.0525 41.0325 56.0325C40.0542 57.0125 38.8767 57.5017 37.5 57.5H22.5ZM30 33.75C28.9583 33.75 28.0733 33.3858 27.345 32.6575C26.6167 31.9292 26.2517 31.0433 26.25 30C26.2483 28.9567 26.6133 28.0717 27.345 27.345C28.0767 26.6183 28.9617 26.2533 30 26.25C31.0383 26.2467 31.9242 26.6117 32.6575 27.345C33.3908 28.0783 33.755 28.9633 33.75 30C33.745 31.0367 33.3808 31.9225 32.6575 32.6575C31.9342 33.3925 31.0483 33.7567 30 33.75ZM30 15C30.7083 15 31.3025 14.76 31.7825 14.28C32.2625 13.8 32.5017 13.2067 32.5 12.5C32.4983 11.7933 32.2583 11.2 31.78 10.72C31.3017 10.24 30.7083 10 30 10C29.2917 10 28.6983 10.24 28.22 10.72C27.7417 11.2 27.5017 11.7933 27.5 12.5C27.4983 13.2067 27.7383 13.8008 28.22 14.2825C28.7017 14.7642 29.295 15.0033 30 15Z" fill="#C39C67"/>
</svg>
