<svg width="27" height="27" viewBox="0 0 27 27" fill="none" xmlns="http://www.w3.org/2000/svg">
<path d="M14.3438 17.7188H9.28125C8.81634 17.7188 8.4375 17.3391 8.4375 16.875C8.4375 16.4109 8.81634 16.0312 9.28125 16.0312H14.3438C14.8078 16.0312 15.1875 16.4109 15.1875 16.875C15.1875 17.3391 14.8078 17.7188 14.3438 17.7188ZM18.5625 14.3438H11.8125C11.3476 14.3438 10.9688 13.9641 10.9688 13.5C10.9688 13.0359 11.3476 12.6562 11.8125 12.6562H18.5625C19.0266 12.6562 19.4062 13.0359 19.4062 13.5C19.4062 13.9641 19.0266 14.3438 18.5625 14.3438ZM16.0312 10.9688H9.28125C8.81634 10.9688 8.4375 10.5891 8.4375 10.125C8.4375 9.66094 8.81634 9.28125 9.28125 9.28125H16.0312C16.4953 9.28125 16.875 9.66094 16.875 10.125C16.875 10.5891 16.4953 10.9688 16.0312 10.9688ZM13.5 3.375C7.90763 3.375 3.375 7.90847 3.375 13.5C3.375 19.0915 7.90763 23.625 13.5 23.625C19.0915 23.625 23.625 19.0915 23.625 13.5C23.625 7.90847 19.0915 3.375 13.5 3.375Z" fill="white"/>
</svg>
