<svg width="13" height="13" viewBox="0 0 13 13" fill="none" xmlns="http://www.w3.org/2000/svg">
<path d="M12.3907 2.84375V6.09375C12.3907 6.25537 12.3265 6.41036 12.2122 6.52464C12.098 6.63892 11.943 6.70313 11.7814 6.70313C11.6197 6.70313 11.4647 6.63892 11.3505 6.52464C11.2362 6.41036 11.172 6.25537 11.172 6.09375V4.31641L7.33748 8.15141C7.28087 8.20822 7.2136 8.25329 7.13953 8.28405C7.06546 8.31481 6.98604 8.33064 6.90584 8.33064C6.82564 8.33064 6.74623 8.31481 6.67216 8.28405C6.59809 8.25329 6.53081 8.20822 6.4742 8.15141L4.8751 6.55078L1.64998 9.77488C1.5355 9.88936 1.38024 9.95367 1.21834 9.95367C1.05645 9.95367 0.90118 9.88936 0.786702 9.77488C0.672223 9.66041 0.60791 9.50514 0.60791 9.34324C0.60791 9.18135 0.672223 9.02608 0.786702 8.9116L4.44295 5.25535C4.49956 5.19854 4.56684 5.15347 4.64091 5.12271C4.71498 5.09195 4.79439 5.07612 4.87459 5.07612C4.95479 5.07612 5.03421 5.09195 5.10828 5.12271C5.18235 5.15347 5.24962 5.19854 5.30623 5.25535L6.90635 6.85547L10.3087 3.45313H8.53135C8.36973 3.45313 8.21474 3.38892 8.10046 3.27464C7.98618 3.16036 7.92198 3.00537 7.92198 2.84375C7.92198 2.68213 7.98618 2.52714 8.10046 2.41286C8.21474 2.29858 8.36973 2.23438 8.53135 2.23438H11.7814C11.943 2.23438 12.098 2.29858 12.2122 2.41286C12.3265 2.52714 12.3907 2.68213 12.3907 2.84375Z" fill="#FF5B5B"/>
</svg>
