<svg width="116" height="50" viewBox="0 0 116 50" fill="none" xmlns="http://www.w3.org/2000/svg">
<path d="M26.1905 16.7996L33.4161 24.0253H18.9649L26.1905 16.7996Z" fill="#C39C67"/>
<path d="M-0.000488281 24.0253H3.46782V0H-0.000488281V24.0253ZM3.35944 0.108383V23.9169H0.107896V0.108383H3.35944ZM-0.000488281 0H3.46782V24.0253H-0.000488281V0Z" fill="#11271D"/>
<path d="M77.3506 24.0253H80.8189V0H77.3506V24.0253ZM80.7105 0.108383V23.9169H77.459V0.108383H80.7105ZM77.3506 0H80.8189V24.0253H77.3506V0Z" fill="#11271D"/>
<path d="M112.554 19.9067C112.193 20.3402 111.795 20.7376 111.362 21.0989L114.252 24.0253H103.558C103.558 24.0253 103.522 24.0253 103.486 24.0253C96.8745 24.0253 91.4914 18.6783 91.4914 12.0307C91.4914 5.41924 96.8745 0.0361278 103.486 0.0361278C110.134 0.0361278 115.481 5.41924 115.481 12.0307C115.481 15.0655 114.397 17.7751 112.554 19.9067ZM107.424 19.6177C107.93 19.3648 108.436 19.0396 108.905 18.6422C109.339 18.2809 109.736 17.8835 110.097 17.45C111.326 15.9687 112.048 14.09 112.048 12.0307C112.048 7.33404 108.219 3.50444 103.486 3.50444C98.7893 3.50444 94.9597 7.33404 94.9597 12.0307C94.9597 16.7635 98.7893 20.5931 103.486 20.5931C104.245 20.5931 104.967 20.4847 105.654 20.3041C106.268 20.1596 106.846 19.9067 107.424 19.6177Z" fill="#11271D"/>
<path d="M54.0308 24.0253H57.4991V3.50444H66.6757V0.0361282H45.2516V3.50444H54.0308V24.0253Z" fill="#11271D"/>
<path d="M26.208 3.46775C21.4752 3.46775 17.6456 7.33347 17.6456 12.0301C17.6456 14.3494 18.5652 16.4517 20.0601 17.9928L17.6269 20.4471C15.4931 18.2854 14.1773 15.3167 14.1773 12.0301C14.1773 5.38254 19.5604 0.03556 26.208 0.03556C32.8194 0.03556 38.2025 5.38254 38.2025 12.0301C38.2025 15.3329 36.8737 18.3146 34.7257 20.479L32.2928 18.0249C33.8018 16.481 34.7342 14.3655 34.7342 12.0301C34.7342 7.33347 30.9046 3.46775 26.208 3.46775Z" fill="#11271D"/>
<path d="M26.1894 6.49714C25.1328 6.49714 24.1 6.81045 23.2215 7.39746C22.3429 7.98446 21.6582 8.8188 21.2539 9.79495C20.8496 10.7711 20.7438 11.8452 20.9499 12.8815C21.156 13.9178 21.6648 14.8697 22.4119 15.6168L24.658 13.3707C24.3551 13.0678 24.1488 12.6819 24.0653 12.2618C23.9817 11.8417 24.0246 11.4063 24.1885 11.0105C24.3524 10.6148 24.63 10.2765 24.9862 10.0386C25.3423 9.80058 25.7611 9.67357 26.1894 9.67357C26.6178 9.67357 27.0365 9.80058 27.3926 10.0386C27.7488 10.2765 28.0264 10.6148 28.1903 11.0105C28.3542 11.4063 28.3971 11.8417 28.3135 12.2618C28.23 12.6819 28.0237 13.0678 27.7208 13.3707L29.9669 15.6168C30.714 14.8697 31.2228 13.9178 31.4289 12.8815C31.635 11.8452 31.5293 10.7711 31.1249 9.79495C30.7206 8.8188 30.0359 7.98446 29.1574 7.39746C28.2788 6.81045 27.246 6.49714 26.1894 6.49714Z" fill="#11271D"/>
<path d="M15.5042 46.1453C14.8242 46.1453 14.2242 46.0173 13.7042 45.7613C13.1842 45.4973 12.7762 45.1173 12.4802 44.6213C12.1922 44.1173 12.0482 43.5013 12.0482 42.7733V37.1453H13.4522V42.7733C13.4522 43.3493 13.6202 43.8373 13.9562 44.2373C14.2922 44.6293 14.8082 44.8253 15.5042 44.8253C16.2082 44.8253 16.7282 44.6293 17.0642 44.2373C17.4002 43.8373 17.5682 43.3493 17.5682 42.7733V37.1453H18.9722V42.7733C18.9722 43.5013 18.8242 44.1173 18.5282 44.6213C18.2402 45.1173 17.8322 45.4973 17.3042 45.7613C16.7842 46.0173 16.1842 46.1453 15.5042 46.1453ZM30.8687 46.0253V38.3693H28.1087V37.1453H35.0207V38.3693H32.2607V46.0253H30.8687ZM44.1643 46.0253V37.1453H45.5683V46.0253H44.1643ZM55.1012 46.0253V37.1453H56.5052V44.8013H60.9932V46.0253H55.1012ZM70.3741 46.0253V37.1453H71.7781V46.0253H70.3741ZM83.6751 46.0253V38.3693H80.9151V37.1453H87.8271V38.3693H85.0671V46.0253H83.6751ZM99.5484 46.0253V42.9053L96.4404 37.1453H97.9764L100.244 41.4773L102.524 37.1453H104.06L100.94 42.9053V46.0253H99.5484Z" fill="#C39C67"/>
</svg>
