<svg width="32" height="28" viewBox="0 0 32 28" fill="none" xmlns="http://www.w3.org/2000/svg">
<path opacity="0.6" d="M26.988 0.249998H31.6923V1.73557C31.6923 9.65865 25.9976 16.0962 19.003 16.0962H17.3317V26.4952C17.3317 27.3618 16.527 27.9808 15.7843 27.9808C14.9796 27.9808 14.3606 27.3618 14.3606 26.4952V20.0577H12.6274C5.63281 20.0577 0 13.6202 0 5.69711V4.21154H4.64243C8.91346 4.21154 12.6274 6.6256 14.9177 10.2776C16.5889 4.45913 21.3552 0.249998 26.988 0.249998ZM12.6274 17.0865H14.2368C13.6178 11.5156 9.53245 7.18269 4.64243 7.18269H3.03305C3.65204 12.8155 7.73738 17.0865 12.6274 17.0865ZM19.003 13.125C23.893 13.125 27.9784 8.85396 28.5974 3.22115H26.988C22.098 3.22115 18.0126 7.55409 17.3936 13.125H19.003Z" fill="#C39C67"/>
</svg>
