<svg width="356" height="270" viewBox="0 0 356 270" fill="none" xmlns="http://www.w3.org/2000/svg">
<rect width="356" height="270" rx="12" fill="#C39C67"/>
<g opacity="0.9" filter="url(#filter0_d_36_2023)">
<path d="M50.224 30V16.68H52.996V30H50.224ZM56.3807 30V22.638H54.8687V20.46H56.3807V19.704C56.3807 19.356 56.4287 18.978 56.5247 18.57C56.6207 18.162 56.7887 17.772 57.0287 17.4C57.2807 17.028 57.6287 16.728 58.0727 16.5C58.5167 16.26 59.0867 16.14 59.7827 16.14C60.1667 16.14 60.4787 16.17 60.7187 16.23C60.9707 16.278 61.0967 16.302 61.0967 16.302V18.228C61.0967 18.228 61.0247 18.216 60.8807 18.192C60.7367 18.168 60.5867 18.156 60.4307 18.156C59.9387 18.156 59.5967 18.3 59.4047 18.588C59.2127 18.876 59.1167 19.248 59.1167 19.704V20.46H61.0427V22.638H59.1167V30H56.3807ZM70.5224 30V19.092H66.4364V16.68H77.3804V19.092H73.2944V30H70.5224ZM79.2982 30V16.32H82.0342V21.828H82.1242C82.2322 21.636 82.3882 21.42 82.5922 21.18C82.8082 20.94 83.0902 20.73 83.4382 20.55C83.7982 20.37 84.2542 20.28 84.8062 20.28C85.5502 20.28 86.1562 20.454 86.6242 20.802C87.0922 21.138 87.4342 21.576 87.6502 22.116C87.8662 22.644 87.9742 23.202 87.9742 23.79V30H85.2382V24.258C85.2382 23.802 85.1122 23.4 84.8602 23.052C84.6202 22.704 84.2302 22.53 83.6902 22.53C83.2822 22.53 82.9582 22.626 82.7182 22.818C82.4782 23.01 82.3042 23.256 82.1962 23.556C82.0882 23.856 82.0342 24.174 82.0342 24.51V30H79.2982ZM91.6894 19.164C91.2094 19.164 90.8194 19.014 90.5194 18.714C90.2194 18.402 90.0694 18.036 90.0694 17.616C90.0694 17.172 90.2194 16.8 90.5194 16.5C90.8194 16.188 91.2094 16.032 91.6894 16.032C92.1454 16.032 92.5294 16.188 92.8414 16.5C93.1534 16.8 93.3094 17.172 93.3094 17.616C93.3094 18.036 93.1534 18.402 92.8414 18.714C92.5294 19.014 92.1454 19.164 91.6894 19.164ZM90.3214 30V20.46H93.0574V30H90.3214ZM99.4096 30.18C98.6176 30.18 97.9636 30.072 97.4476 29.856C96.9316 29.64 96.5176 29.376 96.2056 29.064C95.9056 28.74 95.6776 28.422 95.5216 28.11C95.3776 27.786 95.2816 27.516 95.2336 27.3C95.1976 27.084 95.1796 26.976 95.1796 26.976H97.7176C97.7176 26.976 97.7356 27.036 97.7716 27.156C97.8076 27.276 97.8856 27.414 98.0056 27.57C98.1376 27.726 98.3236 27.864 98.5636 27.984C98.8036 28.104 99.1276 28.164 99.5356 28.164C100.04 28.164 100.382 28.062 100.562 27.858C100.754 27.654 100.85 27.45 100.85 27.246C100.85 26.814 100.496 26.526 99.7876 26.382L98.4916 26.13C97.9396 26.022 97.4176 25.866 96.9256 25.662C96.4456 25.446 96.0556 25.152 95.7556 24.78C95.4676 24.396 95.3236 23.904 95.3236 23.304C95.3236 22.728 95.4736 22.212 95.7736 21.756C96.0736 21.3 96.4996 20.94 97.0516 20.676C97.6156 20.412 98.2876 20.28 99.0676 20.28C99.7996 20.28 100.406 20.382 100.886 20.586C101.378 20.778 101.768 21.024 102.056 21.324C102.344 21.612 102.56 21.906 102.704 22.206C102.848 22.494 102.938 22.74 102.974 22.944C103.022 23.136 103.046 23.232 103.046 23.232H100.598C100.598 23.232 100.562 23.154 100.49 22.998C100.418 22.83 100.268 22.668 100.04 22.512C99.8236 22.344 99.4876 22.26 99.0316 22.26C98.5636 22.26 98.2396 22.356 98.0596 22.548C97.8796 22.728 97.7896 22.92 97.7896 23.124C97.7896 23.364 97.8916 23.544 98.0956 23.664C98.3116 23.784 98.5876 23.88 98.9236 23.952L100.166 24.204C101.078 24.384 101.828 24.702 102.416 25.158C103.004 25.602 103.298 26.25 103.298 27.102C103.298 27.678 103.148 28.2 102.848 28.668C102.548 29.136 102.11 29.508 101.534 29.784C100.958 30.048 100.25 30.18 99.4096 30.18Z" fill="white"/>
</g>
<g opacity="0.9" filter="url(#filter1_d_36_2023)">
<path d="M218.788 102V91.092H214.702V88.68H225.646V91.092H221.56V102H218.788ZM227.564 102V88.32H230.3V93.828H230.39C230.498 93.636 230.654 93.42 230.858 93.18C231.074 92.94 231.356 92.73 231.704 92.55C232.064 92.37 232.52 92.28 233.072 92.28C233.816 92.28 234.422 92.454 234.89 92.802C235.358 93.138 235.7 93.576 235.916 94.116C236.132 94.644 236.24 95.202 236.24 95.79V102H233.504V96.258C233.504 95.802 233.378 95.4 233.126 95.052C232.886 94.704 232.496 94.53 231.956 94.53C231.548 94.53 231.224 94.626 230.984 94.818C230.744 95.01 230.57 95.256 230.462 95.556C230.354 95.856 230.3 96.174 230.3 96.51V102H227.564ZM242.982 102.18C242.142 102.18 241.416 102.042 240.804 101.766C240.192 101.478 239.688 101.1 239.292 100.632C238.896 100.152 238.596 99.618 238.392 99.03C238.2 98.442 238.104 97.836 238.104 97.212C238.104 96.612 238.194 96.024 238.374 95.448C238.566 94.86 238.854 94.326 239.238 93.846C239.634 93.366 240.132 92.988 240.732 92.712C241.344 92.424 242.064 92.28 242.892 92.28C243.768 92.28 244.542 92.472 245.214 92.856C245.898 93.24 246.432 93.81 246.816 94.566C247.2 95.31 247.392 96.216 247.392 97.284V97.95H240.858C240.894 98.526 241.092 99.024 241.452 99.444C241.824 99.864 242.334 100.074 242.982 100.074C243.354 100.074 243.654 100.02 243.882 99.912C244.122 99.792 244.308 99.66 244.44 99.516C244.572 99.36 244.662 99.222 244.71 99.102C244.758 98.982 244.782 98.922 244.782 98.922H247.302C247.302 98.922 247.272 99.036 247.212 99.264C247.164 99.48 247.056 99.75 246.888 100.074C246.72 100.398 246.474 100.722 246.15 101.046C245.838 101.37 245.424 101.64 244.908 101.856C244.392 102.072 243.75 102.18 242.982 102.18ZM240.858 96.294H244.764C244.728 95.634 244.53 95.142 244.17 94.818C243.81 94.494 243.366 94.332 242.838 94.332C242.31 94.332 241.86 94.506 241.488 94.854C241.116 95.19 240.906 95.67 240.858 96.294ZM249.251 102V92.46H251.987V93.828H252.077C252.185 93.636 252.341 93.42 252.545 93.18C252.761 92.94 253.043 92.73 253.391 92.55C253.751 92.37 254.207 92.28 254.759 92.28C255.503 92.28 256.109 92.454 256.577 92.802C257.045 93.138 257.387 93.576 257.603 94.116C257.819 94.644 257.927 95.202 257.927 95.79V102H255.191V96.258C255.191 95.802 255.065 95.4 254.813 95.052C254.573 94.704 254.183 94.53 253.643 94.53C253.235 94.53 252.911 94.626 252.671 94.818C252.431 95.01 252.257 95.256 252.149 95.556C252.041 95.856 251.987 96.174 251.987 96.51V102H249.251ZM267.901 102V91.092H263.815V88.68H274.759V91.092H270.673V102H267.901ZM276.677 102V88.32H279.413V93.828H279.503C279.611 93.636 279.767 93.42 279.971 93.18C280.187 92.94 280.469 92.73 280.817 92.55C281.177 92.37 281.633 92.28 282.185 92.28C282.929 92.28 283.535 92.454 284.003 92.802C284.471 93.138 284.813 93.576 285.029 94.116C285.245 94.644 285.353 95.202 285.353 95.79V102H282.617V96.258C282.617 95.802 282.491 95.4 282.239 95.052C281.999 94.704 281.609 94.53 281.069 94.53C280.661 94.53 280.337 94.626 280.097 94.818C279.857 95.01 279.683 95.256 279.575 95.556C279.467 95.856 279.413 96.174 279.413 96.51V102H276.677ZM291.411 92.28C292.023 92.28 292.527 92.382 292.923 92.586C293.319 92.778 293.619 92.988 293.823 93.216C294.039 93.444 294.171 93.6 294.219 93.684H294.363V92.46H297.099V102H294.363V100.776H294.219C294.171 100.86 294.039 101.016 293.823 101.244C293.619 101.472 293.319 101.688 292.923 101.892C292.527 102.084 292.023 102.18 291.411 102.18C290.703 102.18 290.085 102.042 289.557 101.766C289.041 101.478 288.609 101.1 288.261 100.632C287.913 100.152 287.649 99.618 287.469 99.03C287.301 98.442 287.217 97.842 287.217 97.23C287.217 96.618 287.301 96.018 287.469 95.43C287.649 94.842 287.913 94.314 288.261 93.846C288.609 93.366 289.041 92.988 289.557 92.712C290.085 92.424 290.703 92.28 291.411 92.28ZM292.203 94.494C291.711 94.494 291.297 94.632 290.961 94.908C290.637 95.172 290.391 95.514 290.223 95.934C290.067 96.354 289.989 96.786 289.989 97.23C289.989 97.674 290.067 98.106 290.223 98.526C290.391 98.946 290.637 99.294 290.961 99.57C291.297 99.834 291.711 99.966 292.203 99.966C292.695 99.966 293.103 99.834 293.427 99.57C293.763 99.294 294.009 98.946 294.165 98.526C294.333 98.106 294.417 97.674 294.417 97.23C294.417 96.786 294.333 96.354 294.165 95.934C294.009 95.514 293.763 95.172 293.427 94.908C293.103 94.632 292.695 94.494 292.203 94.494ZM303.496 102.18C302.752 102.18 302.158 102.072 301.714 101.856C301.27 101.628 300.934 101.346 300.706 101.01C300.478 100.662 300.328 100.296 300.256 99.912C300.184 99.528 300.148 99.174 300.148 98.85V94.638H298.528V92.46H300.148V90.102H302.884V92.46H304.918V94.638H302.884V98.778C302.884 99.174 302.986 99.48 303.19 99.696C303.406 99.912 303.76 100.02 304.252 100.02C304.468 100.02 304.666 100.002 304.846 99.966C305.026 99.93 305.116 99.912 305.116 99.912V102.018C305.116 102.018 304.954 102.042 304.63 102.09C304.306 102.15 303.928 102.18 303.496 102.18Z" fill="white"/>
</g>
<g opacity="0.8" filter="url(#filter2_d_36_2023)">
<mask id="mask0_36_2023" style="mask-type:alpha" maskUnits="userSpaceOnUse" x="178" y="120" width="164" height="64">
<rect x="178" y="120" width="163.75" height="64" rx="8" fill="white"/>
<rect x="178.5" y="120.5" width="162.75" height="63" rx="7.5" stroke="#E5E5E5" stroke-opacity="0.6"/>
</mask>
<g mask="url(#mask0_36_2023)">
<rect x="178.5" y="120.5" width="162.75" height="63" rx="7.5" fill="white" stroke="#C39C67"/>
<path d="M189.8 154V146.6H191.09L193.27 151L195.44 146.6H196.73V154H195.77V148.04L193.73 152.1H192.8L190.76 148.02V154H189.8ZM200.525 148.6C200.859 148.6 201.139 148.653 201.365 148.76C201.592 148.867 201.775 148.993 201.915 149.14C202.055 149.28 202.162 149.413 202.235 149.54H202.295V148.7H203.245V154H202.295V153.16H202.235C202.162 153.287 202.055 153.423 201.915 153.57C201.775 153.717 201.592 153.843 201.365 153.95C201.139 154.05 200.859 154.1 200.525 154.1C200.125 154.1 199.775 154.023 199.475 153.87C199.175 153.71 198.925 153.5 198.725 153.24C198.525 152.973 198.375 152.677 198.275 152.35C198.175 152.023 198.125 151.69 198.125 151.35C198.125 151.01 198.175 150.677 198.275 150.35C198.375 150.023 198.525 149.73 198.725 149.47C198.925 149.203 199.175 148.993 199.475 148.84C199.775 148.68 200.125 148.6 200.525 148.6ZM200.685 149.41C200.332 149.41 200.035 149.507 199.795 149.7C199.555 149.887 199.375 150.127 199.255 150.42C199.142 150.713 199.085 151.023 199.085 151.35C199.085 151.67 199.142 151.98 199.255 152.28C199.375 152.573 199.555 152.817 199.795 153.01C200.035 153.197 200.332 153.29 200.685 153.29C201.039 153.29 201.332 153.197 201.565 153.01C201.805 152.817 201.982 152.573 202.095 152.28C202.215 151.98 202.275 151.67 202.275 151.35C202.275 151.023 202.215 150.713 202.095 150.42C201.982 150.127 201.805 149.887 201.565 149.7C201.332 149.507 201.039 149.41 200.685 149.41ZM205.261 147.69C205.081 147.69 204.931 147.63 204.811 147.51C204.698 147.39 204.641 147.247 204.641 147.08C204.641 146.907 204.698 146.76 204.811 146.64C204.931 146.52 205.081 146.46 205.261 146.46C205.435 146.46 205.581 146.52 205.701 146.64C205.821 146.76 205.881 146.907 205.881 147.08C205.881 147.247 205.821 147.39 205.701 147.51C205.581 147.63 205.435 147.69 205.261 147.69ZM204.791 154V148.7H205.741V154H204.791ZM207.278 154V148.7H208.228V149.47H208.288C208.335 149.39 208.411 149.28 208.518 149.14C208.631 149 208.791 148.877 208.998 148.77C209.205 148.657 209.465 148.6 209.778 148.6C210.165 148.6 210.495 148.69 210.768 148.87C211.041 149.043 211.248 149.28 211.388 149.58C211.535 149.88 211.608 150.217 211.608 150.59V154H210.658V150.65C210.658 150.297 210.558 150.003 210.358 149.77C210.165 149.537 209.881 149.42 209.508 149.42C209.208 149.42 208.965 149.497 208.778 149.65C208.591 149.797 208.451 149.993 208.358 150.24C208.271 150.48 208.228 150.737 208.228 151.01V154H207.278ZM215.415 154V146.6H216.705L218.885 151L221.055 146.6H222.345V154H221.385V148.04L219.345 152.1H218.415L216.375 148.02V154H215.415ZM226.351 154.1C225.784 154.1 225.307 153.97 224.921 153.71C224.534 153.443 224.241 153.1 224.041 152.68C223.841 152.26 223.741 151.817 223.741 151.35C223.741 150.877 223.841 150.433 224.041 150.02C224.241 149.6 224.534 149.26 224.921 149C225.307 148.733 225.784 148.6 226.351 148.6C226.917 148.6 227.394 148.733 227.781 149C228.167 149.26 228.461 149.6 228.661 150.02C228.861 150.433 228.961 150.877 228.961 151.35C228.961 151.817 228.861 152.26 228.661 152.68C228.461 153.1 228.167 153.443 227.781 153.71C227.394 153.97 226.917 154.1 226.351 154.1ZM226.351 153.27C226.711 153.27 227.011 153.18 227.251 153C227.497 152.813 227.681 152.573 227.801 152.28C227.927 151.987 227.991 151.677 227.991 151.35C227.991 151.017 227.927 150.707 227.801 150.42C227.681 150.127 227.497 149.89 227.251 149.71C227.011 149.523 226.711 149.43 226.351 149.43C225.997 149.43 225.697 149.523 225.451 149.71C225.204 149.89 225.017 150.127 224.891 150.42C224.771 150.707 224.711 151.017 224.711 151.35C224.711 151.677 224.771 151.987 224.891 152.28C225.017 152.573 225.204 152.813 225.451 153C225.697 153.18 225.997 153.27 226.351 153.27ZM232.409 154.1C231.862 154.1 231.449 153.96 231.169 153.68C230.896 153.4 230.759 153.007 230.759 152.5V149.48H229.809V148.7H230.759V147.37H231.709V148.7H232.999V149.48H231.709V152.5C231.709 152.767 231.782 152.963 231.929 153.09C232.076 153.21 232.289 153.27 232.569 153.27C232.716 153.27 232.856 153.26 232.989 153.24C233.122 153.22 233.189 153.21 233.189 153.21V154.02C233.189 154.02 233.112 154.033 232.959 154.06C232.806 154.087 232.622 154.1 232.409 154.1ZM236.751 154.1C236.184 154.1 235.708 153.97 235.321 153.71C234.934 153.443 234.641 153.1 234.441 152.68C234.241 152.26 234.141 151.817 234.141 151.35C234.141 150.877 234.241 150.433 234.441 150.02C234.641 149.6 234.934 149.26 235.321 149C235.708 148.733 236.184 148.6 236.751 148.6C237.318 148.6 237.794 148.733 238.181 149C238.568 149.26 238.861 149.6 239.061 150.02C239.261 150.433 239.361 150.877 239.361 151.35C239.361 151.817 239.261 152.26 239.061 152.68C238.861 153.1 238.568 153.443 238.181 153.71C237.794 153.97 237.318 154.1 236.751 154.1ZM236.751 153.27C237.111 153.27 237.411 153.18 237.651 153C237.898 152.813 238.081 152.573 238.201 152.28C238.328 151.987 238.391 151.677 238.391 151.35C238.391 151.017 238.328 150.707 238.201 150.42C238.081 150.127 237.898 149.89 237.651 149.71C237.411 149.523 237.111 149.43 236.751 149.43C236.398 149.43 236.098 149.523 235.851 149.71C235.604 149.89 235.418 150.127 235.291 150.42C235.171 150.707 235.111 151.017 235.111 151.35C235.111 151.677 235.171 151.987 235.291 152.28C235.418 152.573 235.604 152.813 235.851 153C236.098 153.18 236.398 153.27 236.751 153.27ZM240.657 154V148.7H241.607V149.36H241.647C241.76 149.16 241.927 148.983 242.147 148.83C242.367 148.677 242.677 148.6 243.077 148.6C243.19 148.6 243.294 148.607 243.387 148.62C243.48 148.627 243.527 148.63 243.527 148.63V149.54C243.527 149.54 243.474 149.537 243.367 149.53C243.267 149.517 243.16 149.51 243.047 149.51C242.587 149.51 242.23 149.643 241.977 149.91C241.73 150.17 241.607 150.597 241.607 151.19V154H240.657Z" fill="#11271D"/>
<path d="M194.782 175.14C193.951 175.14 193.219 174.991 192.584 174.692C191.949 174.384 191.417 173.978 190.988 173.474C190.559 172.961 190.237 172.387 190.022 171.752C189.807 171.117 189.7 170.469 189.7 169.806C189.7 169.143 189.807 168.499 190.022 167.874C190.237 167.239 190.559 166.67 190.988 166.166C191.417 165.662 191.949 165.261 192.584 164.962C193.219 164.654 193.951 164.5 194.782 164.5C195.622 164.5 196.359 164.654 196.994 164.962C197.629 165.261 198.161 165.662 198.59 166.166C199.019 166.67 199.341 167.239 199.556 167.874C199.771 168.499 199.878 169.143 199.878 169.806C199.878 170.469 199.771 171.117 199.556 171.752C199.341 172.387 199.019 172.961 198.59 173.474C198.161 173.978 197.629 174.384 196.994 174.692C196.359 174.991 195.622 175.14 194.782 175.14ZM194.782 173.642C195.529 173.642 196.154 173.46 196.658 173.096C197.162 172.723 197.545 172.247 197.806 171.668C198.067 171.08 198.198 170.459 198.198 169.806C198.198 169.321 198.123 168.854 197.974 168.406C197.825 167.949 197.605 167.538 197.316 167.174C197.036 166.81 196.681 166.525 196.252 166.32C195.832 166.105 195.342 165.998 194.782 165.998C194.231 165.998 193.741 166.105 193.312 166.32C192.892 166.525 192.537 166.81 192.248 167.174C191.968 167.538 191.753 167.949 191.604 168.406C191.455 168.854 191.38 169.321 191.38 169.806C191.38 170.459 191.511 171.08 191.772 171.668C192.033 172.247 192.416 172.723 192.92 173.096C193.424 173.46 194.045 173.642 194.782 173.642ZM201.504 175V167.58H203.1V168.658H203.184C203.249 168.527 203.361 168.369 203.52 168.182C203.679 167.986 203.898 167.813 204.178 167.664C204.467 167.515 204.831 167.44 205.27 167.44C205.821 167.44 206.283 167.566 206.656 167.818C207.029 168.07 207.309 168.406 207.496 168.826C207.692 169.246 207.79 169.708 207.79 170.212V175H206.194V170.38C206.194 169.932 206.068 169.554 205.816 169.246C205.573 168.938 205.209 168.784 204.724 168.784C204.341 168.784 204.029 168.882 203.786 169.078C203.553 169.265 203.38 169.512 203.268 169.82C203.156 170.119 203.1 170.441 203.1 170.786V175H201.504Z" fill="#59292B"/>
<path d="M186.684 137V128.12H190.332C190.9 128.12 191.384 128.224 191.784 128.432C192.192 128.632 192.5 128.9 192.708 129.236C192.924 129.572 193.032 129.94 193.032 130.34C193.032 130.764 192.952 131.112 192.792 131.384C192.64 131.648 192.464 131.852 192.264 131.996C192.064 132.14 191.892 132.24 191.748 132.296V132.368C191.948 132.424 192.176 132.532 192.432 132.692C192.688 132.844 192.908 133.068 193.092 133.364C193.284 133.652 193.38 134.028 193.38 134.492C193.38 134.908 193.28 135.308 193.08 135.692C192.88 136.076 192.56 136.392 192.12 136.64C191.688 136.88 191.12 137 190.416 137H186.684ZM190.2 129.32H188.088V131.888H190.2C190.712 131.888 191.084 131.756 191.316 131.492C191.548 131.228 191.664 130.932 191.664 130.604C191.664 130.276 191.548 129.98 191.316 129.716C191.084 129.452 190.712 129.32 190.2 129.32ZM190.308 132.992H188.088V135.8H190.308C190.7 135.8 191.02 135.736 191.268 135.608C191.516 135.472 191.696 135.296 191.808 135.08C191.92 134.864 191.976 134.636 191.976 134.396C191.976 134.156 191.92 133.932 191.808 133.724C191.696 133.508 191.516 133.332 191.268 133.196C191.02 133.06 190.7 132.992 190.308 132.992ZM197.539 130.52C197.939 130.52 198.271 130.584 198.535 130.712C198.807 130.84 199.023 130.988 199.183 131.156C199.343 131.324 199.459 131.468 199.531 131.588H199.603V130.64H200.971V137H199.603V136.052H199.531C199.459 136.172 199.343 136.316 199.183 136.484C199.023 136.652 198.807 136.8 198.535 136.928C198.271 137.056 197.939 137.12 197.539 137.12C197.059 137.12 196.639 137.028 196.279 136.844C195.927 136.652 195.631 136.4 195.391 136.088C195.151 135.768 194.971 135.412 194.851 135.02C194.739 134.628 194.683 134.228 194.683 133.82C194.683 133.412 194.739 133.012 194.851 132.62C194.971 132.228 195.151 131.876 195.391 131.564C195.631 131.244 195.927 130.992 196.279 130.808C196.639 130.616 197.059 130.52 197.539 130.52ZM197.839 131.66C197.447 131.66 197.119 131.768 196.855 131.984C196.591 132.192 196.391 132.46 196.255 132.788C196.127 133.116 196.063 133.46 196.063 133.82C196.063 134.18 196.127 134.524 196.255 134.852C196.391 135.18 196.591 135.452 196.855 135.668C197.119 135.876 197.447 135.98 197.839 135.98C198.231 135.98 198.555 135.876 198.811 135.668C199.075 135.452 199.271 135.18 199.399 134.852C199.535 134.524 199.603 134.18 199.603 133.82C199.603 133.46 199.535 133.116 199.399 132.788C199.271 132.46 199.075 132.192 198.811 131.984C198.555 131.768 198.231 131.66 197.839 131.66ZM205.009 137.12C204.505 137.12 204.089 137.052 203.761 136.916C203.441 136.772 203.185 136.6 202.993 136.4C202.801 136.192 202.657 135.984 202.561 135.776C202.473 135.568 202.417 135.396 202.393 135.26C202.369 135.116 202.357 135.044 202.357 135.044H203.689C203.689 135.044 203.701 135.096 203.725 135.2C203.757 135.296 203.817 135.408 203.905 135.536C203.993 135.664 204.129 135.78 204.313 135.884C204.497 135.98 204.741 136.028 205.045 136.028C205.413 136.028 205.685 135.944 205.861 135.776C206.045 135.608 206.137 135.416 206.137 135.2C206.137 134.992 206.061 134.828 205.909 134.708C205.757 134.588 205.541 134.496 205.261 134.432L204.397 134.24C204.061 134.16 203.745 134.052 203.449 133.916C203.161 133.772 202.925 133.584 202.741 133.352C202.565 133.112 202.477 132.804 202.477 132.428C202.477 131.876 202.685 131.42 203.101 131.06C203.517 130.7 204.077 130.52 204.781 130.52C205.237 130.52 205.613 130.584 205.909 130.712C206.213 130.84 206.453 131 206.629 131.192C206.805 131.376 206.937 131.564 207.025 131.756C207.113 131.94 207.169 132.096 207.193 132.224C207.225 132.344 207.241 132.404 207.241 132.404H205.957C205.957 132.404 205.945 132.364 205.921 132.284C205.897 132.204 205.845 132.112 205.765 132.008C205.685 131.896 205.565 131.8 205.405 131.72C205.253 131.632 205.045 131.588 204.781 131.588C204.421 131.588 204.161 131.668 204.001 131.828C203.841 131.988 203.761 132.16 203.761 132.344C203.761 132.536 203.837 132.688 203.989 132.8C204.149 132.904 204.357 132.984 204.613 133.04L205.465 133.232C206.033 133.36 206.501 133.572 206.869 133.868C207.237 134.156 207.421 134.576 207.421 135.128C207.421 135.496 207.325 135.832 207.133 136.136C206.949 136.432 206.677 136.672 206.317 136.856C205.957 137.032 205.521 137.12 205.009 137.12ZM211.666 137.12C211.13 137.12 210.666 137.028 210.274 136.844C209.89 136.652 209.57 136.4 209.314 136.088C209.066 135.768 208.878 135.412 208.75 135.02C208.63 134.628 208.57 134.228 208.57 133.82C208.57 133.42 208.63 133.024 208.75 132.632C208.87 132.24 209.054 131.884 209.302 131.564C209.55 131.244 209.866 130.992 210.25 130.808C210.634 130.616 211.086 130.52 211.606 130.52C212.166 130.52 212.658 130.648 213.082 130.904C213.514 131.152 213.85 131.524 214.09 132.02C214.338 132.508 214.462 133.116 214.462 133.844V134.216H209.95C209.982 134.704 210.146 135.124 210.442 135.476C210.738 135.828 211.146 136.004 211.666 136.004C211.962 136.004 212.206 135.956 212.398 135.86C212.59 135.756 212.738 135.64 212.842 135.512C212.946 135.384 213.018 135.272 213.058 135.176C213.106 135.08 213.13 135.032 213.13 135.032H214.402C214.402 135.032 214.382 135.104 214.342 135.248C214.302 135.384 214.226 135.556 214.114 135.764C214.01 135.972 213.858 136.18 213.658 136.388C213.458 136.596 213.194 136.772 212.866 136.916C212.538 137.052 212.138 137.12 211.666 137.12ZM209.962 133.256H213.142C213.11 132.696 212.942 132.284 212.638 132.02C212.342 131.756 211.994 131.624 211.594 131.624C211.146 131.624 210.774 131.772 210.478 132.068C210.182 132.356 210.01 132.752 209.962 133.256ZM218.829 137V128.12H220.689L223.101 133.172L225.549 128.12H227.385V137H226.005V130.208L223.761 134.792H222.453L220.209 130.184V137H218.829ZM232.164 137.12C231.468 137.12 230.88 136.964 230.4 136.652C229.928 136.34 229.568 135.932 229.32 135.428C229.08 134.924 228.96 134.388 228.96 133.82C228.96 133.252 229.08 132.716 229.32 132.212C229.568 131.708 229.928 131.3 230.4 130.988C230.88 130.676 231.468 130.52 232.164 130.52C232.852 130.52 233.432 130.676 233.904 130.988C234.384 131.3 234.744 131.708 234.984 132.212C235.232 132.716 235.356 133.252 235.356 133.82C235.356 134.388 235.232 134.924 234.984 135.428C234.744 135.932 234.384 136.34 233.904 136.652C233.432 136.964 232.852 137.12 232.164 137.12ZM232.164 135.956C232.556 135.956 232.884 135.856 233.148 135.656C233.42 135.456 233.624 135.192 233.76 134.864C233.904 134.536 233.976 134.188 233.976 133.82C233.976 133.444 233.904 133.096 233.76 132.776C233.624 132.448 233.42 132.184 233.148 131.984C232.884 131.784 232.556 131.684 232.164 131.684C231.772 131.684 231.44 131.784 231.168 131.984C230.896 132.184 230.692 132.448 230.556 132.776C230.42 133.096 230.352 133.444 230.352 133.82C230.352 134.188 230.42 134.536 230.556 134.864C230.692 135.192 230.896 135.456 231.168 135.656C231.44 135.856 231.772 135.956 232.164 135.956ZM239.527 137.12C239.047 137.12 238.627 137.028 238.267 136.844C237.915 136.652 237.619 136.4 237.379 136.088C237.139 135.768 236.959 135.412 236.839 135.02C236.727 134.628 236.671 134.228 236.671 133.82C236.671 133.412 236.727 133.012 236.839 132.62C236.959 132.228 237.139 131.876 237.379 131.564C237.619 131.244 237.915 130.992 238.267 130.808C238.627 130.616 239.047 130.52 239.527 130.52C239.927 130.52 240.259 130.584 240.523 130.712C240.795 130.84 241.011 130.988 241.171 131.156C241.331 131.324 241.447 131.468 241.519 131.588H241.591V127.88H242.959V137H241.591V136.052H241.519C241.447 136.172 241.331 136.316 241.171 136.484C241.011 136.652 240.795 136.8 240.523 136.928C240.259 137.056 239.927 137.12 239.527 137.12ZM239.827 135.98C240.219 135.98 240.543 135.876 240.799 135.668C241.063 135.452 241.259 135.18 241.387 134.852C241.523 134.524 241.591 134.18 241.591 133.82C241.591 133.46 241.523 133.116 241.387 132.788C241.259 132.46 241.063 132.192 240.799 131.984C240.543 131.768 240.219 131.66 239.827 131.66C239.435 131.66 239.107 131.768 238.843 131.984C238.579 132.192 238.379 132.46 238.243 132.788C238.115 133.116 238.051 133.46 238.051 133.82C238.051 134.18 238.115 134.524 238.243 134.852C238.379 135.18 238.579 135.452 238.843 135.668C239.107 135.876 239.435 135.98 239.827 135.98ZM246.706 137.12C246.066 137.12 245.566 136.92 245.206 136.52C244.846 136.12 244.666 135.588 244.666 134.924V130.64H246.034V134.756C246.034 135.14 246.134 135.44 246.334 135.656C246.542 135.864 246.822 135.968 247.174 135.968C247.518 135.968 247.794 135.88 248.002 135.704C248.21 135.528 248.358 135.304 248.446 135.032C248.542 134.752 248.59 134.464 248.59 134.168V130.64H249.958V137H248.59V136.088H248.518C248.454 136.208 248.35 136.352 248.206 136.52C248.07 136.68 247.878 136.82 247.63 136.94C247.39 137.06 247.082 137.12 246.706 137.12ZM251.665 137L251.677 127.88H253.033V137H251.665ZM257.697 137.12C257.161 137.12 256.697 137.028 256.305 136.844C255.921 136.652 255.601 136.4 255.345 136.088C255.097 135.768 254.909 135.412 254.781 135.02C254.661 134.628 254.601 134.228 254.601 133.82C254.601 133.42 254.661 133.024 254.781 132.632C254.901 132.24 255.085 131.884 255.333 131.564C255.581 131.244 255.897 130.992 256.281 130.808C256.665 130.616 257.117 130.52 257.637 130.52C258.197 130.52 258.689 130.648 259.113 130.904C259.545 131.152 259.881 131.524 260.121 132.02C260.369 132.508 260.493 133.116 260.493 133.844V134.216H255.981C256.013 134.704 256.177 135.124 256.473 135.476C256.769 135.828 257.177 136.004 257.697 136.004C257.993 136.004 258.237 135.956 258.429 135.86C258.621 135.756 258.769 135.64 258.873 135.512C258.977 135.384 259.049 135.272 259.089 135.176C259.137 135.08 259.161 135.032 259.161 135.032H260.433C260.433 135.032 260.413 135.104 260.373 135.248C260.333 135.384 260.257 135.556 260.145 135.764C260.041 135.972 259.889 136.18 259.689 136.388C259.489 136.596 259.225 136.772 258.897 136.916C258.569 137.052 258.169 137.12 257.697 137.12ZM255.993 133.256H259.173C259.141 132.696 258.973 132.284 258.669 132.02C258.373 131.756 258.025 131.624 257.625 131.624C257.177 131.624 256.805 131.772 256.509 132.068C256.213 132.356 256.041 132.752 255.993 133.256ZM267.5 128.12V137H266.12V130.292L264.44 130.304V129.476L264.728 129.392C265.176 129.256 265.536 129.104 265.808 128.936C266.088 128.768 266.352 128.536 266.6 128.24L266.708 128.12H267.5Z" fill="#11271D"/>
<g filter="url(#filter3_i_36_2023)">
<rect x="302" y="131" width="22" height="42" rx="3" fill="#C39C67"/>
</g>
<rect x="302.5" y="131.5" width="21" height="41" rx="2.5" stroke="#2A664B"/>
<path opacity="0.3" d="M310.478 144.06C310.126 144.06 309.816 143.996 309.548 143.868C309.28 143.736 309.056 143.562 308.876 143.346C308.696 143.126 308.56 142.88 308.468 142.608C308.376 142.336 308.33 142.058 308.33 141.774C308.33 141.49 308.376 141.214 308.468 140.946C308.56 140.674 308.696 140.43 308.876 140.214C309.056 139.998 309.28 139.826 309.548 139.698C309.816 139.566 310.126 139.5 310.478 139.5C310.83 139.5 311.14 139.566 311.408 139.698C311.676 139.826 311.9 139.998 312.08 140.214C312.26 140.43 312.396 140.674 312.488 140.946C312.58 141.214 312.626 141.49 312.626 141.774C312.626 142.058 312.58 142.336 312.488 142.608C312.396 142.88 312.26 143.126 312.08 143.346C311.9 143.562 311.676 143.736 311.408 143.868C311.14 143.996 310.83 144.06 310.478 144.06ZM310.478 143.514C310.73 143.514 310.952 143.466 311.144 143.37C311.336 143.274 311.496 143.144 311.624 142.98C311.756 142.816 311.856 142.63 311.924 142.422C311.992 142.214 312.026 141.998 312.026 141.774C312.026 141.554 311.992 141.342 311.924 141.138C311.856 140.93 311.756 140.744 311.624 140.58C311.496 140.416 311.336 140.286 311.144 140.19C310.952 140.094 310.73 140.046 310.478 140.046C310.226 140.046 310.004 140.094 309.812 140.19C309.62 140.286 309.458 140.416 309.326 140.58C309.198 140.744 309.1 140.93 309.032 141.138C308.964 141.342 308.93 141.554 308.93 141.774C308.93 141.998 308.964 142.214 309.032 142.422C309.1 142.63 309.198 142.816 309.326 142.98C309.458 143.144 309.62 143.274 309.812 143.37C310.004 143.466 310.226 143.514 310.478 143.514ZM313.749 144V141.288H313.227V140.82H313.749V140.43C313.749 140.262 313.779 140.098 313.839 139.938C313.899 139.774 313.999 139.64 314.139 139.536C314.279 139.432 314.469 139.38 314.709 139.38C314.825 139.38 314.917 139.39 314.985 139.41C315.057 139.426 315.093 139.434 315.093 139.434V139.884C315.093 139.884 315.061 139.878 314.997 139.866C314.937 139.85 314.867 139.842 314.787 139.842C314.603 139.842 314.479 139.898 314.415 140.01C314.351 140.122 314.319 140.262 314.319 140.43V140.82H315.945V140.43C315.945 140.262 315.975 140.098 316.035 139.938C316.095 139.774 316.195 139.64 316.335 139.536C316.475 139.432 316.665 139.38 316.905 139.38C317.021 139.38 317.113 139.39 317.181 139.41C317.253 139.426 317.289 139.434 317.289 139.434V139.884C317.289 139.884 317.257 139.878 317.193 139.866C317.133 139.85 317.063 139.842 316.983 139.842C316.799 139.842 316.675 139.898 316.611 140.01C316.547 140.122 316.515 140.262 316.515 140.43V140.82H317.253V141.288H316.515V144H315.945V141.288H314.319V144H313.749Z" fill="#11271D"/>
<g filter="url(#filter4_di_36_2023)">
<rect x="303" y="150" width="20" height="22" rx="2" fill="white"/>
</g>
<circle cx="313" cy="161" r="3.5" stroke="#C39C67"/>
</g>
</g>
<rect opacity="0.4" x="7" y="6" width="35" height="250" rx="6" fill="white"/>
<g filter="url(#filter5_d_36_2023)">
<g clip-path="url(#clip0_36_2023)">
<rect x="186" y="213" width="24" height="24" rx="12" fill="white"/>
<g clip-path="url(#clip1_36_2023)">
<path d="M205 226H199V232H197V226H191V224H197V218H199V224H205V226Z" fill="#C39C67"/>
</g>
</g>
<rect x="186.5" y="213.5" width="23" height="23" rx="11.5" stroke="black" stroke-opacity="0.06"/>
</g>
<defs>
<filter id="filter0_d_36_2023" x="46.2241" y="16.032" width="61.0735" height="22.1479" filterUnits="userSpaceOnUse" color-interpolation-filters="sRGB">
<feFlood flood-opacity="0" result="BackgroundImageFix"/>
<feColorMatrix in="SourceAlpha" type="matrix" values="0 0 0 0 0 0 0 0 0 0 0 0 0 0 0 0 0 0 127 0" result="hardAlpha"/>
<feOffset dy="4"/>
<feGaussianBlur stdDeviation="2"/>
<feComposite in2="hardAlpha" operator="out"/>
<feColorMatrix type="matrix" values="0 0 0 0 0 0 0 0 0 0 0 0 0 0 0 0 0 0 0.25 0"/>
<feBlend mode="normal" in2="BackgroundImageFix" result="effect1_dropShadow_36_2023"/>
<feBlend mode="normal" in="SourceGraphic" in2="effect1_dropShadow_36_2023" result="shape"/>
</filter>
<filter id="filter1_d_36_2023" x="210.702" y="88.3201" width="98.4141" height="21.8599" filterUnits="userSpaceOnUse" color-interpolation-filters="sRGB">
<feFlood flood-opacity="0" result="BackgroundImageFix"/>
<feColorMatrix in="SourceAlpha" type="matrix" values="0 0 0 0 0 0 0 0 0 0 0 0 0 0 0 0 0 0 127 0" result="hardAlpha"/>
<feOffset dy="4"/>
<feGaussianBlur stdDeviation="2"/>
<feComposite in2="hardAlpha" operator="out"/>
<feColorMatrix type="matrix" values="0 0 0 0 0 0 0 0 0 0 0 0 0 0 0 0 0 0 0.25 0"/>
<feBlend mode="normal" in2="BackgroundImageFix" result="effect1_dropShadow_36_2023"/>
<feBlend mode="normal" in="SourceGraphic" in2="effect1_dropShadow_36_2023" result="shape"/>
</filter>
<filter id="filter2_d_36_2023" x="176" y="119" width="167.75" height="68" filterUnits="userSpaceOnUse" color-interpolation-filters="sRGB">
<feFlood flood-opacity="0" result="BackgroundImageFix"/>
<feColorMatrix in="SourceAlpha" type="matrix" values="0 0 0 0 0 0 0 0 0 0 0 0 0 0 0 0 0 0 127 0" result="hardAlpha"/>
<feOffset dy="1"/>
<feGaussianBlur stdDeviation="1"/>
<feComposite in2="hardAlpha" operator="out"/>
<feColorMatrix type="matrix" values="0 0 0 0 0 0 0 0 0 0 0 0 0 0 0 0 0 0 0.03 0"/>
<feBlend mode="normal" in2="BackgroundImageFix" result="effect1_dropShadow_36_2023"/>
<feBlend mode="normal" in="SourceGraphic" in2="effect1_dropShadow_36_2023" result="shape"/>
</filter>
<filter id="filter3_i_36_2023" x="302" y="131" width="22" height="42" filterUnits="userSpaceOnUse" color-interpolation-filters="sRGB">
<feFlood flood-opacity="0" result="BackgroundImageFix"/>
<feBlend mode="normal" in="SourceGraphic" in2="BackgroundImageFix" result="shape"/>
<feColorMatrix in="SourceAlpha" type="matrix" values="0 0 0 0 0 0 0 0 0 0 0 0 0 0 0 0 0 0 127 0" result="hardAlpha"/>
<feOffset/>
<feGaussianBlur stdDeviation="2.65"/>
<feComposite in2="hardAlpha" operator="arithmetic" k2="-1" k3="1"/>
<feColorMatrix type="matrix" values="0 0 0 0 0 0 0 0 0 0 0 0 0 0 0 0 0 0 0.25 0"/>
<feBlend mode="normal" in2="shape" result="effect1_innerShadow_36_2023"/>
</filter>
<filter id="filter4_di_36_2023" x="301.4" y="149" width="23.2" height="25.6" filterUnits="userSpaceOnUse" color-interpolation-filters="sRGB">
<feFlood flood-opacity="0" result="BackgroundImageFix"/>
<feColorMatrix in="SourceAlpha" type="matrix" values="0 0 0 0 0 0 0 0 0 0 0 0 0 0 0 0 0 0 127 0" result="hardAlpha"/>
<feOffset dy="1"/>
<feGaussianBlur stdDeviation="0.8"/>
<feComposite in2="hardAlpha" operator="out"/>
<feColorMatrix type="matrix" values="0 0 0 0 0 0 0 0 0 0 0 0 0 0 0 0 0 0 0.25 0"/>
<feBlend mode="normal" in2="BackgroundImageFix" result="effect1_dropShadow_36_2023"/>
<feBlend mode="normal" in="SourceGraphic" in2="effect1_dropShadow_36_2023" result="shape"/>
<feColorMatrix in="SourceAlpha" type="matrix" values="0 0 0 0 0 0 0 0 0 0 0 0 0 0 0 0 0 0 127 0" result="hardAlpha"/>
<feOffset dy="-1"/>
<feGaussianBlur stdDeviation="0.9"/>
<feComposite in2="hardAlpha" operator="arithmetic" k2="-1" k3="1"/>
<feColorMatrix type="matrix" values="0 0 0 0 0 0 0 0 0 0 0 0 0 0 0 0 0 0 0.15 0"/>
<feBlend mode="normal" in2="shape" result="effect2_innerShadow_36_2023"/>
</filter>
<filter id="filter5_d_36_2023" x="172" y="203" width="52" height="52" filterUnits="userSpaceOnUse" color-interpolation-filters="sRGB">
<feFlood flood-opacity="0" result="BackgroundImageFix"/>
<feColorMatrix in="SourceAlpha" type="matrix" values="0 0 0 0 0 0 0 0 0 0 0 0 0 0 0 0 0 0 127 0" result="hardAlpha"/>
<feOffset dy="4"/>
<feGaussianBlur stdDeviation="7"/>
<feComposite in2="hardAlpha" operator="out"/>
<feColorMatrix type="matrix" values="0 0 0 0 0 0 0 0 0 0 0 0 0 0 0 0 0 0 0.15 0"/>
<feBlend mode="normal" in2="BackgroundImageFix" result="effect1_dropShadow_36_2023"/>
<feBlend mode="normal" in="SourceGraphic" in2="effect1_dropShadow_36_2023" result="shape"/>
</filter>
<clipPath id="clip0_36_2023">
<rect x="186" y="213" width="24" height="24" rx="12" fill="white"/>
</clipPath>
<clipPath id="clip1_36_2023">
<rect width="24" height="24" fill="white" transform="translate(186 213)"/>
</clipPath>
</defs>
</svg>
