<svg width="27" height="27" viewBox="0 0 27 27" fill="none" xmlns="http://www.w3.org/2000/svg">
<path d="M13.5 16.875C14.4375 16.875 15.2344 16.5469 15.8906 15.8906C16.5469 15.2344 16.875 14.4375 16.875 13.5C16.875 12.5625 16.5469 11.7656 15.8906 11.1094C15.2344 10.4531 14.4375 10.125 13.5 10.125C12.5625 10.125 11.7656 10.4531 11.1094 11.1094C10.4531 11.7656 10.125 12.5625 10.125 13.5C10.125 14.4375 10.4531 15.2344 11.1094 15.8906C11.7656 16.5469 12.5625 16.875 13.5 16.875ZM10.125 25.875C9.50625 25.875 8.97675 25.6549 8.5365 25.2146C8.09625 24.7744 7.87575 24.2445 7.875 23.625V3.375C7.875 2.75625 8.0955 2.22675 8.5365 1.7865C8.9775 1.34625 9.507 1.12575 10.125 1.125H16.875C17.4937 1.125 18.0236 1.3455 18.4646 1.7865C18.9056 2.2275 19.1257 2.757 19.125 3.375V23.625C19.125 24.2437 18.9049 24.7736 18.4646 25.2146C18.0244 25.6556 17.4945 25.8757 16.875 25.875H10.125ZM13.5 15.1875C13.0312 15.1875 12.633 15.0236 12.3052 14.6959C11.9775 14.3681 11.8133 13.9695 11.8125 13.5C11.8117 13.0305 11.976 12.6322 12.3052 12.3053C12.6345 11.9782 13.0328 11.814 13.5 11.8125C13.9672 11.811 14.3659 11.9752 14.6959 12.3053C15.0259 12.6353 15.1898 13.0335 15.1875 13.5C15.1852 13.9665 15.0214 14.3651 14.6959 14.6959C14.3704 15.0266 13.9717 15.1905 13.5 15.1875ZM13.5 6.75C13.8187 6.75 14.0861 6.642 14.3021 6.426C14.5181 6.21 14.6258 5.943 14.625 5.625C14.6242 5.307 14.5162 5.04 14.301 4.824C14.0858 4.608 13.8187 4.5 13.5 4.5C13.1813 4.5 12.9142 4.608 12.699 4.824C12.4838 5.04 12.3758 5.307 12.375 5.625C12.3742 5.943 12.4823 6.21037 12.699 6.42712C12.9158 6.64387 13.1828 6.7515 13.5 6.75Z" fill="white"/>
</svg>
