<svg width="83" height="30" viewBox="0 0 83 30" fill="none" xmlns="http://www.w3.org/2000/svg">
<path d="M15.3799 20.7304C18.0853 8.61509 28.8363 0 41.25 0C53.6637 0 64.4147 8.61508 67.1201 20.7304L67.2073 21.1205C67.9498 24.4457 70.506 27.0668 73.8116 27.8924L82.25 30H0.25L8.68843 27.8924C11.994 27.0668 14.5502 24.4457 15.2927 21.1205L15.3799 20.7304Z" fill="url(#paint0_linear_36_2961)"/>
<path d="M44.5976 15.5742C47.0039 16.2031 48.5898 17.2969 48.5898 18.5273C48.5898 20.4414 44.6523 22 39.8398 22C34.9999 22 31.0898 20.4414 31.0898 18.5C31.0898 17.2969 32.6484 16.2031 35.0546 15.5742C35.4101 13.2773 37.4062 11.5 39.8398 11.5C42.246 11.5 44.2421 13.2773 44.5976 15.5742ZM34.5898 19.5938C34.9453 19.5938 35.246 19.3203 35.246 18.9375C35.246 18.582 34.9453 18.2812 34.5898 18.2812C34.207 18.2812 33.9335 18.582 33.9335 18.9375C33.9335 19.3203 34.207 19.5938 34.5898 19.5938ZM39.8398 20.4688C40.1953 20.4688 40.496 20.1953 40.496 19.8125C40.496 19.457 40.1953 19.1562 39.8398 19.1562C39.457 19.1562 39.1835 19.457 39.1835 19.8125C39.1835 20.1953 39.457 20.4688 39.8398 20.4688ZM43.3124 16.7773C43.3398 16.6406 43.3671 16.4766 43.3671 16.3125C43.3671 14.3984 41.7812 12.8125 39.8398 12.8125C37.871 12.8125 36.2851 14.3984 36.2851 16.3125C36.2851 16.4766 36.3124 16.6406 36.3398 16.7773C38.5273 17.9258 41.1249 17.9258 43.3124 16.7773ZM45.0898 19.5938C45.4453 19.5938 45.746 19.3203 45.746 18.9375C45.746 18.582 45.4453 18.2812 45.0898 18.2812C44.707 18.2812 44.4335 18.582 44.4335 18.9375C44.4335 19.3203 44.707 19.5938 45.0898 19.5938Z" fill="white"/>
<defs>
<linearGradient id="paint0_linear_36_2961" x1="41.25" y1="3.3871" x2="41.25" y2="59" gradientUnits="userSpaceOnUse">
<stop stop-color="#C39C67"/>
</linearGradient>
</defs>
</svg>
