<svg width="223" height="24" viewBox="0 0 223 24" fill="none" xmlns="http://www.w3.org/2000/svg">
<path d="M7.05106 0.463998C7.96306 0.463998 8.77906 0.547999 9.49906 0.715999C10.2191 0.883999 10.9271 1.148 11.6231 1.508L10.5071 3.632C9.85906 3.32 9.24706 3.104 8.67106 2.984C8.11906 2.84 7.59106 2.768 7.08706 2.768C6.00706 2.768 5.13106 3.068 4.45906 3.668C3.78706 4.244 3.45106 5.024 3.45106 6.008C3.45106 7.088 3.81106 8 4.53106 8.744C5.25106 9.488 6.01906 10.172 6.83506 10.796C8.53906 12.044 9.81106 13.148 10.6511 14.108C11.4911 15.044 11.9111 16.112 11.9111 17.312V18.86L12.9191 20.84C11.9591 21.656 10.8911 22.28 9.71506 22.712C8.56306 23.144 7.33906 23.36 6.04306 23.36C5.68306 23.36 5.20306 23.336 4.60306 23.288C4.00306 23.24 3.35506 23.132 2.65906 22.964C1.96306 22.772 1.30306 22.496 0.67906 22.136L1.68706 19.868C2.38306 20.276 3.10306 20.576 3.84706 20.768C4.61506 20.96 5.33506 21.056 6.00706 21.056C6.70306 21.056 7.31506 20.972 7.84306 20.804C8.39506 20.636 8.91106 20.396 9.39106 20.084V17.6C9.39106 16.904 9.15106 16.28 8.67106 15.728C8.21506 15.152 7.66306 14.624 7.01506 14.144C6.39106 13.664 5.81506 13.22 5.28706 12.812C4.54306 12.212 3.83506 11.6 3.16306 10.976C2.49106 10.352 1.93906 9.644 1.50706 8.852C1.09906 8.06 0.89506 7.136 0.89506 6.08C0.89506 4.256 1.45906 2.864 2.58706 1.904C3.73906 0.943999 5.22706 0.463998 7.05106 0.463998ZM27.8765 9.392C28.5725 7.544 29.4845 5.888 30.6125 4.424C31.7405 2.96 33.1685 1.64 34.8965 0.463998L36.4085 2.516L35.2925 3.308L36.6245 23.216L34.1405 23.36L32.9525 5.54C31.9685 6.788 31.1765 8.036 30.5765 9.284C30.0005 10.532 29.4845 11.936 29.0285 13.496H26.6885C26.2805 12.008 25.7885 10.652 25.2125 9.428C24.6605 8.18 23.8565 6.884 22.8005 5.54L21.6125 23.36L19.1285 23.216L20.4605 3.344L19.3445 2.516L20.8565 0.463998C22.4885 1.52 23.8805 2.78 25.0325 4.244C26.1845 5.708 27.1325 7.424 27.8765 9.392ZM47.5561 11.372L46.0081 23.36L43.5241 23.036L46.4041 0.895999C47.2201 0.703999 47.9761 0.583999 48.6721 0.536C49.3921 0.487999 49.9201 0.463998 50.2561 0.463998C50.6161 0.463998 51.1561 0.487999 51.8761 0.536C52.5961 0.583999 53.3641 0.703999 54.1801 0.895999L56.9881 23.036L54.5041 23.36L52.9561 11.372H47.5561ZM50.2561 2.768C49.7041 2.768 49.1641 2.828 48.6361 2.948L47.8441 9.068H52.6321L51.9121 2.948C51.3601 2.828 50.8081 2.768 50.2561 2.768ZM63.5857 1.796C64.4977 1.388 65.4577 1.064 66.4657 0.823998C67.4977 0.583998 68.4937 0.463998 69.4537 0.463998C70.4617 0.463998 71.3977 0.607999 72.2617 0.895999C73.1497 1.16 73.8817 1.556 74.4577 2.084C75.3217 2.852 75.8497 3.692 76.0417 4.604C76.2577 5.492 76.3657 6.392 76.3657 7.304V11.372H72.8737L77.5897 22.352L75.2497 23.36L70.0657 11.372H67.0777V23H64.5577V3.776L63.5857 1.796ZM67.0777 9.068H73.9177V7.844C73.9177 7.292 73.8577 6.68 73.7377 6.008C73.6177 5.312 73.3297 4.712 72.8737 4.208C72.3457 3.632 71.7817 3.248 71.1817 3.056C70.6057 2.864 70.0297 2.768 69.4537 2.768C68.5177 2.768 67.7257 2.912 67.0777 3.2V9.068ZM87.0414 3.128H82.3254L81.6414 0.823998H94.6014V3.128H89.5254V23H87.0414V3.128ZM111.707 0.823998H114.263V20.696H122.039V23H111.707V0.823998ZM142.325 20.876C140.837 21.98 139.469 22.676 138.221 22.964C136.997 23.228 136.001 23.36 135.233 23.36C132.257 23.36 130.169 22.292 128.969 20.156C128.369 19.124 128.033 18.068 127.961 16.988C127.889 15.908 127.853 14.852 127.853 13.82V0.823998H130.409V13.892C130.409 15.332 130.505 16.496 130.697 17.384C130.889 18.272 131.189 18.992 131.597 19.544C131.885 19.856 132.317 20.192 132.893 20.552C133.469 20.888 134.249 21.056 135.233 21.056C136.361 21.056 137.501 20.756 138.653 20.156V0.823998H141.173V18.86L142.325 20.876ZM151.39 0.463998L154.198 9.068H156.79L159.598 0.463998L162.082 1.22L159.166 10.22L162.082 22.784L159.598 23.36L156.826 11.372H154.162L151.39 23.36L148.906 22.784L151.822 10.22L148.906 1.22L151.39 0.463998ZM183.978 20.876C182.49 21.98 181.122 22.676 179.874 22.964C178.65 23.228 177.654 23.36 176.886 23.36C173.91 23.36 171.822 22.292 170.622 20.156C170.022 19.124 169.686 18.068 169.614 16.988C169.542 15.908 169.506 14.852 169.506 13.82V0.823998H172.062V13.892C172.062 15.332 172.158 16.496 172.35 17.384C172.542 18.272 172.842 18.992 173.25 19.544C173.538 19.856 173.97 20.192 174.546 20.552C175.122 20.888 175.902 21.056 176.886 21.056C178.014 21.056 179.154 20.756 180.306 20.156V0.823998H182.826V18.86L183.978 20.876ZM190.739 1.796C191.651 1.388 192.611 1.064 193.619 0.823998C194.651 0.583998 195.647 0.463998 196.607 0.463998C197.615 0.463998 198.551 0.607999 199.415 0.895999C200.303 1.16 201.035 1.556 201.611 2.084C202.475 2.852 203.003 3.692 203.195 4.604C203.411 5.492 203.519 6.392 203.519 7.304V11.372H200.027L204.743 22.352L202.403 23.36L197.219 11.372H194.231V23H191.711V3.776L190.739 1.796ZM194.231 9.068H201.071V7.844C201.071 7.292 201.011 6.68 200.891 6.008C200.771 5.312 200.483 4.712 200.027 4.208C199.499 3.632 198.935 3.248 198.335 3.056C197.759 2.864 197.183 2.768 196.607 2.768C195.671 2.768 194.879 2.912 194.231 3.2V9.068ZM212.484 0.463998L212.772 2.408C212.964 3.68 213.144 4.7 213.312 5.468C213.48 6.236 213.648 6.824 213.816 7.232C213.984 7.616 214.164 7.928 214.356 8.168C214.692 8.552 215.04 8.804 215.4 8.924C215.784 9.02 216.132 9.068 216.444 9.068C216.756 9.068 217.104 9.02 217.488 8.924C217.872 8.804 218.22 8.552 218.532 8.168C218.724 7.928 218.904 7.616 219.072 7.232C219.24 6.824 219.408 6.236 219.576 5.468C219.744 4.7 219.924 3.68 220.116 2.408L220.404 0.463998L222.924 0.86C222.66 2.612 222.408 4.064 222.168 5.216C221.952 6.368 221.712 7.316 221.448 8.06C221.184 8.78 220.848 9.368 220.44 9.824C219.984 10.376 219.504 10.76 219 10.976C218.496 11.192 218.064 11.336 217.704 11.408V23H215.184V11.408C214.824 11.336 214.392 11.192 213.888 10.976C213.408 10.76 212.928 10.376 212.448 9.824C212.064 9.368 211.728 8.78 211.44 8.06C211.176 7.316 210.924 6.368 210.684 5.216C210.468 4.064 210.228 2.612 209.964 0.86L212.484 0.463998Z" fill="#F5F1E5"/>
</svg>
