<svg width="90" height="10" viewBox="0 0 90 10" fill="none" xmlns="http://www.w3.org/2000/svg">
<path d="M3.40069 9.11286C2.76117 9.11286 2.19688 8.99248 1.70783 8.75171C1.21879 8.50343 0.835071 8.14605 0.55669 7.67957C0.285833 7.20557 0.150405 6.62624 0.150405 5.94157V0.648572H1.47083V5.94157C1.47083 6.48329 1.62883 6.94224 1.94483 7.31843C2.26083 7.6871 2.74612 7.87143 3.40069 7.87143C4.06279 7.87143 4.55183 7.6871 4.86783 7.31843C5.18383 6.94224 5.34183 6.48329 5.34183 5.94157V0.648572H6.66226V5.94157C6.66226 6.62624 6.52307 7.20557 6.24469 7.67957C5.97383 8.14605 5.59012 8.50343 5.09355 8.75171C4.6045 8.99248 4.04021 9.11286 3.40069 9.11286ZM18.3098 9V1.79971H15.7141V0.648572H22.2147V1.79971H19.6189V9H18.3098ZM31.2732 9V0.648572H32.5936V9H31.2732ZM42.0183 9V0.648572H43.3387V7.84886H47.5596V9H42.0183ZM56.8413 9V0.648572H58.1617V9H56.8413ZM69.8097 9V1.79971H67.2139V0.648572H73.7145V1.79971H71.1188V9H69.8097ZM85.1973 9V6.06571L82.2743 0.648572H83.7189L85.8519 4.72271L87.9962 0.648572H89.4408L86.5065 6.06571V9H85.1973Z" fill="#C39C67"/>
</svg>
