<svg width="14" height="10" viewBox="0 0 14 10" fill="none" xmlns="http://www.w3.org/2000/svg">
<path fill-rule="evenodd" clip-rule="evenodd" d="M7.05 7.00251C7.16476 6.43736 7.47136 5.92927 7.91787 5.56432C8.36438 5.19937 8.92332 5 9.5 5C10.0767 5 10.6356 5.19937 11.0821 5.56432C11.5286 5.92927 11.8352 6.43736 11.95 7.00251H13.5C13.6326 7.00251 13.7598 7.05518 13.8536 7.14895C13.9473 7.24272 14 7.3699 14 7.50251C14 7.63511 13.9473 7.76229 13.8536 7.85606C13.7598 7.94983 13.6326 8.00251 13.5 8.00251H11.95C11.8352 8.56765 11.5286 9.07574 11.0821 9.44069C10.6356 9.80565 10.0767 10.005 9.5 10.005C8.92332 10.005 8.36438 9.80565 7.91787 9.44069C7.47136 9.07574 7.16476 8.56765 7.05 8.00251H0.5C0.367392 8.00251 0.240215 7.94983 0.146447 7.85606C0.0526784 7.76229 0 7.63511 0 7.50251C0 7.3699 0.0526784 7.24272 0.146447 7.14895C0.240215 7.05518 0.367392 7.00251 0.5 7.00251H7.05ZM6.95 3.00251C6.83524 3.56765 6.52864 4.07574 6.08213 4.4407C5.63562 4.80565 5.07668 5.00501 4.5 5.00501C3.92332 5.00501 3.36438 4.80565 2.91787 4.4407C2.47136 4.07574 2.16476 3.56765 2.05 3.00251H0.5C0.367392 3.00251 0.240215 2.94983 0.146447 2.85606C0.0526784 2.76229 0 2.63511 0 2.50251C0 2.3699 0.0526784 2.24272 0.146447 2.14895C0.240215 2.05518 0.367392 2.00251 0.5 2.00251H2.05C2.16476 1.43736 2.47136 0.929269 2.91787 0.564317C3.36438 0.199366 3.92332 0 4.5 0C5.07668 0 5.63562 0.199366 6.08213 0.564317C6.52864 0.929269 6.83524 1.43736 6.95 2.00251H13.5C13.6326 2.00251 13.7598 2.05518 13.8536 2.14895C13.9473 2.24272 14 2.3699 14 2.50251C14 2.63511 13.9473 2.76229 13.8536 2.85606C13.7598 2.94983 13.6326 3.00251 13.5 3.00251H6.95ZM3 2.50251C3 2.69949 3.0388 2.89454 3.11418 3.07653C3.18956 3.25852 3.30005 3.42388 3.43934 3.56317C3.57863 3.70245 3.74399 3.81294 3.92597 3.88833C4.10796 3.96371 4.30302 4.00251 4.5 4.00251C4.69698 4.00251 4.89204 3.96371 5.07403 3.88833C5.25601 3.81294 5.42137 3.70245 5.56066 3.56317C5.69995 3.42388 5.81044 3.25852 5.88582 3.07653C5.9612 2.89454 6 2.69949 6 2.50251C6 2.10468 5.84196 1.72315 5.56066 1.44185C5.27936 1.16054 4.89782 1.00251 4.5 1.00251C4.10218 1.00251 3.72064 1.16054 3.43934 1.44185C3.15804 1.72315 3 2.10468 3 2.50251ZM11 7.50251C11 7.10468 10.842 6.72315 10.5607 6.44185C10.2794 6.16054 9.89782 6.00251 9.5 6.00251C9.10218 6.00251 8.72064 6.16054 8.43934 6.44185C8.15804 6.72315 8 7.10468 8 7.50251C8 7.90033 8.15804 8.28186 8.43934 8.56317C8.72064 8.84447 9.10218 9.00251 9.5 9.00251C9.89782 9.00251 10.2794 8.84447 10.5607 8.56317C10.842 8.28186 11 7.90033 11 7.50251Z" fill="#11271D"/>
</svg>
