<svg width="168" height="68" viewBox="0 0 168 68" fill="none" xmlns="http://www.w3.org/2000/svg">
<g filter="url(#filter0_d_1410_90241)">
<mask id="mask0_1410_90241" style="mask-type:alpha" maskUnits="userSpaceOnUse" x="2" y="1" width="164" height="64">
<rect x="2" y="1" width="163.75" height="64" rx="8" fill="white"/>
<rect x="2.5" y="1.5" width="162.75" height="63" rx="7.5" stroke="#E5E5E5" stroke-opacity="0.6"/>
</mask>
<g mask="url(#mask0_1410_90241)">
<g filter="url(#filter1_d_1410_90241)">
<rect x="2" y="1" width="163.75" height="64" rx="8" fill="white"/>
<rect x="2.5" y="1.5" width="162.75" height="63" rx="7.5" stroke="#E5E5E5" stroke-opacity="0.6"/>
</g>
<path d="M14.912 29.5V20.62H18.212C18.844 20.62 19.376 20.744 19.808 20.992C20.248 21.232 20.58 21.552 20.804 21.952C21.028 22.344 21.14 22.772 21.14 23.236C21.14 23.796 20.98 24.304 20.66 24.76C20.348 25.216 19.888 25.536 19.28 25.72L21.416 29.5H19.844L17.828 25.876H16.316V29.5H14.912ZM18.188 21.844H16.316V24.7H18.188C18.692 24.7 19.072 24.556 19.328 24.268C19.584 23.972 19.712 23.64 19.712 23.272C19.712 22.904 19.584 22.576 19.328 22.288C19.072 21.992 18.692 21.844 18.188 21.844ZM25.4818 29.62C24.7858 29.62 24.1978 29.464 23.7178 29.152C23.2458 28.84 22.8858 28.432 22.6378 27.928C22.3978 27.424 22.2778 26.888 22.2778 26.32C22.2778 25.752 22.3978 25.216 22.6378 24.712C22.8858 24.208 23.2458 23.8 23.7178 23.488C24.1978 23.176 24.7858 23.02 25.4818 23.02C26.1698 23.02 26.7498 23.176 27.2218 23.488C27.7018 23.8 28.0618 24.208 28.3018 24.712C28.5498 25.216 28.6738 25.752 28.6738 26.32C28.6738 26.888 28.5498 27.424 28.3018 27.928C28.0618 28.432 27.7018 28.84 27.2218 29.152C26.7498 29.464 26.1698 29.62 25.4818 29.62ZM25.4818 28.456C25.8738 28.456 26.2018 28.356 26.4658 28.156C26.7378 27.956 26.9418 27.692 27.0778 27.364C27.2218 27.036 27.2938 26.688 27.2938 26.32C27.2938 25.944 27.2218 25.596 27.0778 25.276C26.9418 24.948 26.7378 24.684 26.4658 24.484C26.2018 24.284 25.8738 24.184 25.4818 24.184C25.0898 24.184 24.7578 24.284 24.4858 24.484C24.2138 24.684 24.0098 24.948 23.8738 25.276C23.7378 25.596 23.6698 25.944 23.6698 26.32C23.6698 26.688 23.7378 27.036 23.8738 27.364C24.0098 27.692 24.2138 27.956 24.4858 28.156C24.7578 28.356 25.0898 28.456 25.4818 28.456ZM33.1927 29.62C32.4967 29.62 31.9087 29.464 31.4287 29.152C30.9567 28.84 30.5967 28.432 30.3487 27.928C30.1087 27.424 29.9887 26.888 29.9887 26.32C29.9887 25.752 30.1087 25.216 30.3487 24.712C30.5967 24.208 30.9567 23.8 31.4287 23.488C31.9087 23.176 32.4967 23.02 33.1927 23.02C33.8807 23.02 34.4607 23.176 34.9327 23.488C35.4127 23.8 35.7727 24.208 36.0127 24.712C36.2607 25.216 36.3847 25.752 36.3847 26.32C36.3847 26.888 36.2607 27.424 36.0127 27.928C35.7727 28.432 35.4127 28.84 34.9327 29.152C34.4607 29.464 33.8807 29.62 33.1927 29.62ZM33.1927 28.456C33.5847 28.456 33.9127 28.356 34.1767 28.156C34.4487 27.956 34.6527 27.692 34.7887 27.364C34.9327 27.036 35.0047 26.688 35.0047 26.32C35.0047 25.944 34.9327 25.596 34.7887 25.276C34.6527 24.948 34.4487 24.684 34.1767 24.484C33.9127 24.284 33.5847 24.184 33.1927 24.184C32.8007 24.184 32.4687 24.284 32.1967 24.484C31.9247 24.684 31.7207 24.948 31.5847 25.276C31.4487 25.596 31.3807 25.944 31.3807 26.32C31.3807 26.688 31.4487 27.036 31.5847 27.364C31.7207 27.692 31.9247 27.956 32.1967 28.156C32.4687 28.356 32.8007 28.456 33.1927 28.456ZM37.8428 29.5V23.14H39.2108V24.04H39.2588C39.3308 23.912 39.4348 23.768 39.5708 23.608C39.7148 23.448 39.9028 23.312 40.1348 23.2C40.3668 23.08 40.6588 23.02 41.0108 23.02C41.4828 23.02 41.8748 23.132 42.1868 23.356C42.4988 23.58 42.7308 23.876 42.8828 24.244H42.9068C43.0748 23.924 43.3188 23.64 43.6388 23.392C43.9588 23.144 44.3828 23.02 44.9108 23.02C45.3588 23.02 45.7388 23.128 46.0508 23.344C46.3628 23.552 46.5948 23.836 46.7468 24.196C46.9068 24.548 46.9868 24.948 46.9868 25.396V29.5H45.6188V25.588C45.6188 25.172 45.5188 24.832 45.3188 24.568C45.1188 24.304 44.8228 24.172 44.4308 24.172C44.1108 24.172 43.8508 24.26 43.6508 24.436C43.4588 24.612 43.3188 24.832 43.2308 25.096C43.1428 25.352 43.0988 25.612 43.0988 25.876V29.5H41.7308V25.588C41.7308 25.172 41.6308 24.832 41.4308 24.568C41.2308 24.304 40.9348 24.172 40.5428 24.172C40.2228 24.172 39.9628 24.26 39.7628 24.436C39.5708 24.612 39.4308 24.832 39.3428 25.096C39.2548 25.352 39.2108 25.612 39.2108 25.876V29.5H37.8428ZM48.3134 23.668L49.2134 22.192C48.9974 22.176 48.8134 22.088 48.6614 21.928C48.5174 21.768 48.4454 21.572 48.4454 21.34C48.4454 21.092 48.5294 20.892 48.6974 20.74C48.8734 20.58 49.0774 20.5 49.3094 20.5C49.5574 20.5 49.7694 20.58 49.9454 20.74C50.1214 20.892 50.2094 21.104 50.2094 21.376C50.2094 21.616 50.1174 21.892 49.9334 22.204C49.7494 22.516 49.4534 22.964 49.0454 23.548L48.9614 23.668H48.3134ZM53.3689 29.62C52.8649 29.62 52.4489 29.552 52.1209 29.416C51.8009 29.272 51.5449 29.1 51.3529 28.9C51.1609 28.692 51.0169 28.484 50.9209 28.276C50.8329 28.068 50.7769 27.896 50.7529 27.76C50.7289 27.616 50.7169 27.544 50.7169 27.544H52.0489C52.0489 27.544 52.0609 27.596 52.0849 27.7C52.1169 27.796 52.1769 27.908 52.2649 28.036C52.3529 28.164 52.4889 28.28 52.6729 28.384C52.8569 28.48 53.1009 28.528 53.4049 28.528C53.7729 28.528 54.0449 28.444 54.2209 28.276C54.4049 28.108 54.4969 27.916 54.4969 27.7C54.4969 27.492 54.4209 27.328 54.2689 27.208C54.1169 27.088 53.9009 26.996 53.6209 26.932L52.7569 26.74C52.4209 26.66 52.1049 26.552 51.8089 26.416C51.5209 26.272 51.2849 26.084 51.1009 25.852C50.9249 25.612 50.8369 25.304 50.8369 24.928C50.8369 24.376 51.0449 23.92 51.4609 23.56C51.8769 23.2 52.4369 23.02 53.1409 23.02C53.5969 23.02 53.9729 23.084 54.2689 23.212C54.5729 23.34 54.8129 23.5 54.9889 23.692C55.1649 23.876 55.2969 24.064 55.3849 24.256C55.4729 24.44 55.5289 24.596 55.5529 24.724C55.5849 24.844 55.6009 24.904 55.6009 24.904H54.3169C54.3169 24.904 54.3049 24.864 54.2809 24.784C54.2569 24.704 54.2049 24.612 54.1249 24.508C54.0449 24.396 53.9249 24.3 53.7649 24.22C53.6129 24.132 53.4049 24.088 53.1409 24.088C52.7809 24.088 52.5209 24.168 52.3609 24.328C52.2009 24.488 52.1209 24.66 52.1209 24.844C52.1209 25.036 52.1969 25.188 52.3489 25.3C52.5089 25.404 52.7169 25.484 52.9729 25.54L53.8249 25.732C54.3929 25.86 54.8609 26.072 55.2289 26.368C55.5969 26.656 55.7809 27.076 55.7809 27.628C55.7809 27.996 55.6849 28.332 55.4929 28.636C55.3089 28.932 55.0369 29.172 54.6769 29.356C54.3169 29.532 53.8809 29.62 53.3689 29.62ZM59.5855 29.5L62.6815 20.62H64.4815L67.5895 29.5H66.1135L65.4295 27.508H61.7455L61.0615 29.5H59.5855ZM62.1655 26.26H65.0095L63.5935 22.12L62.1655 26.26ZM72.4853 29.62C71.7733 29.62 71.1493 29.492 70.6133 29.236C70.0853 28.972 69.6413 28.624 69.2813 28.192C68.9293 27.752 68.6613 27.264 68.4773 26.728C68.3013 26.184 68.2133 25.628 68.2133 25.06C68.2133 24.492 68.3013 23.936 68.4773 23.392C68.6613 22.848 68.9293 22.36 69.2813 21.928C69.6413 21.488 70.0853 21.14 70.6133 20.884C71.1493 20.628 71.7733 20.5 72.4853 20.5C73.0693 20.5 73.5693 20.576 73.9853 20.728C74.4093 20.88 74.7613 21.076 75.0413 21.316C75.3293 21.548 75.5573 21.796 75.7253 22.06C75.9013 22.324 76.0293 22.576 76.1093 22.816C76.1973 23.056 76.2573 23.252 76.2893 23.404C76.3213 23.548 76.3373 23.62 76.3373 23.62H74.9333C74.9333 23.62 74.9173 23.56 74.8853 23.44C74.8613 23.312 74.8013 23.156 74.7053 22.972C74.6173 22.788 74.4813 22.608 74.2973 22.432C74.1213 22.248 73.8853 22.096 73.5893 21.976C73.3013 21.848 72.9373 21.784 72.4973 21.784C72.0253 21.784 71.6093 21.876 71.2493 22.06C70.8973 22.244 70.6013 22.492 70.3613 22.804C70.1213 23.116 69.9413 23.468 69.8213 23.86C69.7093 24.252 69.6533 24.652 69.6533 25.06C69.6533 25.468 69.7093 25.868 69.8213 26.26C69.9413 26.644 70.1213 26.996 70.3613 27.316C70.6013 27.628 70.8973 27.876 71.2493 28.06C71.6093 28.244 72.0253 28.336 72.4973 28.336C72.9373 28.336 73.3013 28.276 73.5893 28.156C73.8853 28.028 74.1213 27.872 74.2973 27.688C74.4813 27.504 74.6173 27.32 74.7053 27.136C74.8013 26.952 74.8613 26.8 74.8853 26.68C74.9173 26.552 74.9333 26.488 74.9333 26.488H76.3373C76.3373 26.488 76.3213 26.564 76.2893 26.716C76.2573 26.868 76.1973 27.064 76.1093 27.304C76.0293 27.536 75.9013 27.788 75.7253 28.06C75.5573 28.324 75.3293 28.576 75.0413 28.816C74.7613 29.048 74.4093 29.24 73.9853 29.392C73.5693 29.544 73.0693 29.62 72.4853 29.62Z" fill="#11271D"/>
<path opacity="0.6" d="M17.24 46.6C16.8067 46.6 16.4367 46.5467 16.13 46.44C15.83 46.3267 15.58 46.1833 15.38 46.01C15.1867 45.8367 15.03 45.6533 14.91 45.46C14.7967 45.2667 14.7133 45.0833 14.66 44.91C14.6067 44.7367 14.5733 44.5967 14.56 44.49C14.5467 44.3767 14.54 44.32 14.54 44.32H15.32C15.32 44.32 15.3267 44.3733 15.34 44.48C15.36 44.5867 15.4 44.72 15.46 44.88C15.5267 45.0333 15.63 45.19 15.77 45.35C15.91 45.5033 16.1 45.6333 16.34 45.74C16.58 45.84 16.8867 45.89 17.26 45.89C17.7667 45.89 18.1767 45.76 18.49 45.5C18.8033 45.24 18.96 44.9033 18.96 44.49C18.96 44.1033 18.8333 43.81 18.58 43.61C18.3333 43.41 18.0067 43.26 17.6 43.16L16.65 42.93C16.29 42.8367 15.9667 42.7133 15.68 42.56C15.3933 42.4 15.1667 42.1967 15 41.95C14.8333 41.6967 14.75 41.3867 14.75 41.02C14.75 40.6 14.8533 40.24 15.06 39.94C15.2667 39.64 15.5467 39.41 15.9 39.25C16.2533 39.0833 16.6567 39 17.11 39C17.5633 39 17.9367 39.07 18.23 39.21C18.5233 39.35 18.7567 39.5233 18.93 39.73C19.1033 39.93 19.23 40.1333 19.31 40.34C19.3967 40.5467 19.45 40.72 19.47 40.86C19.4967 41 19.51 41.07 19.51 41.07H18.75C18.75 41.07 18.7433 41.0233 18.73 40.93C18.7167 40.8367 18.68 40.7233 18.62 40.59C18.5667 40.45 18.48 40.3133 18.36 40.18C18.24 40.04 18.0767 39.9233 17.87 39.83C17.6633 39.7367 17.4033 39.69 17.09 39.69C16.57 39.69 16.1767 39.82 15.91 40.08C15.6433 40.3333 15.51 40.63 15.51 40.97C15.51 41.2833 15.6167 41.5333 15.83 41.72C16.05 41.9067 16.3533 42.0467 16.74 42.14L17.75 42.39C18.13 42.4833 18.4667 42.6167 18.76 42.79C19.06 42.9633 19.2967 43.1867 19.47 43.46C19.6433 43.7333 19.73 44.0633 19.73 44.45C19.73 44.8367 19.63 45.1933 19.43 45.52C19.2367 45.8467 18.9533 46.11 18.58 46.31C18.2133 46.5033 17.7667 46.6 17.24 46.6ZM23.26 41.1C23.6267 41.1 23.93 41.1633 24.17 41.29C24.41 41.41 24.6 41.5533 24.74 41.72C24.8867 41.8867 24.9933 42.03 25.06 42.15H25.12V41.2H25.86V46.5H25.12V45.55H25.06C24.9933 45.6767 24.8867 45.8233 24.74 45.99C24.6 46.15 24.41 46.2933 24.17 46.42C23.93 46.54 23.6267 46.6 23.26 46.6C22.86 46.6 22.51 46.5233 22.21 46.37C21.91 46.21 21.66 46 21.46 45.74C21.26 45.4733 21.11 45.1767 21.01 44.85C20.9167 44.5233 20.87 44.19 20.87 43.85C20.87 43.51 20.9167 43.1767 21.01 42.85C21.11 42.5233 21.26 42.23 21.46 41.97C21.66 41.7033 21.91 41.4933 22.21 41.34C22.51 41.18 22.86 41.1 23.26 41.1ZM23.37 41.75C22.9767 41.75 22.65 41.8533 22.39 42.06C22.13 42.2667 21.9367 42.53 21.81 42.85C21.6833 43.17 21.62 43.5033 21.62 43.85C21.62 44.1967 21.6833 44.53 21.81 44.85C21.9367 45.17 22.13 45.4333 22.39 45.64C22.65 45.8467 22.9767 45.95 23.37 45.95C23.7567 45.95 24.0767 45.8467 24.33 45.64C24.59 45.4333 24.7833 45.17 24.91 44.85C25.0433 44.53 25.11 44.1967 25.11 43.85C25.11 43.5033 25.0433 43.17 24.91 42.85C24.7833 42.53 24.59 42.2667 24.33 42.06C24.0767 41.8533 23.7567 41.75 23.37 41.75ZM27.3574 46.5V41.2H28.1074V42.06H28.1474C28.2008 41.9467 28.2874 41.8167 28.4074 41.67C28.5274 41.5167 28.6908 41.3833 28.8974 41.27C29.1041 41.1567 29.3641 41.1 29.6774 41.1C30.0774 41.1 30.4141 41.2033 30.6874 41.41C30.9674 41.61 31.1708 41.8867 31.2974 42.24H31.3074C31.4474 41.94 31.6541 41.6767 31.9274 41.45C32.2008 41.2167 32.5674 41.1 33.0274 41.1C33.5874 41.1 34.0241 41.2933 34.3374 41.68C34.6508 42.0667 34.8074 42.5767 34.8074 43.21V46.5H34.0674V43.24C34.0674 42.78 33.9608 42.42 33.7474 42.16C33.5341 41.8933 33.2374 41.76 32.8574 41.76C32.5241 41.76 32.2541 41.8533 32.0474 42.04C31.8408 42.22 31.6908 42.45 31.5974 42.73C31.5041 43.01 31.4574 43.2967 31.4574 43.59V46.5H30.7074V43.24C30.7074 42.78 30.6041 42.42 30.3974 42.16C30.1908 41.8933 29.8941 41.76 29.5074 41.76C29.1741 41.76 28.9041 41.8533 28.6974 42.04C28.4908 42.22 28.3408 42.4533 28.2474 42.74C28.1541 43.02 28.1074 43.3033 28.1074 43.59V46.5H27.3574ZM38.1127 46.6C37.7127 46.6 37.3827 46.5433 37.1227 46.43C36.8694 46.3167 36.6661 46.1767 36.5127 46.01C36.3661 45.8433 36.2594 45.6767 36.1927 45.51C36.1261 45.3433 36.0827 45.2033 36.0627 45.09C36.0427 44.9767 36.0327 44.92 36.0327 44.92H36.8027C36.8027 44.92 36.8127 44.9733 36.8327 45.08C36.8527 45.18 36.9027 45.3 36.9827 45.44C37.0694 45.5733 37.2027 45.6933 37.3827 45.8C37.5627 45.9 37.8094 45.95 38.1227 45.95C38.4627 45.95 38.7327 45.8633 38.9327 45.69C39.1327 45.5167 39.2327 45.3033 39.2327 45.05C39.2327 44.81 39.1494 44.6233 38.9827 44.49C38.8227 44.3567 38.6061 44.26 38.3327 44.2L37.6327 44.04C37.3661 43.9733 37.1227 43.8833 36.9027 43.77C36.6827 43.6567 36.5061 43.5067 36.3727 43.32C36.2394 43.1267 36.1727 42.89 36.1727 42.61C36.1727 42.1633 36.3361 41.8 36.6627 41.52C36.9894 41.24 37.4161 41.1 37.9427 41.1C38.2961 41.1 38.5861 41.1533 38.8127 41.26C39.0461 41.36 39.2294 41.4867 39.3627 41.64C39.5027 41.7933 39.6027 41.9467 39.6627 42.1C39.7294 42.2467 39.7727 42.3733 39.7927 42.48C39.8127 42.58 39.8227 42.63 39.8227 42.63H39.0927C39.0927 42.63 39.0794 42.5867 39.0527 42.5C39.0327 42.4067 38.9861 42.3033 38.9127 42.19C38.8461 42.07 38.7327 41.9667 38.5727 41.88C38.4194 41.7867 38.2094 41.74 37.9427 41.74C37.5961 41.74 37.3361 41.8233 37.1627 41.99C36.9961 42.1567 36.9127 42.3467 36.9127 42.56C36.9127 42.7667 36.9861 42.93 37.1327 43.05C37.2861 43.17 37.4927 43.26 37.7527 43.32L38.4627 43.49C38.9094 43.5967 39.2727 43.7733 39.5527 44.02C39.8327 44.26 39.9727 44.5933 39.9727 45.02C39.9727 45.3067 39.8961 45.57 39.7427 45.81C39.5961 46.05 39.3827 46.2433 39.1027 46.39C38.8294 46.53 38.4994 46.6 38.1127 46.6ZM42.9741 46.6C42.4475 46.6 42.0275 46.43 41.7141 46.09C41.4008 45.75 41.2441 45.2767 41.2441 44.67V41.2H41.9941V44.64C41.9941 45.0533 42.0975 45.3733 42.3041 45.6C42.5108 45.8267 42.7941 45.94 43.1541 45.94C43.5075 45.94 43.7908 45.8467 44.0041 45.66C44.2175 45.4667 44.3708 45.2267 44.4641 44.94C44.5641 44.6467 44.6141 44.3433 44.6141 44.03V41.2H45.3641V46.5H44.6141V45.63H44.5641C44.5175 45.7233 44.4341 45.85 44.3141 46.01C44.1941 46.1633 44.0275 46.3 43.8141 46.42C43.6008 46.54 43.3208 46.6 42.9741 46.6ZM46.8594 46.5V41.2H47.6094V42.08H47.6594C47.706 41.98 47.7894 41.8533 47.9094 41.7C48.0294 41.54 48.196 41.4 48.4094 41.28C48.6227 41.16 48.8927 41.1 49.2194 41.1C49.6127 41.1 49.946 41.19 50.2194 41.37C50.4927 41.55 50.6994 41.7933 50.8394 42.1C50.986 42.4067 51.0594 42.7533 51.0594 43.14V46.5H50.3194V43.18C50.3194 42.7733 50.2094 42.4367 49.9894 42.17C49.776 41.8967 49.4594 41.76 49.0394 41.76C48.706 41.76 48.4327 41.8467 48.2194 42.02C48.0127 42.1933 47.8594 42.4167 47.7594 42.69C47.6594 42.9633 47.6094 43.2433 47.6094 43.53V46.5H46.8594ZM55.052 48.6C54.6254 48.6 54.2687 48.54 53.982 48.42C53.6954 48.3067 53.4654 48.1633 53.292 47.99C53.1254 47.8233 52.9987 47.6533 52.912 47.48C52.832 47.3067 52.7787 47.1633 52.752 47.05C52.7254 46.9367 52.712 46.88 52.712 46.88H53.462C53.462 46.88 53.4787 46.9333 53.512 47.04C53.5454 47.1467 53.612 47.27 53.712 47.41C53.8187 47.55 53.9787 47.6733 54.192 47.78C54.4054 47.8867 54.692 47.94 55.052 47.94C55.4854 47.94 55.822 47.8533 56.062 47.68C56.302 47.5067 56.4687 47.2867 56.562 47.02C56.6554 46.76 56.702 46.4933 56.702 46.22V45.49H56.662C56.5954 45.6033 56.4887 45.7433 56.342 45.91C56.1954 46.07 55.9987 46.21 55.752 46.33C55.5054 46.45 55.1987 46.51 54.832 46.51C54.432 46.51 54.082 46.4333 53.782 46.28C53.4887 46.1267 53.242 45.92 53.042 45.66C52.842 45.4 52.692 45.11 52.592 44.79C52.4987 44.47 52.452 44.14 52.452 43.8C52.452 43.4667 52.4987 43.14 52.592 42.82C52.692 42.5 52.842 42.21 53.042 41.95C53.242 41.69 53.4887 41.4833 53.782 41.33C54.082 41.1767 54.432 41.1 54.832 41.1C55.1987 41.1 55.5054 41.16 55.752 41.28C55.9987 41.4 56.1954 41.5433 56.342 41.71C56.4887 41.87 56.5954 42.0067 56.662 42.12H56.702V41.2H57.452V46.21C57.452 46.9567 57.2387 47.54 56.812 47.96C56.392 48.3867 55.8054 48.6 55.052 48.6ZM54.952 45.86C55.3387 45.86 55.662 45.76 55.922 45.56C56.182 45.36 56.3754 45.1033 56.502 44.79C56.6354 44.4767 56.702 44.1467 56.702 43.8C56.702 43.4533 56.6354 43.1267 56.502 42.82C56.3754 42.5067 56.182 42.25 55.922 42.05C55.6687 41.85 55.3487 41.75 54.962 41.75C54.5687 41.75 54.242 41.85 53.982 42.05C53.722 42.25 53.5287 42.5067 53.402 42.82C53.2754 43.1333 53.212 43.46 53.212 43.8C53.212 44.1467 53.2754 44.4767 53.402 44.79C53.5287 45.1033 53.722 45.36 53.982 45.56C54.242 45.76 54.5654 45.86 54.952 45.86Z" fill="#11271D"/>
<g opacity="0.6">
<path d="M151.334 32.1667V22.3C151.334 22.0878 151.249 21.8843 151.099 21.7343C150.949 21.5843 150.746 21.5 150.534 21.5H125.467C125.255 21.5 125.051 21.5843 124.901 21.7343C124.751 21.8843 124.667 22.0878 124.667 22.3V32.1667M151.334 32.1667H124.667M151.334 32.1667L150.28 35.612C150.114 36.1582 149.776 36.6364 149.317 36.9763C148.858 37.3162 148.302 37.4998 147.731 37.5H146M124.667 32.1667L125.72 35.612C125.887 36.1582 126.225 36.6364 126.684 36.9763C127.143 37.3162 127.699 37.4998 128.27 37.5H130M146 26.8333H147.334M134.667 36.8333C134.667 36.8333 134.667 46.1667 130 46.1667M141.334 36.8333C141.334 36.8333 141.334 46.1667 146 46.1667M138 36.8333V46.1667" stroke="#C39C67" stroke-width="2.6" stroke-linecap="round" stroke-linejoin="round"/>
</g>
</g>
</g>
<defs>
<filter id="filter0_d_1410_90241" x="0" y="0" width="167.75" height="68" filterUnits="userSpaceOnUse" color-interpolation-filters="sRGB">
<feFlood flood-opacity="0" result="BackgroundImageFix"/>
<feColorMatrix in="SourceAlpha" type="matrix" values="0 0 0 0 0 0 0 0 0 0 0 0 0 0 0 0 0 0 127 0" result="hardAlpha"/>
<feOffset dy="1"/>
<feGaussianBlur stdDeviation="1"/>
<feComposite in2="hardAlpha" operator="out"/>
<feColorMatrix type="matrix" values="0 0 0 0 0 0 0 0 0 0 0 0 0 0 0 0 0 0 0.03 0"/>
<feBlend mode="normal" in2="BackgroundImageFix" result="effect1_dropShadow_1410_90241"/>
<feBlend mode="normal" in="SourceGraphic" in2="effect1_dropShadow_1410_90241" result="shape"/>
</filter>
<filter id="filter1_d_1410_90241" x="1" y="1" width="165.75" height="66" filterUnits="userSpaceOnUse" color-interpolation-filters="sRGB">
<feFlood flood-opacity="0" result="BackgroundImageFix"/>
<feColorMatrix in="SourceAlpha" type="matrix" values="0 0 0 0 0 0 0 0 0 0 0 0 0 0 0 0 0 0 127 0" result="hardAlpha"/>
<feOffset dy="1"/>
<feGaussianBlur stdDeviation="0.5"/>
<feComposite in2="hardAlpha" operator="out"/>
<feColorMatrix type="matrix" values="0 0 0 0 0 0 0 0 0 0 0 0 0 0 0 0 0 0 0.1 0"/>
<feBlend mode="normal" in2="BackgroundImageFix" result="effect1_dropShadow_1410_90241"/>
<feBlend mode="normal" in="SourceGraphic" in2="effect1_dropShadow_1410_90241" result="shape"/>
</filter>
</defs>
</svg>
