<svg width="53" height="40" viewBox="0 0 53 40" fill="none" xmlns="http://www.w3.org/2000/svg">
<path d="M49.7335 24.0589C51.4848 24.0589 52.9045 22.4787 52.9045 20.5294C52.9045 18.5802 51.4848 17 49.7335 17C47.9822 17 46.5625 18.5802 46.5625 20.5294C46.5625 22.4787 47.9822 24.0589 49.7335 24.0589Z" fill="url(#paint0_linear_1410_89369)"/>
<path d="M49.7461 20.5078L49.7461 38.2059" stroke="url(#paint1_linear_1410_89369)" stroke-width="0.125651" stroke-miterlimit="10"/>
<path d="M49.7344 22.1985L50.988 20.5273" stroke="white" stroke-width="0.125651" stroke-miterlimit="10"/>
<path d="M49.7336 22.4572L48.5537 21.6758" stroke="white" stroke-width="0.125651" stroke-miterlimit="10"/>
<path d="M0.860365 39.161V3.34865H39.2959V39.161H0.860365Z" fill="white" stroke="#F2F2F2" stroke-width="0.15823"/>
<path d="M50.9172 27.375H35.0264V39.272H50.9172V27.375Z" fill="#B0BEC5"/>
<path d="M50.9172 27.375H35.0264V39.272H50.9172V27.375Z" fill="url(#paint2_linear_1410_89369)"/>
<path d="M48.8765 31.3125H37.0635V39.2739H48.8765V31.3125Z" fill="url(#paint3_linear_1410_89369)"/>
<path d="M48.8765 30.4766H37.0635V31.6013H48.8765V30.4766Z" fill="#727477"/>
<path d="M48.8765 31.875H37.0635V32.1637H48.8765V31.875Z" fill="#727477"/>
<path d="M48.8765 32.4336H37.0635V32.7223H48.8765V32.4336Z" fill="#727477"/>
<path d="M48.8765 33H37.0635V33.2887H48.8765V33Z" fill="#727477"/>
<path d="M48.8765 33.5625H37.0635V33.8512H48.8765V33.5625Z" fill="#727477"/>
<path d="M48.8765 34.1211H37.0635V34.4098H48.8765V34.1211Z" fill="#727477"/>
<path d="M48.8765 34.6836H37.0635V34.9723H48.8765V34.6836Z" fill="#727477"/>
<path d="M48.8765 35.2461H37.0635V35.5348H48.8765V35.2461Z" fill="#727477"/>
<path d="M48.8765 35.8086H37.0635V36.0973H48.8765V35.8086Z" fill="#727477"/>
<path d="M48.8765 36.3711H37.0635V36.6598H48.8765V36.3711Z" fill="#727477"/>
<path d="M48.8765 36.9297H37.0635V37.2184H48.8765V36.9297Z" fill="#727477"/>
<path d="M32.0324 28.1797H25.5947V39.2707H32.0324V28.1797Z" fill="#F1F1F1"/>
<path d="M31.5398 28.6562H26.0859V39.2701H31.5398V28.6562Z" fill="url(#paint4_linear_1410_89369)"/>
<path d="M30.8055 29.6836H26.8223V30.666H30.8055V29.6836Z" fill="#869CA5"/>
<path d="M27.0234 29.8841H30.8055V29.6836H26.8223V30.668H27.0234V29.8841Z" fill="#6A7980"/>
<path d="M30.8055 31.1094H26.8223V32.0918H30.8055V31.1094Z" fill="#859CA5"/>
<path d="M27.0234 31.3099H30.8055V31.1094H26.8223V32.0918H27.0234V31.3099Z" fill="#6A7980"/>
<path d="M30.8055 32.5312H26.8223V33.5136H30.8055V32.5312Z" fill="#859CA5"/>
<path d="M27.0234 32.7317H30.8055V32.5312H26.8223V33.5157H27.0234V32.7317Z" fill="#6A7980"/>
<path d="M30.8046 33.957H26.8213V34.9394H30.8046V33.957Z" fill="#869CA5"/>
<path d="M27.0225 34.1575H30.8046V33.957H26.8213V34.9394H27.0225V34.1575Z" fill="#6A7980"/>
<path d="M14.4488 29.375H2.26562V36.769H14.4488V29.375Z" fill="#546E7A"/>
<path d="M14.4488 29.375H2.26562V36.769H14.4488V29.375Z" fill="#546E7A"/>
<path opacity="0.7" d="M11.0972 29.375H2.26562V36.769H2.70821C4.19289 35.508 9.04324 31.2015 11.0952 29.375H11.0972Z" fill="#78909C"/>
<mask id="mask0_1410_89369" style="mask-type:luminance" maskUnits="userSpaceOnUse" x="2" y="29" width="13" height="8">
<path d="M14.4498 29.375H2.2666V36.769H14.4498V29.375Z" fill="white"/>
</mask>
<g mask="url(#mask0_1410_89369)">
<g filter="url(#filter0_d_1410_89369)">
<path d="M14.4498 29.375H2.2666V36.769H14.4498V29.375Z" fill="url(#paint5_linear_1410_89369)" fill-opacity="0.1"/>
<path d="M14.4498 29.375H2.2666V36.769H14.4498V29.375Z" stroke="url(#paint6_linear_1410_89369)" stroke-width="0.402352" stroke-miterlimit="10"/>
</g>
</g>
<path d="M14.441 17.1445H2.25781V24.5639H14.441V17.1445Z" fill="#546E7A"/>
<path d="M14.441 17.1445H2.25781V24.5639H14.441V17.1445Z" fill="#546E7A"/>
<path opacity="0.7" d="M11.0894 17.1445H2.25781V24.5639H2.7004C4.18508 23.2985 9.03543 18.9772 11.0874 17.1445H11.0894Z" fill="#78909C"/>
<mask id="mask1_1410_89369" style="mask-type:luminance" maskUnits="userSpaceOnUse" x="2" y="17" width="13" height="8">
<path d="M14.441 17.1445H2.25781V24.5639H14.441V17.1445Z" fill="white"/>
</mask>
<g mask="url(#mask1_1410_89369)">
<g filter="url(#filter1_d_1410_89369)">
<path d="M14.441 17.1445H2.25781V24.5639H14.441V17.1445Z" fill="url(#paint7_linear_1410_89369)" fill-opacity="0.1"/>
<path d="M14.441 17.1445H2.25781V24.5639H14.441V17.1445Z" stroke="url(#paint8_linear_1410_89369)" stroke-width="0.402352" stroke-miterlimit="10"/>
</g>
</g>
<path d="M37.8746 17.1445H25.6914V24.5639H37.8746V17.1445Z" fill="#546E7A"/>
<path d="M37.8746 17.1445H25.6914V24.5639H37.8746V17.1445Z" fill="#546E7A"/>
<path opacity="0.7" d="M34.523 17.1445H25.6914V24.5639H26.134C27.6187 23.2985 32.469 18.9772 34.521 17.1445H34.523Z" fill="#78909C"/>
<mask id="mask2_1410_89369" style="mask-type:luminance" maskUnits="userSpaceOnUse" x="25" y="17" width="13" height="8">
<path d="M37.8746 17.1445H25.6914V24.5639H37.8746V17.1445Z" fill="white"/>
</mask>
<g mask="url(#mask2_1410_89369)">
<g filter="url(#filter2_d_1410_89369)">
<path d="M37.8746 17.1445H25.6914V24.5639H37.8746V17.1445Z" fill="url(#paint9_linear_1410_89369)" fill-opacity="0.1"/>
<path d="M37.8746 17.1445H25.6914V24.5639H37.8746V17.1445Z" stroke="url(#paint10_linear_1410_89369)" stroke-width="0.402352" stroke-miterlimit="10"/>
</g>
</g>
<path d="M39.3631 25.5039H0.769531V27.9562H39.3631V25.5039Z" fill="#F5F5F5"/>
<path d="M14.441 5.15625H2.25781V12.5756H14.441V5.15625Z" fill="#546E7A"/>
<path d="M14.441 5.15625H2.25781V12.5756H14.441V5.15625Z" fill="#546E7A"/>
<path opacity="0.7" d="M11.0894 5.15625H2.25781V12.5756H2.7004C4.18508 11.3102 9.03543 6.98896 11.0874 5.15625H11.0894Z" fill="#78909C"/>
<mask id="mask3_1410_89369" style="mask-type:luminance" maskUnits="userSpaceOnUse" x="2" y="5" width="13" height="8">
<path d="M14.441 5.15625H2.25781V12.5756H14.441V5.15625Z" fill="white"/>
</mask>
<g mask="url(#mask3_1410_89369)">
<g filter="url(#filter3_d_1410_89369)">
<path d="M14.441 5.15625H2.25781V12.5756H14.441V5.15625Z" fill="url(#paint11_linear_1410_89369)" fill-opacity="0.1"/>
<path d="M14.441 5.15625H2.25781V12.5756H14.441V5.15625Z" stroke="url(#paint12_linear_1410_89369)" stroke-width="0.402352" stroke-miterlimit="10"/>
</g>
</g>
<path d="M37.8746 5.15625H25.6914V12.5756H37.8746V5.15625Z" fill="#546E7A"/>
<path d="M37.8746 5.15625H25.6914V12.5756H37.8746V5.15625Z" fill="#546E7A"/>
<path opacity="0.7" d="M34.523 5.15625H25.6914V12.5756H26.134C27.6187 11.3102 32.469 6.98896 34.521 5.15625H34.523Z" fill="#78909C"/>
<mask id="mask4_1410_89369" style="mask-type:luminance" maskUnits="userSpaceOnUse" x="25" y="5" width="13" height="8">
<path d="M37.8746 5.15625H25.6914V12.5756H37.8746V5.15625Z" fill="white"/>
</mask>
<g mask="url(#mask4_1410_89369)">
<g filter="url(#filter4_d_1410_89369)">
<path d="M37.8746 5.15625H25.6914V12.5756H37.8746V5.15625Z" fill="url(#paint13_linear_1410_89369)" fill-opacity="0.1"/>
<path d="M37.8746 5.15625H25.6914V12.5756H37.8746V5.15625Z" stroke="url(#paint14_linear_1410_89369)" stroke-width="0.402352" stroke-miterlimit="10"/>
</g>
</g>
<path d="M39.3631 13.5117H0.769531V15.9641H39.3631V13.5117Z" fill="#F5F5F5"/>
<path d="M51.5709 38.5781H0.25293V39.9635H51.5709V38.5781Z" fill="#D1D3D4"/>
<path d="M24.1876 14.0938H15.9414V39.2732H24.1876V14.0938Z" fill="#ECEFF1"/>
<path d="M23.9062 1.08984H16.25V39.2404H23.9062V1.08984Z" fill="url(#paint15_linear_1410_89369)"/>
<path opacity="0.2" d="M23.9062 1.08984H16.25V4.35989H23.9062V1.08984Z" fill="url(#paint16_linear_1410_89369)"/>
<g style="mix-blend-mode:overlay" opacity="0.37">
<path d="M16.665 1.09375V39.2732" stroke="#CFD8DC" stroke-width="0.201176" stroke-miterlimit="10"/>
<path d="M17.2305 1.09375V39.2732" stroke="#CFD8DC" stroke-width="0.201176" stroke-miterlimit="10"/>
<path d="M17.7979 1.09375V39.2732" stroke="#CFD8DC" stroke-width="0.201176" stroke-miterlimit="10"/>
<path d="M18.3652 1.09375V39.2732" stroke="#CFD8DC" stroke-width="0.201176" stroke-miterlimit="10"/>
<path d="M18.9316 1.09375V39.2732" stroke="#CFD8DC" stroke-width="0.201176" stroke-miterlimit="10"/>
<path d="M19.5 1.09375V39.2732" stroke="#CFD8DC" stroke-width="0.201176" stroke-miterlimit="10"/>
<path d="M20.0664 1.09375V39.2732" stroke="#CFD8DC" stroke-width="0.201176" stroke-miterlimit="10"/>
<path d="M20.6338 1.09375V39.2732" stroke="#CFD8DC" stroke-width="0.201176" stroke-miterlimit="10"/>
<path d="M21.2012 1.09375V39.2732" stroke="#CFD8DC" stroke-width="0.201176" stroke-miterlimit="10"/>
<path d="M21.7666 1.09375V39.2732" stroke="#CFD8DC" stroke-width="0.201176" stroke-miterlimit="10"/>
<path d="M22.334 1.09375V39.2732" stroke="#CFD8DC" stroke-width="0.201176" stroke-miterlimit="10"/>
<path d="M22.9004 1.09375V39.2732" stroke="#CFD8DC" stroke-width="0.201176" stroke-miterlimit="10"/>
<path d="M23.4688 1.09375V39.2732" stroke="#CFD8DC" stroke-width="0.201176" stroke-miterlimit="10"/>
</g>
<path d="M24.5526 0.46875H15.5781V1.09428H24.5526V0.46875Z" fill="#F1F1F1"/>
<path d="M22.8119 6.59766H17.457V6.6916H22.8119V6.59766Z" fill="#727477"/>
<path d="M22.8119 5H17.457V6.59706H22.8119V5Z" fill="url(#paint17_linear_1410_89369)"/>
<path d="M22.8119 9.93359H17.457V10.0275H22.8119V9.93359Z" fill="#727477"/>
<path d="M22.8119 8.33594H17.457V9.933H22.8119V8.33594Z" fill="url(#paint18_linear_1410_89369)"/>
<path d="M22.8119 13.2695H17.457V13.3635H22.8119V13.2695Z" fill="#727477"/>
<path d="M22.8119 11.6719H17.457V13.2689H22.8119V11.6719Z" fill="url(#paint19_linear_1410_89369)"/>
<path d="M22.8119 16.6055H17.457V16.6994H22.8119V16.6055Z" fill="#727477"/>
<path d="M22.8119 15.0078H17.457V16.6049H22.8119V15.0078Z" fill="url(#paint20_linear_1410_89369)"/>
<path d="M22.8119 19.9453H17.457V20.0393H22.8119V19.9453Z" fill="#727477"/>
<path d="M22.8119 18.3477H17.457V19.9447H22.8119V18.3477Z" fill="url(#paint21_linear_1410_89369)"/>
<path d="M22.8119 23.2812H17.457V23.3752H22.8119V23.2812Z" fill="#727477"/>
<path d="M22.8119 21.6836H17.457V23.2807H22.8119V21.6836Z" fill="url(#paint22_linear_1410_89369)"/>
<path d="M22.8119 26.6172H17.457V26.7111H22.8119V26.6172Z" fill="#727477"/>
<path d="M22.8119 25.0195H17.457V26.6166H22.8119V25.0195Z" fill="url(#paint23_linear_1410_89369)"/>
<path d="M22.8119 29.9531H17.457V30.0471H22.8119V29.9531Z" fill="#727477"/>
<path d="M22.8119 28.3555H17.457V29.9525H22.8119V28.3555Z" fill="url(#paint24_linear_1410_89369)"/>
<path d="M22.8119 33.2891H17.457V33.383H22.8119V33.2891Z" fill="#727477"/>
<path d="M22.8119 31.6914H17.457V33.2885H22.8119V31.6914Z" fill="url(#paint25_linear_1410_89369)"/>
<path d="M22.8119 36.625H17.457V36.7189H22.8119V36.625Z" fill="#727477"/>
<path d="M22.8119 35.0273H17.457V36.6244H22.8119V35.0273Z" fill="url(#paint26_linear_1410_89369)"/>
<path d="M40.0817 2.64844H0.0517578V3.27396H40.0817V2.64844Z" fill="#F1F1F1"/>
<path d="M51.5625 27.0977H0.78125V27.8762H51.5625V27.0977Z" fill="url(#paint27_linear_1410_89369)"/>
<defs>
<filter id="filter0_d_1410_89369" x="2.06543" y="29.1719" width="12.7871" height="7.99805" filterUnits="userSpaceOnUse" color-interpolation-filters="sRGB">
<feFlood flood-opacity="0" result="BackgroundImageFix"/>
<feColorMatrix in="SourceAlpha" type="matrix" values="0 0 0 0 0 0 0 0 0 0 0 0 0 0 0 0 0 0 127 0" result="hardAlpha"/>
<feOffset dx="0.201176" dy="0.201176"/>
<feColorMatrix type="matrix" values="0 0 0 0 0.568627 0 0 0 0 0.654902 0 0 0 0 0.686275 0 0 0 0.75 0"/>
<feBlend mode="normal" in2="BackgroundImageFix" result="effect1_dropShadow_1410_89369"/>
<feBlend mode="normal" in="SourceGraphic" in2="effect1_dropShadow_1410_89369" result="shape"/>
</filter>
<filter id="filter1_d_1410_89369" x="2.05664" y="16.9414" width="12.7871" height="8.02539" filterUnits="userSpaceOnUse" color-interpolation-filters="sRGB">
<feFlood flood-opacity="0" result="BackgroundImageFix"/>
<feColorMatrix in="SourceAlpha" type="matrix" values="0 0 0 0 0 0 0 0 0 0 0 0 0 0 0 0 0 0 127 0" result="hardAlpha"/>
<feOffset dx="0.201176" dy="0.201176"/>
<feColorMatrix type="matrix" values="0 0 0 0 0.568627 0 0 0 0 0.654902 0 0 0 0 0.686275 0 0 0 0.75 0"/>
<feBlend mode="normal" in2="BackgroundImageFix" result="effect1_dropShadow_1410_89369"/>
<feBlend mode="normal" in="SourceGraphic" in2="effect1_dropShadow_1410_89369" result="shape"/>
</filter>
<filter id="filter2_d_1410_89369" x="25.4902" y="16.9414" width="12.7871" height="8.02539" filterUnits="userSpaceOnUse" color-interpolation-filters="sRGB">
<feFlood flood-opacity="0" result="BackgroundImageFix"/>
<feColorMatrix in="SourceAlpha" type="matrix" values="0 0 0 0 0 0 0 0 0 0 0 0 0 0 0 0 0 0 127 0" result="hardAlpha"/>
<feOffset dx="0.201176" dy="0.201176"/>
<feColorMatrix type="matrix" values="0 0 0 0 0.568627 0 0 0 0 0.654902 0 0 0 0 0.686275 0 0 0 0.75 0"/>
<feBlend mode="normal" in2="BackgroundImageFix" result="effect1_dropShadow_1410_89369"/>
<feBlend mode="normal" in="SourceGraphic" in2="effect1_dropShadow_1410_89369" result="shape"/>
</filter>
<filter id="filter3_d_1410_89369" x="2.05664" y="4.95312" width="12.7871" height="8.02539" filterUnits="userSpaceOnUse" color-interpolation-filters="sRGB">
<feFlood flood-opacity="0" result="BackgroundImageFix"/>
<feColorMatrix in="SourceAlpha" type="matrix" values="0 0 0 0 0 0 0 0 0 0 0 0 0 0 0 0 0 0 127 0" result="hardAlpha"/>
<feOffset dx="0.201176" dy="0.201176"/>
<feColorMatrix type="matrix" values="0 0 0 0 0.568627 0 0 0 0 0.654902 0 0 0 0 0.686275 0 0 0 0.75 0"/>
<feBlend mode="normal" in2="BackgroundImageFix" result="effect1_dropShadow_1410_89369"/>
<feBlend mode="normal" in="SourceGraphic" in2="effect1_dropShadow_1410_89369" result="shape"/>
</filter>
<filter id="filter4_d_1410_89369" x="25.4902" y="4.95312" width="12.7871" height="8.02539" filterUnits="userSpaceOnUse" color-interpolation-filters="sRGB">
<feFlood flood-opacity="0" result="BackgroundImageFix"/>
<feColorMatrix in="SourceAlpha" type="matrix" values="0 0 0 0 0 0 0 0 0 0 0 0 0 0 0 0 0 0 127 0" result="hardAlpha"/>
<feOffset dx="0.201176" dy="0.201176"/>
<feColorMatrix type="matrix" values="0 0 0 0 0.568627 0 0 0 0 0.654902 0 0 0 0 0.686275 0 0 0 0.75 0"/>
<feBlend mode="normal" in2="BackgroundImageFix" result="effect1_dropShadow_1410_89369"/>
<feBlend mode="normal" in="SourceGraphic" in2="effect1_dropShadow_1410_89369" result="shape"/>
</filter>
<linearGradient id="paint0_linear_1410_89369" x1="46.4578" y1="20.5294" x2="52.9288" y2="20.5061" gradientUnits="userSpaceOnUse">
<stop stop-color="#90A4AE"/>
<stop offset="0.729122" stop-color="#B0BEC5"/>
<stop offset="0.98" stop-color="#90A4AE" stop-opacity="0.64"/>
</linearGradient>
<linearGradient id="paint1_linear_1410_89369" x1="49.7461" y1="23.2627" x2="49.774" y2="31.3638" gradientUnits="userSpaceOnUse">
<stop stop-color="white"/>
<stop offset="1" stop-color="#424242" stop-opacity="0"/>
</linearGradient>
<linearGradient id="paint2_linear_1410_89369" x1="42.9782" y1="18.6098" x2="42.9716" y2="39.272" gradientUnits="userSpaceOnUse">
<stop stop-color="#BCBEC0"/>
<stop offset="1" stop-color="white"/>
</linearGradient>
<linearGradient id="paint3_linear_1410_89369" x1="40.079" y1="33.0766" x2="41.2453" y2="46.1847" gradientUnits="userSpaceOnUse">
<stop stop-color="#90A4AE"/>
<stop offset="0.5" stop-color="#B0BEC5"/>
<stop offset="0.98" stop-color="#90A4AE"/>
</linearGradient>
<linearGradient id="paint4_linear_1410_89369" x1="28.8151" y1="20.8364" x2="28.7998" y2="39.2701" gradientUnits="userSpaceOnUse">
<stop stop-color="#BCBEC0"/>
<stop offset="1" stop-color="white"/>
</linearGradient>
<linearGradient id="paint5_linear_1410_89369" x1="2.06543" y1="33.072" x2="14.653" y2="33.072" gradientUnits="userSpaceOnUse">
<stop stop-color="#90A4AE"/>
<stop offset="0.5" stop-color="#B0BEC5"/>
<stop offset="0.98" stop-color="#90A4AE"/>
</linearGradient>
<linearGradient id="paint6_linear_1410_89369" x1="2.06543" y1="33.072" x2="14.653" y2="33.072" gradientUnits="userSpaceOnUse">
<stop stop-color="#90A4AE"/>
<stop offset="0.5" stop-color="#B0BEC5"/>
<stop offset="0.98" stop-color="#90A4AE"/>
</linearGradient>
<linearGradient id="paint7_linear_1410_89369" x1="2.05664" y1="20.8542" x2="14.6442" y2="20.8542" gradientUnits="userSpaceOnUse">
<stop stop-color="#90A4AE"/>
<stop offset="0.5" stop-color="#B0BEC5"/>
<stop offset="0.98" stop-color="#90A4AE"/>
</linearGradient>
<linearGradient id="paint8_linear_1410_89369" x1="2.05664" y1="20.8542" x2="14.6442" y2="20.8542" gradientUnits="userSpaceOnUse">
<stop stop-color="#90A4AE"/>
<stop offset="0.5" stop-color="#B0BEC5"/>
<stop offset="0.98" stop-color="#90A4AE"/>
</linearGradient>
<linearGradient id="paint9_linear_1410_89369" x1="25.4902" y1="20.8542" x2="38.0778" y2="20.8542" gradientUnits="userSpaceOnUse">
<stop stop-color="#90A4AE"/>
<stop offset="0.5" stop-color="#B0BEC5"/>
<stop offset="0.98" stop-color="#90A4AE"/>
</linearGradient>
<linearGradient id="paint10_linear_1410_89369" x1="25.4902" y1="20.8542" x2="38.0778" y2="20.8542" gradientUnits="userSpaceOnUse">
<stop stop-color="#90A4AE"/>
<stop offset="0.5" stop-color="#B0BEC5"/>
<stop offset="0.98" stop-color="#90A4AE"/>
</linearGradient>
<linearGradient id="paint11_linear_1410_89369" x1="2.05664" y1="8.86593" x2="14.6442" y2="8.86593" gradientUnits="userSpaceOnUse">
<stop stop-color="#90A4AE"/>
<stop offset="0.5" stop-color="#B0BEC5"/>
<stop offset="0.98" stop-color="#90A4AE"/>
</linearGradient>
<linearGradient id="paint12_linear_1410_89369" x1="2.05664" y1="8.86593" x2="14.6442" y2="8.86593" gradientUnits="userSpaceOnUse">
<stop stop-color="#90A4AE"/>
<stop offset="0.5" stop-color="#B0BEC5"/>
<stop offset="0.98" stop-color="#90A4AE"/>
</linearGradient>
<linearGradient id="paint13_linear_1410_89369" x1="25.4902" y1="8.86593" x2="38.0778" y2="8.86593" gradientUnits="userSpaceOnUse">
<stop stop-color="#90A4AE"/>
<stop offset="0.5" stop-color="#B0BEC5"/>
<stop offset="0.98" stop-color="#90A4AE"/>
</linearGradient>
<linearGradient id="paint14_linear_1410_89369" x1="25.4902" y1="8.86593" x2="38.0778" y2="8.86593" gradientUnits="userSpaceOnUse">
<stop stop-color="#90A4AE"/>
<stop offset="0.5" stop-color="#B0BEC5"/>
<stop offset="0.98" stop-color="#90A4AE"/>
</linearGradient>
<linearGradient id="paint15_linear_1410_89369" x1="20.844" y1="49.4188" x2="21.1063" y2="2.73029" gradientUnits="userSpaceOnUse">
<stop stop-color="white"/>
<stop offset="1" stop-color="#E6E7E8"/>
</linearGradient>
<linearGradient id="paint16_linear_1410_89369" x1="-1.47782" y1="5.10657" x2="-1.31073" y2="1.09285" gradientUnits="userSpaceOnUse">
<stop stop-color="#CFD8DC" stop-opacity="0"/>
<stop offset="0.15" stop-color="#B8C4CA" stop-opacity="0.18"/>
<stop offset="0.54" stop-color="#82969F" stop-opacity="0.62"/>
<stop offset="0.84" stop-color="#607884" stop-opacity="0.9"/>
<stop offset="1" stop-color="#546E7A"/>
</linearGradient>
<linearGradient id="paint17_linear_1410_89369" x1="17.3686" y1="5.79853" x2="22.9012" y2="5.79853" gradientUnits="userSpaceOnUse">
<stop stop-color="#90A4AE"/>
<stop offset="0.5" stop-color="#B0BEC5"/>
<stop offset="0.98" stop-color="#90A4AE"/>
</linearGradient>
<linearGradient id="paint18_linear_1410_89369" x1="17.3686" y1="9.13447" x2="22.9012" y2="9.13447" gradientUnits="userSpaceOnUse">
<stop stop-color="#90A4AE"/>
<stop offset="0.5" stop-color="#B0BEC5"/>
<stop offset="0.98" stop-color="#90A4AE"/>
</linearGradient>
<linearGradient id="paint19_linear_1410_89369" x1="17.3686" y1="12.4704" x2="22.9012" y2="12.4704" gradientUnits="userSpaceOnUse">
<stop stop-color="#90A4AE"/>
<stop offset="0.5" stop-color="#B0BEC5"/>
<stop offset="0.98" stop-color="#90A4AE"/>
</linearGradient>
<linearGradient id="paint20_linear_1410_89369" x1="17.3686" y1="15.8063" x2="22.9012" y2="15.8063" gradientUnits="userSpaceOnUse">
<stop stop-color="#90A4AE"/>
<stop offset="0.5" stop-color="#B0BEC5"/>
<stop offset="0.98" stop-color="#90A4AE"/>
</linearGradient>
<linearGradient id="paint21_linear_1410_89369" x1="17.3686" y1="19.1462" x2="22.9012" y2="19.1462" gradientUnits="userSpaceOnUse">
<stop stop-color="#90A4AE"/>
<stop offset="0.5" stop-color="#B0BEC5"/>
<stop offset="0.98" stop-color="#90A4AE"/>
</linearGradient>
<linearGradient id="paint22_linear_1410_89369" x1="17.3686" y1="22.4821" x2="22.9012" y2="22.4821" gradientUnits="userSpaceOnUse">
<stop stop-color="#90A4AE"/>
<stop offset="0.5" stop-color="#B0BEC5"/>
<stop offset="0.98" stop-color="#90A4AE"/>
</linearGradient>
<linearGradient id="paint23_linear_1410_89369" x1="17.3686" y1="25.8181" x2="22.9012" y2="25.8181" gradientUnits="userSpaceOnUse">
<stop stop-color="#90A4AE"/>
<stop offset="0.5" stop-color="#B0BEC5"/>
<stop offset="0.98" stop-color="#90A4AE"/>
</linearGradient>
<linearGradient id="paint24_linear_1410_89369" x1="17.3686" y1="29.154" x2="22.9012" y2="29.154" gradientUnits="userSpaceOnUse">
<stop stop-color="#90A4AE"/>
<stop offset="0.5" stop-color="#B0BEC5"/>
<stop offset="0.98" stop-color="#90A4AE"/>
</linearGradient>
<linearGradient id="paint25_linear_1410_89369" x1="17.3686" y1="32.4899" x2="22.9012" y2="32.4899" gradientUnits="userSpaceOnUse">
<stop stop-color="#90A4AE"/>
<stop offset="0.5" stop-color="#B0BEC5"/>
<stop offset="0.98" stop-color="#90A4AE"/>
</linearGradient>
<linearGradient id="paint26_linear_1410_89369" x1="17.3686" y1="35.8259" x2="22.9012" y2="35.8259" gradientUnits="userSpaceOnUse">
<stop stop-color="#90A4AE"/>
<stop offset="0.5" stop-color="#B0BEC5"/>
<stop offset="0.98" stop-color="#90A4AE"/>
</linearGradient>
<linearGradient id="paint27_linear_1410_89369" x1="30.0781" y1="29.2777" x2="30.0703" y2="27.1389" gradientUnits="userSpaceOnUse">
<stop stop-color="white"/>
<stop offset="1" stop-color="#E6E7E8"/>
</linearGradient>
</defs>
</svg>
