<svg width="169" height="68" viewBox="0 0 169 68" fill="none" xmlns="http://www.w3.org/2000/svg">
<g filter="url(#filter0_d_1410_90224)">
<mask id="mask0_1410_90224" style="mask-type:alpha" maskUnits="userSpaceOnUse" x="2" y="1" width="165" height="64">
<rect x="2.75" y="1" width="163.75" height="64" rx="8" fill="white"/>
<rect x="3.25" y="1.5" width="162.75" height="63" rx="7.5" stroke="#E5E5E5" stroke-opacity="0.6"/>
</mask>
<g mask="url(#mask0_1410_90224)">
<g filter="url(#filter1_d_1410_90224)">
<rect x="2.75" y="1" width="163.75" height="64" rx="8" fill="white"/>
<rect x="3.25" y="1.5" width="162.75" height="63" rx="7.5" stroke="#E5E5E5" stroke-opacity="0.6"/>
</g>
<path d="M15.662 29.5V20.62H17.522L19.934 25.672L22.382 20.62H24.218V29.5H22.838V22.708L20.594 27.292H19.286L17.042 22.684V29.5H15.662ZM28.6494 23.02C29.0494 23.02 29.3814 23.084 29.6454 23.212C29.9174 23.34 30.1334 23.488 30.2934 23.656C30.4534 23.824 30.5694 23.968 30.6414 24.088H30.7134V23.14H32.0814V29.5H30.7134V28.552H30.6414C30.5694 28.672 30.4534 28.816 30.2934 28.984C30.1334 29.152 29.9174 29.3 29.6454 29.428C29.3814 29.556 29.0494 29.62 28.6494 29.62C28.1694 29.62 27.7494 29.528 27.3894 29.344C27.0374 29.152 26.7414 28.9 26.5014 28.588C26.2614 28.268 26.0814 27.912 25.9614 27.52C25.8494 27.128 25.7934 26.728 25.7934 26.32C25.7934 25.912 25.8494 25.512 25.9614 25.12C26.0814 24.728 26.2614 24.376 26.5014 24.064C26.7414 23.744 27.0374 23.492 27.3894 23.308C27.7494 23.116 28.1694 23.02 28.6494 23.02ZM28.9494 24.16C28.5574 24.16 28.2294 24.268 27.9654 24.484C27.7014 24.692 27.5014 24.96 27.3654 25.288C27.2374 25.616 27.1734 25.96 27.1734 26.32C27.1734 26.68 27.2374 27.024 27.3654 27.352C27.5014 27.68 27.7014 27.952 27.9654 28.168C28.2294 28.376 28.5574 28.48 28.9494 28.48C29.3414 28.48 29.6654 28.376 29.9214 28.168C30.1854 27.952 30.3814 27.68 30.5094 27.352C30.6454 27.024 30.7134 26.68 30.7134 26.32C30.7134 25.96 30.6454 25.616 30.5094 25.288C30.3814 24.96 30.1854 24.692 29.9214 24.484C29.6654 24.268 29.3414 24.16 28.9494 24.16ZM34.5346 22.048C34.2866 22.048 34.0826 21.964 33.9226 21.796C33.7626 21.628 33.6826 21.432 33.6826 21.208C33.6826 20.976 33.7626 20.78 33.9226 20.62C34.0826 20.452 34.2866 20.368 34.5346 20.368C34.7826 20.368 34.9866 20.452 35.1466 20.62C35.3146 20.78 35.3986 20.976 35.3986 21.208C35.3986 21.44 35.3146 21.64 35.1466 21.808C34.9866 21.968 34.7826 22.048 34.5346 22.048ZM33.8626 29.5V23.14H35.2306V29.5H33.8626ZM36.9873 29.5V23.14H38.3553V24.064H38.4273C38.4833 23.952 38.5793 23.816 38.7153 23.656C38.8513 23.488 39.0393 23.34 39.2793 23.212C39.5273 23.084 39.8393 23.02 40.2153 23.02C40.6873 23.02 41.0833 23.128 41.4033 23.344C41.7233 23.56 41.9633 23.848 42.1233 24.208C42.2913 24.568 42.3753 24.964 42.3753 25.396V29.5H41.0073V25.54C41.0073 25.156 40.8993 24.832 40.6833 24.568C40.4753 24.304 40.1633 24.172 39.7473 24.172C39.4193 24.172 39.1513 24.256 38.9433 24.424C38.7433 24.584 38.5953 24.796 38.4993 25.06C38.4033 25.316 38.3553 25.592 38.3553 25.888V29.5H36.9873ZM46.8456 29.5V20.62H48.2496V28.276H52.7376V29.5H46.8456ZM55.1362 22.048C54.8882 22.048 54.6842 21.964 54.5242 21.796C54.3642 21.628 54.2842 21.432 54.2842 21.208C54.2842 20.976 54.3642 20.78 54.5242 20.62C54.6842 20.452 54.8882 20.368 55.1362 20.368C55.3842 20.368 55.5882 20.452 55.7482 20.62C55.9162 20.78 56.0002 20.976 56.0002 21.208C56.0002 21.44 55.9162 21.64 55.7482 21.808C55.5882 21.968 55.3842 22.048 55.1362 22.048ZM54.4642 29.5V23.14H55.8322V29.5H54.4642ZM60.7209 32.032C60.1689 32.032 59.7129 31.96 59.3529 31.816C58.9929 31.672 58.7049 31.492 58.4889 31.276C58.2729 31.068 58.1129 30.856 58.0089 30.64C57.9049 30.432 57.8369 30.256 57.8049 30.112C57.7729 29.968 57.7569 29.896 57.7569 29.896H59.1129C59.1129 29.896 59.1289 29.944 59.1609 30.04C59.1929 30.144 59.2609 30.26 59.3649 30.388C59.4769 30.524 59.6409 30.64 59.8569 30.736C60.0729 30.84 60.3569 30.892 60.7089 30.892C61.1249 30.892 61.4569 30.808 61.7049 30.64C61.9609 30.48 62.1409 30.264 62.2449 29.992C62.3569 29.728 62.4129 29.44 62.4129 29.128V28.408H62.3529C62.2649 28.544 62.1369 28.696 61.9689 28.864C61.8089 29.024 61.5929 29.164 61.3209 29.284C61.0489 29.404 60.7209 29.464 60.3369 29.464C59.8569 29.464 59.4369 29.372 59.0769 29.188C58.7249 29.004 58.4289 28.76 58.1889 28.456C57.9569 28.144 57.7809 27.796 57.6609 27.412C57.5409 27.028 57.4809 26.636 57.4809 26.236C57.4809 25.836 57.5409 25.448 57.6609 25.072C57.7809 24.688 57.9569 24.344 58.1889 24.04C58.4289 23.728 58.7249 23.48 59.0769 23.296C59.4369 23.112 59.8569 23.02 60.3369 23.02C60.7209 23.02 61.0489 23.08 61.3209 23.2C61.5929 23.312 61.8129 23.452 61.9809 23.62C62.1489 23.78 62.2729 23.932 62.3529 24.076H62.4129V23.14H63.7809V29.116C63.7809 29.684 63.6649 30.188 63.4329 30.628C63.2009 31.068 62.8569 31.412 62.4009 31.66C61.9449 31.908 61.3849 32.032 60.7209 32.032ZM60.6489 28.336C61.0409 28.336 61.3689 28.236 61.6329 28.036C61.8969 27.828 62.0929 27.564 62.2209 27.244C62.3489 26.924 62.4129 26.588 62.4129 26.236C62.4129 25.884 62.3489 25.548 62.2209 25.228C62.0929 24.908 61.8969 24.648 61.6329 24.448C61.3689 24.248 61.0409 24.148 60.6489 24.148C60.2489 24.148 59.9169 24.248 59.6529 24.448C59.3889 24.648 59.1929 24.908 59.0649 25.228C58.9369 25.548 58.8729 25.884 58.8729 26.236C58.8729 26.588 58.9369 26.924 59.0649 27.244C59.1929 27.564 59.3889 27.828 59.6529 28.036C59.9169 28.236 60.2489 28.336 60.6489 28.336ZM65.4901 29.5V20.38H66.8581V24.064H66.9301C66.9861 23.952 67.0821 23.816 67.2181 23.656C67.3541 23.488 67.5421 23.34 67.7821 23.212C68.0301 23.084 68.3421 23.02 68.7181 23.02C69.1901 23.02 69.5861 23.128 69.9061 23.344C70.2261 23.56 70.4661 23.848 70.6261 24.208C70.7941 24.568 70.8781 24.964 70.8781 25.396V29.5H69.5101V25.54C69.5101 25.156 69.4021 24.832 69.1861 24.568C68.9781 24.304 68.6661 24.172 68.2501 24.172C67.9221 24.172 67.6541 24.256 67.4461 24.424C67.2461 24.584 67.0981 24.796 67.0021 25.06C66.9061 25.316 66.8581 25.592 66.8581 25.888V29.5H65.4901ZM75.0565 29.62C74.5525 29.62 74.1485 29.528 73.8445 29.344C73.5405 29.16 73.3205 28.916 73.1845 28.612C73.0565 28.3 72.9925 27.964 72.9925 27.604V24.244H71.8765V23.14H72.9925V21.556H74.3605V23.14H75.8485V24.244H74.3605V27.58C74.3605 28.18 74.6925 28.48 75.3565 28.48C75.5245 28.48 75.6805 28.468 75.8245 28.444C75.9685 28.42 76.0405 28.408 76.0405 28.408V29.524C76.0405 29.524 75.9405 29.54 75.7405 29.572C75.5485 29.604 75.3205 29.62 75.0565 29.62Z" fill="#11271D"/>
<path opacity="0.6" d="M15.58 46.5V39.1H18.16C18.7067 39.1 19.1633 39.2167 19.53 39.45C19.8967 39.6767 20.17 39.97 20.35 40.33C20.5367 40.69 20.63 41.0633 20.63 41.45C20.63 41.85 20.5367 42.23 20.35 42.59C20.17 42.95 19.8967 43.2467 19.53 43.48C19.1633 43.7067 18.7067 43.82 18.16 43.82H16.35V46.5H15.58ZM18.16 39.79H16.35V43.13H18.16C18.54 43.13 18.8567 43.05 19.11 42.89C19.3633 42.73 19.5533 42.5233 19.68 42.27C19.8067 42.01 19.87 41.74 19.87 41.46C19.87 41.18 19.8067 40.9133 19.68 40.66C19.5533 40.4 19.3633 40.19 19.11 40.03C18.8567 39.87 18.54 39.79 18.16 39.79ZM21.8886 46.5V38.9H22.6386V42.08H22.6886C22.7353 41.98 22.8186 41.8533 22.9386 41.7C23.0586 41.54 23.2253 41.4 23.4386 41.28C23.6586 41.16 23.9319 41.1 24.2586 41.1C24.6453 41.1 24.9753 41.19 25.2486 41.37C25.5219 41.55 25.7319 41.7933 25.8786 42.1C26.0253 42.4067 26.0986 42.7533 26.0986 43.14V46.5H25.3486V43.18C25.3486 42.7733 25.2386 42.4367 25.0186 42.17C24.8053 41.8967 24.4919 41.76 24.0786 41.76C23.7386 41.76 23.4619 41.8467 23.2486 42.02C23.0419 42.1933 22.8886 42.4167 22.7886 42.69C22.6886 42.9633 22.6386 43.2433 22.6386 43.53V46.5H21.8886ZM28.0896 40.18C27.9363 40.18 27.8096 40.1267 27.7096 40.02C27.6096 39.9133 27.5596 39.79 27.5596 39.65C27.5596 39.5033 27.6096 39.38 27.7096 39.28C27.8096 39.1733 27.9363 39.12 28.0896 39.12C28.2363 39.12 28.3596 39.1733 28.4596 39.28C28.5663 39.38 28.6196 39.5033 28.6196 39.65C28.6196 39.7967 28.5663 39.9233 28.4596 40.03C28.3596 40.13 28.2363 40.18 28.0896 40.18ZM27.7196 46.5V41.2H28.4696V46.5H27.7196ZM30.1601 46.5L30.1701 38.9H30.9101V46.5H30.1601ZM32.582 46.5L32.592 38.9H33.332V46.5H32.582ZM35.4138 40.18C35.2605 40.18 35.1338 40.1267 35.0338 40.02C34.9338 39.9133 34.8838 39.79 34.8838 39.65C34.8838 39.5033 34.9338 39.38 35.0338 39.28C35.1338 39.1733 35.2605 39.12 35.4138 39.12C35.5605 39.12 35.6838 39.1733 35.7838 39.28C35.8905 39.38 35.9438 39.5033 35.9438 39.65C35.9438 39.7967 35.8905 39.9233 35.7838 40.03C35.6838 40.13 35.5605 40.18 35.4138 40.18ZM35.0438 46.5V41.2H35.7938V46.5H35.0438ZM37.4843 48.46V41.2H38.2343V42.15H38.2843C38.3576 42.0233 38.4643 41.88 38.6043 41.72C38.751 41.5533 38.9443 41.41 39.1843 41.29C39.4243 41.1633 39.7276 41.1 40.0943 41.1C40.4943 41.1 40.8443 41.18 41.1443 41.34C41.4443 41.4933 41.691 41.7033 41.8843 41.97C42.0843 42.23 42.2343 42.5233 42.3343 42.85C42.4343 43.1767 42.4843 43.51 42.4843 43.85C42.4843 44.19 42.4343 44.5233 42.3343 44.85C42.2343 45.1767 42.0843 45.4733 41.8843 45.74C41.691 46 41.4443 46.21 41.1443 46.37C40.8443 46.5233 40.4943 46.6 40.0943 46.6C39.7276 46.6 39.4243 46.54 39.1843 46.42C38.9443 46.2933 38.751 46.1467 38.6043 45.98C38.4643 45.8133 38.3576 45.67 38.2843 45.55H38.2343V48.46H37.4843ZM38.2443 43.85C38.2443 44.1967 38.3076 44.53 38.4343 44.85C38.561 45.17 38.7543 45.4333 39.0143 45.64C39.2743 45.8467 39.5976 45.95 39.9843 45.95C40.3776 45.95 40.701 45.8467 40.9543 45.64C41.2143 45.4333 41.4076 45.17 41.5343 44.85C41.6676 44.53 41.7343 44.1967 41.7343 43.85C41.7343 43.5033 41.6676 43.17 41.5343 42.85C41.4076 42.53 41.2143 42.2667 40.9543 42.06C40.701 41.8533 40.3776 41.75 39.9843 41.75C39.5976 41.75 39.2743 41.8533 39.0143 42.06C38.7543 42.2667 38.561 42.53 38.4343 42.85C38.3076 43.17 38.2443 43.5033 38.2443 43.85ZM45.6596 46.6C45.2596 46.6 44.9296 46.5433 44.6696 46.43C44.4163 46.3167 44.2129 46.1767 44.0596 46.01C43.9129 45.8433 43.8063 45.6767 43.7396 45.51C43.6729 45.3433 43.6296 45.2033 43.6096 45.09C43.5896 44.9767 43.5796 44.92 43.5796 44.92H44.3496C44.3496 44.92 44.3596 44.9733 44.3796 45.08C44.3996 45.18 44.4496 45.3 44.5296 45.44C44.6163 45.5733 44.7496 45.6933 44.9296 45.8C45.1096 45.9 45.3563 45.95 45.6696 45.95C46.0096 45.95 46.2796 45.8633 46.4796 45.69C46.6796 45.5167 46.7796 45.3033 46.7796 45.05C46.7796 44.81 46.6963 44.6233 46.5296 44.49C46.3696 44.3567 46.1529 44.26 45.8796 44.2L45.1796 44.04C44.9129 43.9733 44.6696 43.8833 44.4496 43.77C44.2296 43.6567 44.0529 43.5067 43.9196 43.32C43.7863 43.1267 43.7196 42.89 43.7196 42.61C43.7196 42.1633 43.8829 41.8 44.2096 41.52C44.5363 41.24 44.9629 41.1 45.4896 41.1C45.8429 41.1 46.1329 41.1533 46.3596 41.26C46.5929 41.36 46.7763 41.4867 46.9096 41.64C47.0496 41.7933 47.1496 41.9467 47.2096 42.1C47.2763 42.2467 47.3196 42.3733 47.3396 42.48C47.3596 42.58 47.3696 42.63 47.3696 42.63H46.6396C46.6396 42.63 46.6263 42.5867 46.5996 42.5C46.5796 42.4067 46.5329 42.3033 46.4596 42.19C46.3929 42.07 46.2796 41.9667 46.1196 41.88C45.9663 41.7867 45.7563 41.74 45.4896 41.74C45.1429 41.74 44.8829 41.8233 44.7096 41.99C44.5429 42.1567 44.4596 42.3467 44.4596 42.56C44.4596 42.7667 44.5329 42.93 44.6796 43.05C44.8329 43.17 45.0396 43.26 45.2996 43.32L46.0096 43.49C46.4563 43.5967 46.8196 43.7733 47.0996 44.02C47.3796 44.26 47.5196 44.5933 47.5196 45.02C47.5196 45.3067 47.4429 45.57 47.2896 45.81C47.1429 46.05 46.9296 46.2433 46.6496 46.39C46.3763 46.53 46.0463 46.6 45.6596 46.6Z" fill="#11271D"/>
<g opacity="0.6">
<path d="M125.75 33.5H127.083M137.75 21.5V22.8333M148.417 33.5H149.75M129.217 24.9667L130.15 25.9M146.283 24.9667L145.35 25.9M134.683 40.1667H140.817M133.75 38.8333C132.631 37.9938 131.804 36.8234 131.387 35.4878C130.969 34.1522 130.983 32.7192 131.425 31.3918C131.868 30.0644 132.717 28.9099 133.852 28.0917C134.987 27.2736 136.351 26.8333 137.75 26.8333C139.149 26.8333 140.513 27.2736 141.648 28.0917C142.783 28.9099 143.632 30.0644 144.075 31.3918C144.517 32.7192 144.531 34.1522 144.113 35.4878C143.696 36.8234 142.869 37.9938 141.75 38.8333C141.229 39.3486 140.837 39.9793 140.606 40.6742C140.374 41.3691 140.309 42.1087 140.417 42.8333C140.417 43.5406 140.136 44.2189 139.636 44.719C139.136 45.219 138.457 45.5 137.75 45.5C137.043 45.5 136.364 45.219 135.864 44.719C135.364 44.2189 135.083 43.5406 135.083 42.8333C135.191 42.1087 135.126 41.3691 134.894 40.6742C134.663 39.9793 134.271 39.3486 133.75 38.8333Z" stroke="#C39C67" stroke-width="3" stroke-linecap="round" stroke-linejoin="round"/>
</g>
</g>
</g>
<defs>
<filter id="filter0_d_1410_90224" x="0.75" y="0" width="167.75" height="68" filterUnits="userSpaceOnUse" color-interpolation-filters="sRGB">
<feFlood flood-opacity="0" result="BackgroundImageFix"/>
<feColorMatrix in="SourceAlpha" type="matrix" values="0 0 0 0 0 0 0 0 0 0 0 0 0 0 0 0 0 0 127 0" result="hardAlpha"/>
<feOffset dy="1"/>
<feGaussianBlur stdDeviation="1"/>
<feComposite in2="hardAlpha" operator="out"/>
<feColorMatrix type="matrix" values="0 0 0 0 0 0 0 0 0 0 0 0 0 0 0 0 0 0 0.03 0"/>
<feBlend mode="normal" in2="BackgroundImageFix" result="effect1_dropShadow_1410_90224"/>
<feBlend mode="normal" in="SourceGraphic" in2="effect1_dropShadow_1410_90224" result="shape"/>
</filter>
<filter id="filter1_d_1410_90224" x="1.75" y="1" width="165.75" height="66" filterUnits="userSpaceOnUse" color-interpolation-filters="sRGB">
<feFlood flood-opacity="0" result="BackgroundImageFix"/>
<feColorMatrix in="SourceAlpha" type="matrix" values="0 0 0 0 0 0 0 0 0 0 0 0 0 0 0 0 0 0 127 0" result="hardAlpha"/>
<feOffset dy="1"/>
<feGaussianBlur stdDeviation="0.5"/>
<feComposite in2="hardAlpha" operator="out"/>
<feColorMatrix type="matrix" values="0 0 0 0 0 0 0 0 0 0 0 0 0 0 0 0 0 0 0.1 0"/>
<feBlend mode="normal" in2="BackgroundImageFix" result="effect1_dropShadow_1410_90224"/>
<feBlend mode="normal" in="SourceGraphic" in2="effect1_dropShadow_1410_90224" result="shape"/>
</filter>
</defs>
</svg>
