<svg width="168" height="68" viewBox="0 0 168 68" fill="none" xmlns="http://www.w3.org/2000/svg">
<g filter="url(#filter0_d_1410_90210)">
<mask id="mask0_1410_90210" style="mask-type:alpha" maskUnits="userSpaceOnUse" x="2" y="1" width="164" height="64">
<rect x="2" y="1" width="163.75" height="64" rx="8" fill="white"/>
<rect x="2.5" y="1.5" width="162.75" height="63" rx="7.5" stroke="#E5E5E5" stroke-opacity="0.6"/>
</mask>
<g mask="url(#mask0_1410_90210)">
<g filter="url(#filter1_d_1410_90210)">
<rect x="2" y="1" width="163.75" height="64" rx="8" fill="white"/>
<rect x="2.5" y="1.5" width="162.75" height="63" rx="7.5" stroke="#E5E5E5" stroke-opacity="0.6"/>
</g>
<path d="M14.912 29.5V20.62H20.888V21.844H16.316V24.568H20.336V25.78H16.316V29.5H14.912ZM24.5595 23.02C24.9595 23.02 25.2915 23.084 25.5555 23.212C25.8275 23.34 26.0435 23.488 26.2035 23.656C26.3635 23.824 26.4795 23.968 26.5515 24.088H26.6235V23.14H27.9915V29.5H26.6235V28.552H26.5515C26.4795 28.672 26.3635 28.816 26.2035 28.984C26.0435 29.152 25.8275 29.3 25.5555 29.428C25.2915 29.556 24.9595 29.62 24.5595 29.62C24.0795 29.62 23.6595 29.528 23.2995 29.344C22.9475 29.152 22.6515 28.9 22.4115 28.588C22.1715 28.268 21.9915 27.912 21.8715 27.52C21.7595 27.128 21.7035 26.728 21.7035 26.32C21.7035 25.912 21.7595 25.512 21.8715 25.12C21.9915 24.728 22.1715 24.376 22.4115 24.064C22.6515 23.744 22.9475 23.492 23.2995 23.308C23.6595 23.116 24.0795 23.02 24.5595 23.02ZM24.8595 24.16C24.4675 24.16 24.1395 24.268 23.8755 24.484C23.6115 24.692 23.4115 24.96 23.2755 25.288C23.1475 25.616 23.0835 25.96 23.0835 26.32C23.0835 26.68 23.1475 27.024 23.2755 27.352C23.4115 27.68 23.6115 27.952 23.8755 28.168C24.1395 28.376 24.4675 28.48 24.8595 28.48C25.2515 28.48 25.5755 28.376 25.8315 28.168C26.0955 27.952 26.2915 27.68 26.4195 27.352C26.5555 27.024 26.6235 26.68 26.6235 26.32C26.6235 25.96 26.5555 25.616 26.4195 25.288C26.2915 24.96 26.0955 24.692 25.8315 24.484C25.5755 24.268 25.2515 24.16 24.8595 24.16ZM29.5928 29.5V23.14H30.9608V24.064H31.0328C31.0888 23.952 31.1848 23.816 31.3208 23.656C31.4568 23.488 31.6448 23.34 31.8848 23.212C32.1328 23.084 32.4448 23.02 32.8208 23.02C33.2928 23.02 33.6888 23.128 34.0088 23.344C34.3288 23.56 34.5688 23.848 34.7288 24.208C34.8968 24.568 34.9808 24.964 34.9808 25.396V29.5H33.6128V25.54C33.6128 25.156 33.5048 24.832 33.2888 24.568C33.0808 24.304 32.7688 24.172 32.3528 24.172C32.0248 24.172 31.7568 24.256 31.5488 24.424C31.3488 24.584 31.2008 24.796 31.1048 25.06C31.0088 25.316 30.9608 25.592 30.9608 25.888V29.5H29.5928ZM42.0911 20.62V29.5H40.7111V22.792L39.0311 22.804V21.976L39.3191 21.892C39.7671 21.756 40.1271 21.604 40.3991 21.436C40.6791 21.268 40.9431 21.036 41.1911 20.74L41.2991 20.62H42.0911Z" fill="#11271D"/>
<path opacity="0.6" d="M14.83 46.5V39.1H17.41C17.9567 39.1 18.4133 39.2167 18.78 39.45C19.1467 39.6767 19.42 39.97 19.6 40.33C19.7867 40.69 19.88 41.0633 19.88 41.45C19.88 41.85 19.7867 42.23 19.6 42.59C19.42 42.95 19.1467 43.2467 18.78 43.48C18.4133 43.7067 17.9567 43.82 17.41 43.82H15.6V46.5H14.83ZM17.41 39.79H15.6V43.13H17.41C17.79 43.13 18.1067 43.05 18.36 42.89C18.6133 42.73 18.8033 42.5233 18.93 42.27C19.0567 42.01 19.12 41.74 19.12 41.46C19.12 41.18 19.0567 40.9133 18.93 40.66C18.8033 40.4 18.6133 40.19 18.36 40.03C18.1067 39.87 17.79 39.79 17.41 39.79ZM21.1386 46.5V38.9H21.8886V42.08H21.9386C21.9853 41.98 22.0686 41.8533 22.1886 41.7C22.3086 41.54 22.4753 41.4 22.6886 41.28C22.9086 41.16 23.1819 41.1 23.5086 41.1C23.8953 41.1 24.2253 41.19 24.4986 41.37C24.7719 41.55 24.9819 41.7933 25.1286 42.1C25.2753 42.4067 25.3486 42.7533 25.3486 43.14V46.5H24.5986V43.18C24.5986 42.7733 24.4886 42.4367 24.2686 42.17C24.0553 41.8967 23.7419 41.76 23.3286 41.76C22.9886 41.76 22.7119 41.8467 22.4986 42.02C22.2919 42.1933 22.1386 42.4167 22.0386 42.69C21.9386 42.9633 21.8886 43.2433 21.8886 43.53V46.5H21.1386ZM27.3396 40.18C27.1863 40.18 27.0596 40.1267 26.9596 40.02C26.8596 39.9133 26.8096 39.79 26.8096 39.65C26.8096 39.5033 26.8596 39.38 26.9596 39.28C27.0596 39.1733 27.1863 39.12 27.3396 39.12C27.4863 39.12 27.6096 39.1733 27.7096 39.28C27.8163 39.38 27.8696 39.5033 27.8696 39.65C27.8696 39.7967 27.8163 39.9233 27.7096 40.03C27.6096 40.13 27.4863 40.18 27.3396 40.18ZM26.9696 46.5V41.2H27.7196V46.5H26.9696ZM29.4101 46.5L29.4201 38.9H30.1601V46.5H29.4101ZM31.832 46.5L31.842 38.9H32.582V46.5H31.832ZM34.6638 40.18C34.5105 40.18 34.3838 40.1267 34.2838 40.02C34.1838 39.9133 34.1338 39.79 34.1338 39.65C34.1338 39.5033 34.1838 39.38 34.2838 39.28C34.3838 39.1733 34.5105 39.12 34.6638 39.12C34.8105 39.12 34.9338 39.1733 35.0338 39.28C35.1405 39.38 35.1938 39.5033 35.1938 39.65C35.1938 39.7967 35.1405 39.9233 35.0338 40.03C34.9338 40.13 34.8105 40.18 34.6638 40.18ZM34.2938 46.5V41.2H35.0438V46.5H34.2938ZM36.7343 48.46V41.2H37.4843V42.15H37.5343C37.6076 42.0233 37.7143 41.88 37.8543 41.72C38.001 41.5533 38.1943 41.41 38.4343 41.29C38.6743 41.1633 38.9776 41.1 39.3443 41.1C39.7443 41.1 40.0943 41.18 40.3943 41.34C40.6943 41.4933 40.941 41.7033 41.1343 41.97C41.3343 42.23 41.4843 42.5233 41.5843 42.85C41.6843 43.1767 41.7343 43.51 41.7343 43.85C41.7343 44.19 41.6843 44.5233 41.5843 44.85C41.4843 45.1767 41.3343 45.4733 41.1343 45.74C40.941 46 40.6943 46.21 40.3943 46.37C40.0943 46.5233 39.7443 46.6 39.3443 46.6C38.9776 46.6 38.6743 46.54 38.4343 46.42C38.1943 46.2933 38.001 46.1467 37.8543 45.98C37.7143 45.8133 37.6076 45.67 37.5343 45.55H37.4843V48.46H36.7343ZM37.4943 43.85C37.4943 44.1967 37.5576 44.53 37.6843 44.85C37.811 45.17 38.0043 45.4333 38.2643 45.64C38.5243 45.8467 38.8476 45.95 39.2343 45.95C39.6276 45.95 39.951 45.8467 40.2043 45.64C40.4643 45.4333 40.6576 45.17 40.7843 44.85C40.9176 44.53 40.9843 44.1967 40.9843 43.85C40.9843 43.5033 40.9176 43.17 40.7843 42.85C40.6576 42.53 40.4643 42.2667 40.2043 42.06C39.951 41.8533 39.6276 41.75 39.2343 41.75C38.8476 41.75 38.5243 41.8533 38.2643 42.06C38.0043 42.2667 37.811 42.53 37.6843 42.85C37.5576 43.17 37.4943 43.5033 37.4943 43.85ZM44.9096 46.6C44.5096 46.6 44.1796 46.5433 43.9196 46.43C43.6663 46.3167 43.4629 46.1767 43.3096 46.01C43.1629 45.8433 43.0563 45.6767 42.9896 45.51C42.9229 45.3433 42.8796 45.2033 42.8596 45.09C42.8396 44.9767 42.8296 44.92 42.8296 44.92H43.5996C43.5996 44.92 43.6096 44.9733 43.6296 45.08C43.6496 45.18 43.6996 45.3 43.7796 45.44C43.8663 45.5733 43.9996 45.6933 44.1796 45.8C44.3596 45.9 44.6063 45.95 44.9196 45.95C45.2596 45.95 45.5296 45.8633 45.7296 45.69C45.9296 45.5167 46.0296 45.3033 46.0296 45.05C46.0296 44.81 45.9463 44.6233 45.7796 44.49C45.6196 44.3567 45.4029 44.26 45.1296 44.2L44.4296 44.04C44.1629 43.9733 43.9196 43.8833 43.6996 43.77C43.4796 43.6567 43.3029 43.5067 43.1696 43.32C43.0363 43.1267 42.9696 42.89 42.9696 42.61C42.9696 42.1633 43.1329 41.8 43.4596 41.52C43.7863 41.24 44.2129 41.1 44.7396 41.1C45.0929 41.1 45.3829 41.1533 45.6096 41.26C45.8429 41.36 46.0263 41.4867 46.1596 41.64C46.2996 41.7933 46.3996 41.9467 46.4596 42.1C46.5263 42.2467 46.5696 42.3733 46.5896 42.48C46.6096 42.58 46.6196 42.63 46.6196 42.63H45.8896C45.8896 42.63 45.8763 42.5867 45.8496 42.5C45.8296 42.4067 45.7829 42.3033 45.7096 42.19C45.6429 42.07 45.5296 41.9667 45.3696 41.88C45.2163 41.7867 45.0063 41.74 44.7396 41.74C44.3929 41.74 44.1329 41.8233 43.9596 41.99C43.7929 42.1567 43.7096 42.3467 43.7096 42.56C43.7096 42.7667 43.7829 42.93 43.9296 43.05C44.0829 43.17 44.2896 43.26 44.5496 43.32L45.2596 43.49C45.7063 43.5967 46.0696 43.7733 46.3496 44.02C46.6296 44.26 46.7696 44.5933 46.7696 45.02C46.7696 45.3067 46.6929 45.57 46.5396 45.81C46.3929 46.05 46.1796 46.2433 45.8996 46.39C45.6263 46.53 45.2963 46.6 44.9096 46.6Z" fill="#11271D"/>
<g opacity="0.6">
<path d="M151.606 34.2514C151.308 33.1388 150.774 32.1036 150.039 31.2166C149.304 30.3296 148.387 29.6117 147.349 29.1119C146.312 28.6121 145.178 28.3423 144.027 28.3208C142.875 28.2994 141.733 28.5268 140.677 28.9876L142.455 21.8914C142.53 21.5869 142.509 21.2664 142.393 20.9749C142.277 20.6835 142.073 20.4356 141.808 20.2664C140.06 19.1583 137.95 18.7709 135.922 19.1858C133.895 19.6006 132.106 20.7853 130.934 22.4909C129.761 24.1965 129.295 26.2903 129.634 28.3323C129.972 30.3744 131.089 32.2056 132.75 33.4414L125.715 35.4501C125.412 35.5365 125.145 35.7158 124.95 35.9625C124.755 36.2092 124.643 36.511 124.628 36.8251C124.523 38.906 125.233 40.9459 126.609 42.5111C127.984 44.0762 129.916 45.043 131.993 45.2058C134.07 45.3687 136.129 44.7147 137.731 43.383C139.334 42.0513 140.353 40.147 140.573 38.0751L145.823 43.1626C146.05 43.3804 146.339 43.5217 146.649 43.5665C146.96 43.6114 147.277 43.5576 147.556 43.4126C149.173 42.5747 150.456 41.21 151.192 39.5443C151.929 37.8785 152.075 36.0113 151.606 34.2514ZM136.5 33.5014C136.5 33.2047 136.588 32.9147 136.752 32.668C136.917 32.4213 137.152 32.2291 137.426 32.1155C137.7 32.002 138.001 31.9723 138.292 32.0302C138.583 32.0881 138.851 32.2309 139.06 32.4407C139.27 32.6505 139.413 32.9178 139.471 33.2087C139.529 33.4997 139.499 33.8013 139.386 34.0754C139.272 34.3495 139.08 34.5837 138.833 34.7486C138.586 34.9134 138.296 35.0014 138 35.0014C137.602 35.0014 137.22 34.8433 136.939 34.562C136.658 34.2807 136.5 33.8992 136.5 33.5014ZM137.5 22.0014C138.097 22.0014 138.69 22.1085 139.25 22.3176L137.575 29.0226C136.934 29.0837 136.315 29.2814 135.757 29.6022C135.2 29.9231 134.718 30.3597 134.343 30.8826C133.541 30.2312 132.961 29.3473 132.682 28.3524C132.402 27.3576 132.438 26.3007 132.784 25.327C133.13 24.3534 133.769 23.5109 134.614 22.9153C135.458 22.3198 136.466 22.0005 137.5 22.0014ZM135.125 41.5139C134.425 41.919 133.637 42.1482 132.829 42.1819C132.021 42.2156 131.216 42.0528 130.485 41.7074C129.754 41.362 129.117 40.8444 128.63 40.1989C128.142 39.5534 127.819 38.7993 127.687 38.0014L134.335 36.1026C134.707 36.6276 135.187 37.0666 135.744 37.39C136.3 37.7135 136.919 37.9139 137.56 37.9776C137.443 38.7114 137.164 39.4097 136.743 40.0216C136.322 40.6335 135.769 41.1434 135.125 41.5139ZM148.212 38.8189C147.913 39.338 147.523 39.7992 147.061 40.1801L142.091 35.3764C142.359 34.7916 142.499 34.156 142.5 33.5127C142.501 32.8693 142.363 32.2333 142.097 31.6476C143.062 31.2791 144.118 31.2187 145.119 31.4746C146.12 31.7305 147.017 32.2902 147.687 33.0767C148.357 33.8632 148.767 34.8379 148.86 35.8668C148.953 36.8958 148.726 37.9283 148.208 38.8226L148.212 38.8189Z" fill="#C39C67"/>
</g>
</g>
</g>
<defs>
<filter id="filter0_d_1410_90210" x="0" y="0" width="167.75" height="68" filterUnits="userSpaceOnUse" color-interpolation-filters="sRGB">
<feFlood flood-opacity="0" result="BackgroundImageFix"/>
<feColorMatrix in="SourceAlpha" type="matrix" values="0 0 0 0 0 0 0 0 0 0 0 0 0 0 0 0 0 0 127 0" result="hardAlpha"/>
<feOffset dy="1"/>
<feGaussianBlur stdDeviation="1"/>
<feComposite in2="hardAlpha" operator="out"/>
<feColorMatrix type="matrix" values="0 0 0 0 0 0 0 0 0 0 0 0 0 0 0 0 0 0 0.03 0"/>
<feBlend mode="normal" in2="BackgroundImageFix" result="effect1_dropShadow_1410_90210"/>
<feBlend mode="normal" in="SourceGraphic" in2="effect1_dropShadow_1410_90210" result="shape"/>
</filter>
<filter id="filter1_d_1410_90210" x="1" y="1" width="165.75" height="66" filterUnits="userSpaceOnUse" color-interpolation-filters="sRGB">
<feFlood flood-opacity="0" result="BackgroundImageFix"/>
<feColorMatrix in="SourceAlpha" type="matrix" values="0 0 0 0 0 0 0 0 0 0 0 0 0 0 0 0 0 0 127 0" result="hardAlpha"/>
<feOffset dy="1"/>
<feGaussianBlur stdDeviation="0.5"/>
<feComposite in2="hardAlpha" operator="out"/>
<feColorMatrix type="matrix" values="0 0 0 0 0 0 0 0 0 0 0 0 0 0 0 0 0 0 0.1 0"/>
<feBlend mode="normal" in2="BackgroundImageFix" result="effect1_dropShadow_1410_90210"/>
<feBlend mode="normal" in="SourceGraphic" in2="effect1_dropShadow_1410_90210" result="shape"/>
</filter>
</defs>
</svg>
