<svg width="169" height="68" viewBox="0 0 169 68" fill="none" xmlns="http://www.w3.org/2000/svg">
<g filter="url(#filter0_d_1410_90317)">
<mask id="mask0_1410_90317" style="mask-type:alpha" maskUnits="userSpaceOnUse" x="2" y="1" width="165" height="64">
<rect x="2.75" y="1" width="163.75" height="64" rx="8" fill="white"/>
<rect x="3.25" y="1.5" width="162.75" height="63" rx="7.5" stroke="#E5E5E5" stroke-opacity="0.6"/>
</mask>
<g mask="url(#mask0_1410_90317)">
<g filter="url(#filter1_d_1410_90317)">
<rect x="2.75" y="1" width="163.75" height="64" rx="8" fill="white"/>
<rect x="3.25" y="1.5" width="162.75" height="63" rx="7.5" stroke="#E5E5E5" stroke-opacity="0.6"/>
</g>
<path d="M15.662 29.5V20.62H18.998C19.694 20.62 20.274 20.764 20.738 21.052C21.202 21.332 21.55 21.696 21.782 22.144C22.014 22.584 22.13 23.048 22.13 23.536C22.13 24.024 22.014 24.492 21.782 24.94C21.55 25.388 21.202 25.756 20.738 26.044C20.274 26.324 19.694 26.464 18.998 26.464H17.066V29.5H15.662ZM18.998 21.844H17.066V25.24H18.998C19.382 25.24 19.702 25.16 19.958 25C20.214 24.832 20.406 24.62 20.534 24.364C20.662 24.1 20.726 23.828 20.726 23.548C20.726 23.26 20.662 22.988 20.534 22.732C20.406 22.468 20.214 22.256 19.958 22.096C19.702 21.928 19.382 21.844 18.998 21.844ZM23.537 29.5L23.549 20.38H24.905V29.5H23.537ZM29.3291 23.02C29.7291 23.02 30.0611 23.084 30.3251 23.212C30.5971 23.34 30.8131 23.488 30.9731 23.656C31.1331 23.824 31.2491 23.968 31.3211 24.088H31.3931V23.14H32.7611V29.5H31.3931V28.552H31.3211C31.2491 28.672 31.1331 28.816 30.9731 28.984C30.8131 29.152 30.5971 29.3 30.3251 29.428C30.0611 29.556 29.7291 29.62 29.3291 29.62C28.8491 29.62 28.4291 29.528 28.0691 29.344C27.7171 29.152 27.4211 28.9 27.1811 28.588C26.9411 28.268 26.7611 27.912 26.6411 27.52C26.5291 27.128 26.4731 26.728 26.4731 26.32C26.4731 25.912 26.5291 25.512 26.6411 25.12C26.7611 24.728 26.9411 24.376 27.1811 24.064C27.4211 23.744 27.7171 23.492 28.0691 23.308C28.4291 23.116 28.8491 23.02 29.3291 23.02ZM29.6291 24.16C29.2371 24.16 28.9091 24.268 28.6451 24.484C28.3811 24.692 28.1811 24.96 28.0451 25.288C27.9171 25.616 27.8531 25.96 27.8531 26.32C27.8531 26.68 27.9171 27.024 28.0451 27.352C28.1811 27.68 28.3811 27.952 28.6451 28.168C28.9091 28.376 29.2371 28.48 29.6291 28.48C30.0211 28.48 30.3451 28.376 30.6011 28.168C30.8651 27.952 31.0611 27.68 31.1891 27.352C31.3251 27.024 31.3931 26.68 31.3931 26.32C31.3931 25.96 31.3251 25.616 31.1891 25.288C31.0611 24.96 30.8651 24.692 30.6011 24.484C30.3451 24.268 30.0211 24.16 29.6291 24.16ZM34.5225 31.84C34.3225 31.84 34.1585 31.832 34.0305 31.816C33.9025 31.8 33.8385 31.792 33.8385 31.792V30.652C33.8385 30.652 33.9025 30.656 34.0305 30.664C34.1585 30.68 34.2985 30.688 34.4505 30.688C34.8905 30.688 35.2505 30.604 35.5305 30.436C35.8185 30.276 36.0625 29.992 36.2625 29.584L33.8385 23.14H35.2305L36.9465 27.904L38.6625 23.14H40.0785L37.6785 29.428C37.3585 30.252 36.9505 30.86 36.4545 31.252C35.9585 31.644 35.3145 31.84 34.5225 31.84ZM40.9652 29.5V28.552L44.5172 24.244H41.1332V23.14H46.1732V24.088L42.6212 28.396H46.1732V29.5H40.9652ZM50.3372 29.62C49.6412 29.62 49.0532 29.464 48.5732 29.152C48.1012 28.84 47.7412 28.432 47.4932 27.928C47.2532 27.424 47.1332 26.888 47.1332 26.32C47.1332 25.752 47.2532 25.216 47.4932 24.712C47.7412 24.208 48.1012 23.8 48.5732 23.488C49.0532 23.176 49.6412 23.02 50.3372 23.02C51.0252 23.02 51.6052 23.176 52.0772 23.488C52.5572 23.8 52.9172 24.208 53.1572 24.712C53.4052 25.216 53.5292 25.752 53.5292 26.32C53.5292 26.888 53.4052 27.424 53.1572 27.928C52.9172 28.432 52.5572 28.84 52.0772 29.152C51.6052 29.464 51.0252 29.62 50.3372 29.62ZM50.3372 28.456C50.7292 28.456 51.0572 28.356 51.3212 28.156C51.5932 27.956 51.7972 27.692 51.9332 27.364C52.0772 27.036 52.1492 26.688 52.1492 26.32C52.1492 25.944 52.0772 25.596 51.9332 25.276C51.7972 24.948 51.5932 24.684 51.3212 24.484C51.0572 24.284 50.7292 24.184 50.3372 24.184C49.9452 24.184 49.6132 24.284 49.3412 24.484C49.0692 24.684 48.8652 24.948 48.7292 25.276C48.5932 25.596 48.5252 25.944 48.5252 26.32C48.5252 26.688 48.5932 27.036 48.7292 27.364C48.8652 27.692 49.0692 27.956 49.3412 28.156C49.6132 28.356 49.9452 28.456 50.3372 28.456ZM54.9873 29.5V23.14H56.3553V24.064H56.4273C56.4833 23.952 56.5793 23.816 56.7153 23.656C56.8513 23.488 57.0393 23.34 57.2793 23.212C57.5273 23.084 57.8393 23.02 58.2153 23.02C58.6873 23.02 59.0833 23.128 59.4033 23.344C59.7233 23.56 59.9633 23.848 60.1233 24.208C60.2913 24.568 60.3753 24.964 60.3753 25.396V29.5H59.0073V25.54C59.0073 25.156 58.8993 24.832 58.6833 24.568C58.4753 24.304 58.1633 24.172 57.7473 24.172C57.4193 24.172 57.1513 24.256 56.9433 24.424C56.7433 24.584 56.5953 24.796 56.4993 25.06C56.4033 25.316 56.3553 25.592 56.3553 25.888V29.5H54.9873ZM64.9245 29.62C64.3885 29.62 63.9245 29.528 63.5325 29.344C63.1485 29.152 62.8285 28.9 62.5725 28.588C62.3245 28.268 62.1365 27.912 62.0085 27.52C61.8885 27.128 61.8285 26.728 61.8285 26.32C61.8285 25.92 61.8885 25.524 62.0085 25.132C62.1285 24.74 62.3125 24.384 62.5605 24.064C62.8085 23.744 63.1245 23.492 63.5085 23.308C63.8925 23.116 64.3445 23.02 64.8645 23.02C65.4245 23.02 65.9165 23.148 66.3405 23.404C66.7725 23.652 67.1085 24.024 67.3485 24.52C67.5965 25.008 67.7205 25.616 67.7205 26.344V26.716H63.2085C63.2405 27.204 63.4045 27.624 63.7005 27.976C63.9965 28.328 64.4045 28.504 64.9245 28.504C65.2205 28.504 65.4645 28.456 65.6565 28.36C65.8485 28.256 65.9965 28.14 66.1005 28.012C66.2045 27.884 66.2765 27.772 66.3165 27.676C66.3645 27.58 66.3885 27.532 66.3885 27.532H67.6605C67.6605 27.532 67.6405 27.604 67.6005 27.748C67.5605 27.884 67.4845 28.056 67.3725 28.264C67.2685 28.472 67.1165 28.68 66.9165 28.888C66.7165 29.096 66.4525 29.272 66.1245 29.416C65.7965 29.552 65.3965 29.62 64.9245 29.62ZM63.2205 25.756H66.4005C66.3685 25.196 66.2005 24.784 65.8965 24.52C65.6005 24.256 65.2525 24.124 64.8525 24.124C64.4045 24.124 64.0325 24.272 63.7365 24.568C63.4405 24.856 63.2685 25.252 63.2205 25.756ZM72.0878 29.5V20.62H73.4918V28.276H77.9798V29.5H72.0878ZM80.3784 22.048C80.1304 22.048 79.9264 21.964 79.7664 21.796C79.6064 21.628 79.5264 21.432 79.5264 21.208C79.5264 20.976 79.6064 20.78 79.7664 20.62C79.9264 20.452 80.1304 20.368 80.3784 20.368C80.6264 20.368 80.8304 20.452 80.9904 20.62C81.1584 20.78 81.2424 20.976 81.2424 21.208C81.2424 21.44 81.1584 21.64 80.9904 21.808C80.8304 21.968 80.6264 22.048 80.3784 22.048ZM79.7064 29.5V23.14H81.0744V29.5H79.7064ZM85.9631 32.032C85.4111 32.032 84.9551 31.96 84.5951 31.816C84.2351 31.672 83.9471 31.492 83.7311 31.276C83.5151 31.068 83.3551 30.856 83.2511 30.64C83.1471 30.432 83.0791 30.256 83.0471 30.112C83.0151 29.968 82.9991 29.896 82.9991 29.896H84.3551C84.3551 29.896 84.3711 29.944 84.4031 30.04C84.4351 30.144 84.5031 30.26 84.6071 30.388C84.7191 30.524 84.8831 30.64 85.0991 30.736C85.3151 30.84 85.5991 30.892 85.9511 30.892C86.3671 30.892 86.6991 30.808 86.9471 30.64C87.2031 30.48 87.3831 30.264 87.4871 29.992C87.5991 29.728 87.6551 29.44 87.6551 29.128V28.408H87.5951C87.5071 28.544 87.3791 28.696 87.2111 28.864C87.0511 29.024 86.8351 29.164 86.5631 29.284C86.2911 29.404 85.9631 29.464 85.5791 29.464C85.0991 29.464 84.6791 29.372 84.3191 29.188C83.9671 29.004 83.6711 28.76 83.4311 28.456C83.1991 28.144 83.0231 27.796 82.9031 27.412C82.7831 27.028 82.7231 26.636 82.7231 26.236C82.7231 25.836 82.7831 25.448 82.9031 25.072C83.0231 24.688 83.1991 24.344 83.4311 24.04C83.6711 23.728 83.9671 23.48 84.3191 23.296C84.6791 23.112 85.0991 23.02 85.5791 23.02C85.9631 23.02 86.2911 23.08 86.5631 23.2C86.8351 23.312 87.0551 23.452 87.2231 23.62C87.3911 23.78 87.5151 23.932 87.5951 24.076H87.6551V23.14H89.0231V29.116C89.0231 29.684 88.9071 30.188 88.6751 30.628C88.4431 31.068 88.0991 31.412 87.6431 31.66C87.1871 31.908 86.6271 32.032 85.9631 32.032ZM85.8911 28.336C86.2831 28.336 86.6111 28.236 86.8751 28.036C87.1391 27.828 87.3351 27.564 87.4631 27.244C87.5911 26.924 87.6551 26.588 87.6551 26.236C87.6551 25.884 87.5911 25.548 87.4631 25.228C87.3351 24.908 87.1391 24.648 86.8751 24.448C86.6111 24.248 86.2831 24.148 85.8911 24.148C85.4911 24.148 85.1591 24.248 84.8951 24.448C84.6311 24.648 84.4351 24.908 84.3071 25.228C84.1791 25.548 84.1151 25.884 84.1151 26.236C84.1151 26.588 84.1791 26.924 84.3071 27.244C84.4351 27.564 84.6311 27.828 84.8951 28.036C85.1591 28.236 85.4911 28.336 85.8911 28.336ZM90.7323 29.5V20.38H92.1003V24.064H92.1723C92.2283 23.952 92.3243 23.816 92.4603 23.656C92.5963 23.488 92.7843 23.34 93.0243 23.212C93.2723 23.084 93.5843 23.02 93.9603 23.02C94.4323 23.02 94.8283 23.128 95.1483 23.344C95.4683 23.56 95.7083 23.848 95.8683 24.208C96.0363 24.568 96.1203 24.964 96.1203 25.396V29.5H94.7523V25.54C94.7523 25.156 94.6443 24.832 94.4283 24.568C94.2203 24.304 93.9083 24.172 93.4923 24.172C93.1643 24.172 92.8963 24.256 92.6883 24.424C92.4883 24.584 92.3403 24.796 92.2443 25.06C92.1483 25.316 92.1003 25.592 92.1003 25.888V29.5H90.7323ZM100.299 29.62C99.7947 29.62 99.3907 29.528 99.0867 29.344C98.7827 29.16 98.5627 28.916 98.4267 28.612C98.2987 28.3 98.2347 27.964 98.2347 27.604V24.244H97.1187V23.14H98.2347V21.556H99.6027V23.14H101.091V24.244H99.6027V27.58C99.6027 28.18 99.9347 28.48 100.599 28.48C100.767 28.48 100.923 28.468 101.067 28.444C101.211 28.42 101.283 28.408 101.283 28.408V29.524C101.283 29.524 101.183 29.54 100.983 29.572C100.791 29.604 100.563 29.62 100.299 29.62ZM105.131 29.62C104.627 29.62 104.211 29.552 103.883 29.416C103.563 29.272 103.307 29.1 103.115 28.9C102.923 28.692 102.779 28.484 102.683 28.276C102.595 28.068 102.539 27.896 102.515 27.76C102.491 27.616 102.479 27.544 102.479 27.544H103.811C103.811 27.544 103.823 27.596 103.847 27.7C103.879 27.796 103.939 27.908 104.027 28.036C104.115 28.164 104.251 28.28 104.435 28.384C104.619 28.48 104.863 28.528 105.167 28.528C105.535 28.528 105.807 28.444 105.983 28.276C106.167 28.108 106.259 27.916 106.259 27.7C106.259 27.492 106.183 27.328 106.031 27.208C105.879 27.088 105.663 26.996 105.383 26.932L104.519 26.74C104.183 26.66 103.867 26.552 103.571 26.416C103.283 26.272 103.047 26.084 102.863 25.852C102.687 25.612 102.599 25.304 102.599 24.928C102.599 24.376 102.807 23.92 103.223 23.56C103.639 23.2 104.199 23.02 104.903 23.02C105.359 23.02 105.735 23.084 106.031 23.212C106.335 23.34 106.575 23.5 106.751 23.692C106.927 23.876 107.059 24.064 107.147 24.256C107.235 24.44 107.291 24.596 107.315 24.724C107.347 24.844 107.363 24.904 107.363 24.904H106.079C106.079 24.904 106.067 24.864 106.043 24.784C106.019 24.704 105.967 24.612 105.887 24.508C105.807 24.396 105.687 24.3 105.527 24.22C105.375 24.132 105.167 24.088 104.903 24.088C104.543 24.088 104.283 24.168 104.123 24.328C103.963 24.488 103.883 24.66 103.883 24.844C103.883 25.036 103.959 25.188 104.111 25.3C104.271 25.404 104.479 25.484 104.735 25.54L105.587 25.732C106.155 25.86 106.623 26.072 106.991 26.368C107.359 26.656 107.543 27.076 107.543 27.628C107.543 27.996 107.447 28.332 107.255 28.636C107.071 28.932 106.799 29.172 106.439 29.356C106.079 29.532 105.643 29.62 105.131 29.62Z" fill="#11271D"/>
<path opacity="0.6" d="M18.86 46.6C18.28 46.6 17.7667 46.4933 17.32 46.28C16.88 46.06 16.51 45.77 16.21 45.41C15.9167 45.0433 15.6933 44.6333 15.54 44.18C15.3933 43.7267 15.32 43.2633 15.32 42.79C15.32 42.3233 15.3933 41.8633 15.54 41.41C15.6933 40.9567 15.9167 40.55 16.21 40.19C16.51 39.8233 16.88 39.5333 17.32 39.32C17.7667 39.1067 18.28 39 18.86 39C19.44 39 19.95 39.1067 20.39 39.32C20.83 39.5333 21.1967 39.8233 21.49 40.19C21.79 40.55 22.0167 40.9567 22.17 41.41C22.3233 41.8633 22.4 42.3233 22.4 42.79C22.4 43.2633 22.3233 43.7267 22.17 44.18C22.0167 44.6333 21.79 45.0433 21.49 45.41C21.1967 45.77 20.83 46.06 20.39 46.28C19.95 46.4933 19.44 46.6 18.86 46.6ZM18.86 45.88C19.4 45.88 19.8767 45.7467 20.29 45.48C20.7033 45.2067 21.0267 44.8367 21.26 44.37C21.4933 43.9033 21.61 43.3767 21.61 42.79C21.61 42.21 21.4933 41.69 21.26 41.23C21.0267 40.7633 20.7033 40.3967 20.29 40.13C19.8767 39.8567 19.4 39.72 18.86 39.72C18.3133 39.72 17.8333 39.8567 17.42 40.13C17.0067 40.3967 16.6833 40.7633 16.45 41.23C16.2167 41.69 16.1 42.21 16.1 42.79C16.1 43.3767 16.2167 43.9033 16.45 44.37C16.6833 44.8367 17.0067 45.2067 17.42 45.48C17.8333 45.7467 18.3133 45.88 18.86 45.88ZM23.7129 46.5V41.2H24.4629V41.89H24.5029C24.6096 41.6767 24.7729 41.4933 24.9929 41.34C25.2129 41.18 25.5196 41.1 25.9129 41.1C26.0396 41.1 26.1496 41.1067 26.2429 41.12C26.3429 41.1333 26.3929 41.14 26.3929 41.14V41.86C26.3929 41.86 26.3396 41.8533 26.2329 41.84C26.1262 41.8267 26.0129 41.82 25.8929 41.82C25.6196 41.82 25.3729 41.8767 25.1529 41.99C24.9396 42.0967 24.7696 42.2833 24.6429 42.55C24.5229 42.81 24.4629 43.1667 24.4629 43.62V46.5H23.7129ZM28.2361 40.18C28.0828 40.18 27.9561 40.1267 27.8561 40.02C27.7561 39.9133 27.7061 39.79 27.7061 39.65C27.7061 39.5033 27.7561 39.38 27.8561 39.28C27.9561 39.1733 28.0828 39.12 28.2361 39.12C28.3828 39.12 28.5061 39.1733 28.6061 39.28C28.7128 39.38 28.7661 39.5033 28.7661 39.65C28.7661 39.7967 28.7128 39.9233 28.6061 40.03C28.5061 40.13 28.3828 40.18 28.2361 40.18ZM27.8661 46.5V41.2H28.6161V46.5H27.8661ZM32.5666 46.6C32.1399 46.6 31.7699 46.5233 31.4566 46.37C31.1432 46.21 30.8866 45.9967 30.6866 45.73C30.4866 45.4633 30.3366 45.1667 30.2366 44.84C30.1432 44.5133 30.0966 44.1833 30.0966 43.85C30.0966 43.5167 30.1432 43.1867 30.2366 42.86C30.3366 42.5333 30.4866 42.2367 30.6866 41.97C30.8866 41.7033 31.1366 41.4933 31.4366 41.34C31.7432 41.18 32.1066 41.1 32.5266 41.1C32.9666 41.1 33.3566 41.2033 33.6966 41.41C34.0432 41.6167 34.3132 41.9233 34.5066 42.33C34.7066 42.73 34.8066 43.2333 34.8066 43.84V44.06H30.8566C30.8699 44.4 30.9432 44.7133 31.0766 45C31.2166 45.2867 31.4099 45.5167 31.6566 45.69C31.9099 45.8633 32.2132 45.95 32.5666 45.95C32.8599 45.95 33.1032 45.9 33.2966 45.8C33.4899 45.6933 33.6366 45.5733 33.7366 45.44C33.8432 45.3 33.9166 45.18 33.9566 45.08C34.0032 44.98 34.0266 44.93 34.0266 44.93H34.7366C34.7366 44.93 34.7199 44.9867 34.6866 45.1C34.6532 45.2067 34.5932 45.3433 34.5066 45.51C34.4199 45.6767 34.2932 45.8433 34.1266 46.01C33.9666 46.1767 33.7599 46.3167 33.5066 46.43C33.2532 46.5433 32.9399 46.6 32.5666 46.6ZM30.8666 43.46H34.0566C34.0366 43.0533 33.9532 42.7267 33.8066 42.48C33.6666 42.2267 33.4832 42.0433 33.2566 41.93C33.0299 41.8167 32.7866 41.76 32.5266 41.76C32.0532 41.76 31.6699 41.9167 31.3766 42.23C31.0832 42.5367 30.9132 42.9467 30.8666 43.46ZM36.1641 46.5V41.2H36.9141V42.08H36.9641C37.0107 41.98 37.0941 41.8533 37.2141 41.7C37.3341 41.54 37.5007 41.4 37.7141 41.28C37.9274 41.16 38.1974 41.1 38.5241 41.1C38.9174 41.1 39.2507 41.19 39.5241 41.37C39.7974 41.55 40.0041 41.7933 40.1441 42.1C40.2907 42.4067 40.3641 42.7533 40.3641 43.14V46.5H39.6241V43.18C39.6241 42.7733 39.5141 42.4367 39.2941 42.17C39.0807 41.8967 38.7641 41.76 38.3441 41.76C38.0107 41.76 37.7374 41.8467 37.5241 42.02C37.3174 42.1933 37.1641 42.4167 37.0641 42.69C36.9641 42.9633 36.9141 43.2433 36.9141 43.53V46.5H36.1641ZM43.7128 46.6C43.2195 46.6 42.8461 46.4733 42.5928 46.22C42.3395 45.9667 42.2128 45.61 42.2128 45.15V41.82H41.2528V41.2H42.2128V39.86H42.9628V41.2H44.2728V41.82H42.9628V45.15C42.9628 45.6833 43.2495 45.95 43.8228 45.95C43.9695 45.95 44.1095 45.9367 44.2428 45.91C44.3828 45.8833 44.4528 45.87 44.4528 45.87V46.51C44.4528 46.51 44.3761 46.5233 44.2228 46.55C44.0761 46.5833 43.9061 46.6 43.7128 46.6Z" fill="#11271D"/>
<g opacity="0.6">
<path d="M152.83 32.688C152.563 31.6213 151.843 30.6346 150.817 30.088L150.257 27.8213C150.897 27.608 151.51 27.3813 152.083 27.1413V24.168C149.417 25.5946 144.79 26.8746 138.75 26.8746C132.71 26.8746 128.083 25.5946 125.417 24.168V27.1413C125.99 27.3813 126.603 27.608 127.243 27.8213L126.683 30.088C126.186 30.3586 125.751 30.7294 125.404 31.1769C125.058 31.6244 124.808 32.1389 124.67 32.688C123.957 35.5946 123.263 40.5813 126.643 41.408C128.083 41.768 130.75 41.3546 132.443 34.5946C132.697 33.5013 132.523 32.328 131.87 31.3546L132.43 29.0613C133.603 29.248 134.817 29.368 136.083 29.448V31.8213C135.217 32.608 134.75 33.728 134.75 34.8346C134.75 37.8213 135.27 42.8346 138.75 42.8346C140.243 42.8346 142.75 41.7946 142.75 34.8346C142.75 33.728 142.283 32.608 141.417 31.8213V29.448C142.683 29.368 143.897 29.248 145.07 29.0613L145.63 31.3546C145.317 31.8263 145.105 32.3575 145.006 32.9149C144.907 33.4724 144.925 34.0442 145.057 34.5946C146.75 41.3546 149.417 41.768 150.857 41.408C154.23 40.5813 153.537 35.5946 152.83 32.688ZM130.497 34.128C130.497 34.128 129.07 39.9546 127.123 39.5013C125.177 38.9946 126.617 33.168 126.617 33.168C126.617 33.168 127.097 31.2213 129.03 31.7013C130.963 32.1813 130.497 34.128 130.497 34.128ZM138.75 40.8346C136.75 40.8346 136.75 34.8346 136.75 34.8346C136.75 34.8346 136.75 32.8346 138.75 32.8346C140.75 32.8346 140.75 34.8346 140.75 34.8346C140.75 34.8346 140.75 40.8346 138.75 40.8346ZM150.377 39.5013C148.443 39.9546 147.003 34.128 147.003 34.128C147.003 34.128 146.523 32.168 148.47 31.7013C150.417 31.2346 150.883 33.168 150.883 33.168C150.883 33.168 152.323 38.9946 150.377 39.5013Z" fill="#C39C67"/>
</g>
</g>
</g>
<defs>
<filter id="filter0_d_1410_90317" x="0.75" y="0" width="167.75" height="68" filterUnits="userSpaceOnUse" color-interpolation-filters="sRGB">
<feFlood flood-opacity="0" result="BackgroundImageFix"/>
<feColorMatrix in="SourceAlpha" type="matrix" values="0 0 0 0 0 0 0 0 0 0 0 0 0 0 0 0 0 0 127 0" result="hardAlpha"/>
<feOffset dy="1"/>
<feGaussianBlur stdDeviation="1"/>
<feComposite in2="hardAlpha" operator="out"/>
<feColorMatrix type="matrix" values="0 0 0 0 0 0 0 0 0 0 0 0 0 0 0 0 0 0 0.03 0"/>
<feBlend mode="normal" in2="BackgroundImageFix" result="effect1_dropShadow_1410_90317"/>
<feBlend mode="normal" in="SourceGraphic" in2="effect1_dropShadow_1410_90317" result="shape"/>
</filter>
<filter id="filter1_d_1410_90317" x="1.75" y="1" width="165.75" height="66" filterUnits="userSpaceOnUse" color-interpolation-filters="sRGB">
<feFlood flood-opacity="0" result="BackgroundImageFix"/>
<feColorMatrix in="SourceAlpha" type="matrix" values="0 0 0 0 0 0 0 0 0 0 0 0 0 0 0 0 0 0 127 0" result="hardAlpha"/>
<feOffset dy="1"/>
<feGaussianBlur stdDeviation="0.5"/>
<feComposite in2="hardAlpha" operator="out"/>
<feColorMatrix type="matrix" values="0 0 0 0 0 0 0 0 0 0 0 0 0 0 0 0 0 0 0.1 0"/>
<feBlend mode="normal" in2="BackgroundImageFix" result="effect1_dropShadow_1410_90317"/>
<feBlend mode="normal" in="SourceGraphic" in2="effect1_dropShadow_1410_90317" result="shape"/>
</filter>
</defs>
</svg>
