<svg width="54" height="40" viewBox="0 0 54 40" fill="none" xmlns="http://www.w3.org/2000/svg">
<path d="M31.5529 0V13.755H19.4912V1.56051L31.5529 0Z" fill="url(#paint0_linear_1410_89541)"/>
<path d="M43.2013 2.70053V13.755H31.5557V0L43.2013 2.70053Z" fill="url(#paint1_linear_1410_89541)"/>
<path d="M27.3144 3.30078V39.4233H0.578125V6.75996L27.3144 3.30078Z" fill="url(#paint2_linear_1410_89541)"/>
<path d="M24.2878 6.59766L2.89453 8.80366V10.0387L24.2878 7.97764V6.59766ZM24.3142 9.91063L2.91583 11.8614V13.0965L24.3142 11.2906V9.91063ZM24.3142 13.2239L2.91583 14.9192V16.1543L24.3142 14.6039V13.2239ZM24.3142 16.5376L2.91583 17.9773V19.2124L24.3142 17.9176V16.5376ZM24.3142 19.8509L2.91583 21.0351V22.2701L24.3142 21.2308V19.8509ZM24.3142 23.1642L2.91583 24.0928V25.3279L24.3142 24.5441V23.1642ZM24.3142 26.4775L2.91583 27.1503V28.3854L24.3142 27.8571V26.4775ZM24.3142 29.7911L2.91583 30.2084V31.4434L24.3142 31.1708V29.7911ZM24.3142 33.1044L2.91583 33.2662V34.5012L24.3142 34.4841V33.1044Z" fill="url(#paint3_linear_1410_89541)"/>
<path d="M24.3144 33.1055L2.91602 33.2672V34.5023L24.3144 34.4851V33.1055Z" fill="url(#paint4_linear_1410_89541)"/>
<path d="M24.3144 33.1055L2.91602 33.2672V34.5023L24.3144 34.4851V33.1055Z" fill="url(#paint5_linear_1410_89541)" fill-opacity="0.1"/>
<path d="M24.3144 33.1055L2.91602 33.2672V34.5023L24.3144 34.4851V33.1055Z" fill="#8E816F"/>
<path d="M24.3144 33.1055L2.91602 33.2672V34.5023L24.3144 34.4851V33.1055Z" fill="url(#paint6_linear_1410_89541)"/>
<path d="M2.91602 25.3278L3.1137 25.3205V24.3397L24.3144 23.4199V23.1641L2.91602 24.0927V25.3278Z" fill="#565759"/>
<path d="M2.91602 28.3848L3.1137 28.3797V27.3967L24.3144 26.7299V26.4766L2.91602 27.1497V28.3848Z" fill="#565759"/>
<path d="M2.91602 22.2708L3.1137 22.261V21.2827L24.3144 20.1096V19.8516L2.91602 21.0355V22.2708Z" fill="#565759"/>
<path d="M2.91602 16.153L3.1137 16.1387V15.1652L24.3144 13.4855V13.2227L2.91602 14.9179V16.153Z" fill="#565759"/>
<path d="M2.91602 19.2139L3.1137 19.2018V18.2258L24.3144 16.7994V16.5391L2.91602 17.9785V19.2139Z" fill="#565759"/>
<path d="M3.1137 33.5145L24.3144 33.354V33.1055L2.91602 33.2672V34.5023H3.1137V33.5145Z" fill="#565759"/>
<path d="M3.09288 9.05061L24.2885 6.86495V6.59766L2.89551 8.80335V10.0384L3.09288 10.0193V9.05061Z" fill="#565759"/>
<path d="M2.91602 31.4453L3.1137 31.4428V30.4572L24.3144 30.0437V29.793L2.91602 30.2103V31.4453Z" fill="#565759"/>
<path d="M2.91602 11.861V13.096L3.1137 13.0795V12.1082L24.3144 10.1752V9.91016L2.91602 11.861Z" fill="#565759"/>
<path d="M53.1336 9.28698V39.4233H27.3193V3.30078L53.1336 9.28698Z" fill="url(#paint7_linear_1410_89541)"/>
<path d="M51.0831 10.679L30.4961 6.875V8.23655L51.0831 11.7908V10.679ZM51.1015 13.5191L30.5241 10.1575V11.5187L51.1015 14.6308V13.5191ZM51.1015 16.3601L30.5241 13.4387V14.7999L51.1015 17.4715V16.3601ZM51.1015 19.2011L30.5241 16.7202V18.0814L51.1015 20.3129V19.2011ZM51.1015 22.0421L30.5241 20.0017V21.3629L51.1015 23.1539V22.0421ZM51.1015 24.8832L30.5241 23.2829V24.6442L51.1015 25.9949V24.8832ZM51.1015 27.7242L30.5241 26.5644V27.9257L51.1015 28.8359V27.7242ZM51.1015 30.5655L30.5241 29.8463V31.2075L51.1015 31.6773V30.5655ZM51.1015 33.4065L30.5241 33.1275V34.4887L51.1015 34.518V33.4065Z" fill="url(#paint8_linear_1410_89541)"/>
<path d="M51.1019 33.404L30.5244 33.125V34.4862L51.1019 34.5155V33.404Z" fill="url(#paint9_linear_1410_89541)"/>
<path d="M51.1019 33.404L30.5244 33.125V34.4862L51.1019 34.5155V33.404Z" fill="url(#paint10_linear_1410_89541)" fill-opacity="0.1"/>
<path d="M51.1019 33.404L30.5244 33.125V34.4862L51.1019 34.5155V33.404Z" fill="#8E816F"/>
<path d="M51.1019 33.404L30.5244 33.125V34.4862L51.1019 34.5155V33.404Z" fill="url(#paint11_linear_1410_89541)"/>
<path d="M30.5234 30.0767L50.9201 30.7896V31.6709L51.1009 31.675V30.5633L30.5234 29.8438V30.0767Z" fill="#727477"/>
<path d="M30.5234 33.358L50.9201 33.6342V34.5194L51.1009 34.5197V33.408L30.5234 33.1289V33.358Z" fill="#727477"/>
<path d="M51.0828 11.7908V10.6787L30.4961 6.875V7.13498L50.9016 10.9053V11.7596L51.0828 11.7908Z" fill="#727477"/>
<path d="M30.5234 26.8029L50.9201 27.9524V28.8296L51.1009 28.8379V27.7258L30.5234 26.5664V26.8029Z" fill="#727477"/>
<path d="M30.5234 23.5257L50.9201 25.1117V25.9851L51.1009 25.9971V24.8851L30.5234 23.2852V23.5257Z" fill="#727477"/>
<path d="M30.5234 10.1562V10.4124L50.9201 13.7445V14.6023L51.1009 14.6296V13.5179L30.5234 10.1562Z" fill="#727477"/>
<path d="M30.5234 13.6899L50.9201 16.5855V17.4472L51.1009 17.4707V16.3589L30.5234 13.4375V13.6899Z" fill="#727477"/>
<path d="M30.5234 20.2444L50.9201 22.267V23.1366L51.1009 23.1522V22.0404L30.5234 20V20.2444Z" fill="#727477"/>
<path d="M30.5234 16.9673L50.9201 19.4263V20.292L51.1009 20.3114V19.1997L30.5234 16.7188V16.9673Z" fill="#727477"/>
<path d="M16.1992 35.2773H10.46V39.4237H16.1992V35.2773Z" fill="#565759"/>
<path d="M16.1993 35.2773H10.9346V39.4237H16.1993V35.2773Z" fill="#A9B9C0"/>
<path d="M28.114 38.793H0V40.001H28.114V38.793Z" fill="#727477"/>
<path d="M53.8119 38.793H27.5098V40.001H53.8119V38.793Z" fill="url(#paint12_linear_1410_89541)"/>
<defs>
<linearGradient id="paint0_linear_1410_89541" x1="19.4911" y1="6.8774" x2="31.5529" y2="6.8774" gradientUnits="userSpaceOnUse">
<stop stop-color="#BCBEC0"/>
<stop offset="1" stop-color="#939598"/>
</linearGradient>
<linearGradient id="paint1_linear_1410_89541" x1="31.5557" y1="6.8774" x2="43.2015" y2="6.8774" gradientUnits="userSpaceOnUse">
<stop stop-color="white"/>
<stop offset="1" stop-color="#E6E7E8"/>
</linearGradient>
<linearGradient id="paint2_linear_1410_89541" x1="0.578125" y1="19.6968" x2="27.3143" y2="19.6968" gradientUnits="userSpaceOnUse">
<stop stop-color="#BCBEC0"/>
<stop offset="1" stop-color="#939598"/>
</linearGradient>
<linearGradient id="paint3_linear_1410_89541" x1="2.54084" y1="18.8926" x2="24.6715" y2="18.8926" gradientUnits="userSpaceOnUse">
<stop stop-color="#90A4AE"/>
<stop offset="0.5" stop-color="#B0BEC5"/>
<stop offset="0.98" stop-color="#90A4AE"/>
</linearGradient>
<linearGradient id="paint4_linear_1410_89541" x1="2.54103" y1="18.8936" x2="24.6716" y2="18.8936" gradientUnits="userSpaceOnUse">
<stop stop-color="#90A4AE"/>
<stop offset="0.5" stop-color="#B0BEC5"/>
<stop offset="0.98" stop-color="#90A4AE"/>
</linearGradient>
<linearGradient id="paint5_linear_1410_89541" x1="2.54103" y1="20.5505" x2="24.6716" y2="20.5505" gradientUnits="userSpaceOnUse">
<stop stop-color="#90A4AE"/>
<stop offset="0.5" stop-color="#B0BEC5"/>
<stop offset="0.98" stop-color="#90A4AE"/>
</linearGradient>
<linearGradient id="paint6_linear_1410_89541" x1="2.56267" y1="33.721" x2="24.6713" y2="33.721" gradientUnits="userSpaceOnUse">
<stop stop-color="#90A4AE"/>
<stop offset="0.5" stop-color="#B0BEC5"/>
<stop offset="0.98" stop-color="#90A4AE"/>
</linearGradient>
<linearGradient id="paint7_linear_1410_89541" x1="27.3195" y1="19.6968" x2="53.1337" y2="19.6968" gradientUnits="userSpaceOnUse">
<stop stop-color="white"/>
<stop offset="1" stop-color="#E6E7E8"/>
</linearGradient>
<linearGradient id="paint8_linear_1410_89541" x1="30.1558" y1="19.0559" x2="51.4452" y2="19.0559" gradientUnits="userSpaceOnUse">
<stop stop-color="#90A4AE"/>
<stop offset="0.5" stop-color="#B0BEC5"/>
<stop offset="0.98" stop-color="#90A4AE"/>
</linearGradient>
<linearGradient id="paint9_linear_1410_89541" x1="30.1562" y1="19.0535" x2="51.4455" y2="19.0535" gradientUnits="userSpaceOnUse">
<stop stop-color="#90A4AE"/>
<stop offset="0.5" stop-color="#B0BEC5"/>
<stop offset="0.98" stop-color="#90A4AE"/>
</linearGradient>
<linearGradient id="paint10_linear_1410_89541" x1="30.1562" y1="20.694" x2="51.4455" y2="20.694" gradientUnits="userSpaceOnUse">
<stop stop-color="#90A4AE"/>
<stop offset="0.5" stop-color="#B0BEC5"/>
<stop offset="0.98" stop-color="#90A4AE"/>
</linearGradient>
<linearGradient id="paint11_linear_1410_89541" x1="30.1846" y1="33.7377" x2="51.4451" y2="33.7377" gradientUnits="userSpaceOnUse">
<stop stop-color="#90A4AE"/>
<stop offset="0.5" stop-color="#B0BEC5"/>
<stop offset="0.98" stop-color="#90A4AE"/>
</linearGradient>
<linearGradient id="paint12_linear_1410_89541" x1="27.5097" y1="39.397" x2="53.8116" y2="39.397" gradientUnits="userSpaceOnUse">
<stop stop-color="#D1D3D4"/>
<stop offset="1" stop-color="#BCBEC0"/>
</linearGradient>
</defs>
</svg>
