<svg width="51" height="40" viewBox="0 0 51 40" fill="none" xmlns="http://www.w3.org/2000/svg">
<path d="M19.1878 0V39.4215H0.722656V8.47196L19.1878 0Z" fill="url(#paint0_linear_1410_89595)"/>
<path d="M50.5732 5.57344V39.4224H19.1787V0.152344L50.5732 5.57344Z" fill="url(#paint1_linear_1410_89595)"/>
<path d="M29.88 3.22474L21.0713 2.13281V6.01424L29.88 6.98261V3.22474ZM39.8293 5.21515L31.6731 4.20405V7.17905L39.8293 8.07579V5.21515ZM49.0648 6.51173L41.4916 5.68083V8.25883L49.0648 9.09108V6.51173ZM29.88 8.89757L21.0713 7.99245V11.8739L29.88 12.6554V8.89757ZM39.8293 9.91955L31.6731 9.08144V12.8138L39.8293 13.5375V9.91955ZM49.0648 10.8691L41.4916 10.0909V13.6854L49.0648 14.3572V10.8691ZM29.88 14.57L21.0713 13.8517V17.7331L29.88 18.3278V14.57ZM39.8293 15.3817L31.6731 14.7166V18.4489L39.8293 18.9997V15.3817ZM49.0648 16.1348L41.4916 15.517V19.1115L49.0648 19.6229V16.1348ZM29.88 20.2428L21.0713 19.7109V23.5923L29.88 24.0003V20.2428ZM39.8293 20.8434L31.6731 20.3513V24.0836L39.8293 24.4614V20.8434ZM49.0648 21.4009L41.4916 20.9435V24.5381L49.0648 24.889V21.4009ZM29.88 25.9156L21.0713 25.5705V29.4515L29.88 29.6727V25.9156ZM39.8293 26.3052L31.6731 25.9856V29.7179L39.8293 29.9227V26.3052ZM49.0648 26.667L41.4916 26.3705V29.965L49.0648 30.1552V26.667ZM29.88 31.5378L21.0713 31.3778V35.2588L29.88 35.2952V31.5378ZM39.8293 31.7183L31.6731 31.57V35.3023L39.8293 35.3359V31.7183ZM49.0648 31.8863L41.4916 31.7489V35.3434L49.0648 35.3744V31.8863Z" fill="url(#paint2_linear_1410_89595)"/>
<path d="M29.88 31.535L21.0713 31.375V35.256L29.88 35.2924V31.535ZM39.8293 31.7155L31.6731 31.5672V35.2996L39.8293 35.3331V31.7155ZM49.0648 31.8835L41.4916 31.7461V35.3406L49.0648 35.3716V31.8835Z" fill="url(#paint3_linear_1410_89595)"/>
<path d="M29.88 31.535L21.0713 31.375V35.256L29.88 35.2924V31.535ZM39.8293 31.7155L31.6731 31.5672V35.2996L39.8293 35.3331V31.7155ZM49.0648 31.8835L41.4916 31.7461V35.3406L49.0648 35.3716V31.8835Z" fill="#8E816F"/>
<path d="M29.88 31.535L21.0713 31.375V35.256L29.88 35.2924V31.535ZM39.8293 31.7155L31.6731 31.5672V35.2996L39.8293 35.3331V31.7155ZM49.0648 31.8835L41.4916 31.7461V35.3406L49.0648 35.3716V31.8835Z" fill="url(#paint4_linear_1410_89595)"/>
<path d="M31.6729 31.8782L39.5262 32.0206V35.3349L39.829 35.3361V31.7182L31.6729 31.5703V31.8782Z" fill="#727477"/>
<path d="M31.6729 15.0424L39.5262 15.6828V18.9778L39.829 18.9979V15.3804L31.6729 14.7148V15.0424Z" fill="#727477"/>
<path d="M31.6729 26.2985L39.5262 26.6059V29.914L39.829 29.9215V26.3035L31.6729 25.9844V26.2985Z" fill="#727477"/>
<path d="M31.6729 20.672L39.5262 21.1461V24.4474L39.829 24.4617V20.8437L31.6729 20.3516V20.672Z" fill="#727477"/>
<path d="M21.0713 20.0318L29.5776 20.5449V23.9861L29.88 23.9999V20.2424L21.0713 19.7109V20.0318Z" fill="#727477"/>
<path d="M21.0713 2.4725L29.5776 3.52715V6.9491L29.88 6.98219V3.22474L21.0713 2.13281V2.4725Z" fill="#727477"/>
<path d="M21.0713 31.6872L29.5776 31.8413V35.2951L29.88 35.2964V31.5389L21.0713 31.3789V31.6872Z" fill="#727477"/>
<path d="M21.0713 25.8849L29.5776 26.2178V29.6654L29.88 29.6729V25.9154L21.0713 25.5703V25.8849Z" fill="#727477"/>
<path d="M21.0713 14.1787L29.5776 14.8727V18.3072L29.88 18.3278V14.5699L21.0713 13.8516V14.1787Z" fill="#727477"/>
<path d="M21.0713 8.32601L29.5776 9.20013V12.6284L29.88 12.6552V8.89773L21.0713 7.99219V8.32601Z" fill="#727477"/>
<path d="M41.4912 32.0583L48.7619 32.1902V35.3747L49.0648 35.3759V31.8878L41.4912 31.75V32.0583Z" fill="#727477"/>
<path d="M41.4912 10.4237L48.7619 11.1709V14.3294L49.0648 14.3562V10.8685L41.4912 10.0898V10.4237Z" fill="#727477"/>
<path d="M41.502 5.87309L48.7724 6.58236V9.0628L49.0752 9.08917V6.3444L41.502 5.60547V5.87309Z" fill="#727477"/>
<path d="M41.4912 15.8427L48.7619 16.4358V19.6006L49.0648 19.6211V16.133L41.4912 15.5156V15.8427Z" fill="#727477"/>
<path d="M31.6729 9.41585L39.5262 10.223V13.5113L39.829 13.5381V9.92014L31.6729 9.08203V9.41585Z" fill="#727477"/>
<path d="M31.6562 4.37918L39.5317 5.20763V7.99979L39.8354 8.02794V4.95001L31.6562 4.08984V4.37918Z" fill="#727477"/>
<path d="M41.4912 26.6852L48.7619 26.97V30.1482L49.0648 30.1558V26.6676L41.4912 26.3711V26.6852Z" fill="#727477"/>
<path d="M41.4912 21.2657L48.7619 21.7047V24.8766L49.0648 24.8904V21.4023L41.4912 20.9453V21.2657Z" fill="#727477"/>
<path d="M5.94894 8.42381L1.96875 9.77986V12.7852L5.94894 11.716V8.42381ZM11.2808 6.5072L6.838 8.15442V11.4771L11.2808 10.284V6.5072ZM17.2666 4.08984L12.276 6.0544V10.0169L17.2666 8.67649V4.08984ZM5.94894 13.3113L1.96875 14.3115V17.3168L5.94894 16.452V13.3113ZM11.2808 11.9716L6.838 13.088V16.2592L11.2808 15.2944V11.9716ZM17.2666 10.4672L12.276 11.7214V15.0777L17.2666 13.9936V10.4672ZM5.94894 18.0472L1.96875 18.8431V21.8484L5.94894 21.1884V18.0472ZM11.2808 16.9812L6.838 17.8694V21.0406L11.2808 20.3036V16.9812ZM17.2666 15.7843L12.276 16.7822V20.1389L17.2666 19.3111V15.7843ZM5.94894 22.7832L1.96875 23.3747V26.38L5.94894 25.9244V22.7832ZM11.2808 21.9908L6.838 22.6508V25.822L11.2808 25.3132V21.9908ZM17.2666 21.1018L12.276 21.8434V25.1997L17.2666 24.6282V21.1018ZM5.94894 27.5192L1.96875 27.906V30.9113L5.94894 30.66V27.5192ZM11.2808 27.0008L6.838 27.4326V30.6038L11.2808 30.3232V27.0008ZM17.2666 26.4189L12.276 26.9042V30.2609L17.2666 29.9457V26.4189ZM5.94894 32.2552L1.96875 32.4376V35.4429L5.94894 35.3959V32.2552ZM11.2808 32.0104L6.838 32.214V35.3852L11.2808 35.3328V32.0104ZM17.2666 31.736L12.276 31.965V35.3213L17.2666 35.2624V31.736Z" fill="url(#paint5_linear_1410_89595)"/>
<path d="M12.5133 27.1218L17.2667 26.6596V26.419L12.2762 26.904V30.2606L12.5133 30.2456V27.1218Z" fill="#565759"/>
<path d="M7.07528 13.3055L11.2809 12.2487L11.2808 11.9716L6.83811 13.0877L6.838 16.2592L7.07528 16.2077V13.3055Z" fill="#565759"/>
<path d="M7.07518 8.37216L11.2808 6.79653L11.2808 6.5072L6.83801 8.15472V11.4774L7.07518 11.4139V8.37216Z" fill="#565759"/>
<path d="M12.5132 22.0608L17.2666 21.3542L17.2666 21.1018L12.2761 21.843L12.276 25.1997L12.5132 25.1723V22.0608Z" fill="#565759"/>
<path d="M12.5132 6.27219L17.2666 4.37922L17.2666 4.08984L12.2761 6.05475L12.276 10.0169L12.5132 9.9534V6.27219Z" fill="#565759"/>
<path d="M7.07518 18.0869L11.2808 17.2464L11.2808 16.9812L6.838 17.8694V21.0406L7.07518 21.0014V18.0869Z" fill="#565759"/>
<path d="M12.5133 11.939L17.2667 10.7448V10.4674L12.2762 11.7216V15.0783L12.5133 15.0267V11.939Z" fill="#565759"/>
<path d="M12.5133 16.9995L17.2667 16.0493V15.7841L12.2762 16.782V20.1387L12.5133 20.0991V16.9995Z" fill="#565759"/>
<path d="M2.20598 14.5289L5.94901 13.5883L5.94894 13.3113L1.96875 14.3115V17.3168L2.20598 17.2652V14.5289Z" fill="#565759"/>
<path d="M2.20598 32.6549L5.94901 32.4833L5.94894 32.2552L1.96875 32.4376L1.96881 35.4432L2.20598 35.4401V32.6549Z" fill="#565759"/>
<path d="M2.20598 28.1233L5.94901 27.7596L5.94894 27.5192L1.96875 27.906L1.96881 30.9116L2.20598 30.8966V28.1233Z" fill="#565759"/>
<path d="M2.20598 23.5917L5.94901 23.036L5.94894 22.7832L1.96881 23.3743L1.96875 26.38L2.20598 26.3526V23.5917Z" fill="#565759"/>
<path d="M12.5132 32.1824L17.2666 31.9642L17.2666 31.736L12.276 31.965V35.3213L12.5132 35.3186V32.1824Z" fill="#565759"/>
<path d="M7.07518 32.4317L11.2808 32.2389L11.2808 32.0104L6.83801 32.2143V35.3854L7.07518 35.3828V32.4317Z" fill="#565759"/>
<path d="M7.07528 22.8685L11.2809 22.2435V21.9906L6.83811 22.651V25.8222L7.07528 25.7949V22.8685Z" fill="#565759"/>
<path d="M7.07518 27.65L11.2808 27.2413L11.2808 27.0008L6.838 27.4326V30.6038L7.07518 30.5887V27.65Z" fill="#565759"/>
<path d="M2.20598 19.0603L5.94901 18.3118V18.047L1.96881 18.8425V21.8482L2.20598 21.8089V19.0603Z" fill="#565759"/>
<path d="M2.20598 9.99713L5.94894 8.70954L5.94901 8.42364L1.96881 9.77968V12.785L2.20598 12.7215V9.99713Z" fill="#565759"/>
<path d="M5.94894 32.2556L1.96875 32.4381V35.4434L5.94894 35.3964V32.2556ZM11.2808 32.0109L6.838 32.2145V35.3856L11.2808 35.3333V32.0109ZM17.2666 31.7365L12.276 31.9655V35.3217L17.2666 35.2629V31.7365Z" fill="url(#paint6_linear_1410_89595)"/>
<path d="M2.20598 32.6554L5.94901 32.4838L5.94894 32.2556L1.96875 32.4381L1.96881 35.4436L2.20598 35.4406V32.6554Z" fill="#565759"/>
<path d="M12.5132 32.1829L17.2666 31.9647L17.2666 31.7365L12.276 31.9655V35.3217L12.5132 35.319V32.1829Z" fill="#565759"/>
<path d="M7.07518 32.4322L11.2808 32.2394L11.2808 32.0109L6.83801 32.2148V35.3859L7.07518 35.3832V32.4322Z" fill="#565759"/>
<path d="M19.5965 38.4727H0V39.9981H19.5965V38.4727Z" fill="#727477"/>
<path d="M51.0034 38.4727H19.5439V39.9981H51.0034V38.4727Z" fill="url(#paint7_linear_1410_89595)"/>
<defs>
<linearGradient id="paint0_linear_1410_89595" x1="0.722614" y1="13.8793" x2="19.188" y2="13.8793" gradientUnits="userSpaceOnUse">
<stop stop-color="#BCBEC0"/>
<stop offset="1" stop-color="#939598"/>
</linearGradient>
<linearGradient id="paint1_linear_1410_89595" x1="19.1789" y1="13.8802" x2="50.5732" y2="13.8802" gradientUnits="userSpaceOnUse">
<stop stop-color="white"/>
<stop offset="1" stop-color="#E6E7E8"/>
</linearGradient>
<linearGradient id="paint2_linear_1410_89595" x1="20.609" y1="12.894" x2="49.5316" y2="12.894" gradientUnits="userSpaceOnUse">
<stop stop-color="#90A4AE"/>
<stop offset="0.5" stop-color="#B0BEC5"/>
<stop offset="0.98" stop-color="#90A4AE"/>
</linearGradient>
<linearGradient id="paint3_linear_1410_89595" x1="20.609" y1="12.8913" x2="49.5316" y2="12.8913" gradientUnits="userSpaceOnUse">
<stop stop-color="#90A4AE"/>
<stop offset="0.5" stop-color="#B0BEC5"/>
<stop offset="0.98" stop-color="#90A4AE"/>
</linearGradient>
<linearGradient id="paint4_linear_1410_89595" x1="20.609" y1="32.6688" x2="49.5316" y2="32.6688" gradientUnits="userSpaceOnUse">
<stop stop-color="#90A4AE"/>
<stop offset="0.5" stop-color="#B0BEC5"/>
<stop offset="0.98" stop-color="#90A4AE"/>
</linearGradient>
<linearGradient id="paint5_linear_1410_89595" x1="1.71614" y1="14.2633" x2="17.5219" y2="14.2633" gradientUnits="userSpaceOnUse">
<stop stop-color="#90A4AE"/>
<stop offset="0.5" stop-color="#B0BEC5"/>
<stop offset="0.98" stop-color="#90A4AE"/>
</linearGradient>
<linearGradient id="paint6_linear_1410_89595" x1="9.61769" y1="30.2461" x2="9.61769" y2="35.4436" gradientUnits="userSpaceOnUse">
<stop stop-color="#93A7B0"/>
<stop offset="0.390625" stop-color="#AEBDC4"/>
<stop offset="1" stop-color="#92A6B0"/>
</linearGradient>
<linearGradient id="paint7_linear_1410_89595" x1="19.5441" y1="39.2355" x2="51.0037" y2="39.2355" gradientUnits="userSpaceOnUse">
<stop stop-color="#D1D3D4"/>
<stop offset="1" stop-color="#BCBEC0"/>
</linearGradient>
</defs>
</svg>
